<?xml version="1.0" encoding="UTF-8"?> <svg xmlns="http://www.w3.org/2000/svg" width="85.6" height="73.8" viewBox="0 0 85.6 73.8"><g><path d="M15.6,56.6h-.3l4,7.3c1.2-2.2.8-3.9-.9-6.2Zm6,4.5c.3.7-.1,1,1,1.8a53.035,53.035,0,0,0,9.6,5.3,37.273,37.273,0,0,1,3.5,1.6h2.9c-5.1-2.6-10.7-5-14.6-7.7.2.1-2.4-1-2.4-1Zm10.2,8.1c-.1,0-.1.1-.2.1.3.1.6.1.9.2a4.875,4.875,0,0,0-.7-.3Zm-6.3-.8,2.1-1.2c-1.5-.8-3.1-1.8-4.8-2.9-.9.4-1.7.8-2.6,1.2l1.6,2.9h1.1a11.3,11.3,0,0,1,2.6,0ZM21.1,54.2a.9.9,0,0,0,1.8,0,.9.9,0,0,0-1.8,0Zm38.2,11h0c-.9.1-1.7.2-2.6.3a2.438,2.438,0,0,0,0,1.2v1.1a5.633,5.633,0,0,0,0,1.3c.2-.2.3-.4.4-.5.7-1.2,1.5-2.2,2.2-3.4ZM43.5,69.9h2.3v-2A21.976,21.976,0,0,0,43.5,69.9Zm-4.1-1c3.8-3,6.5-5.2,6.7-5.3.2-1.3.4-2.6.6-4.1-3.8,2.5-7.6,5-11.3,7.4,1.3.7,2.7,1.4,4,2ZM18.2,49.1a.9.9,0,0,0-1.8,0,.9.9,0,0,0,1.8,0Zm3.1,6.7a.9.9,0,0,0-1.8,0,.9.9,0,0,0,1.8,0ZM16.8,55A.9.9,0,0,0,15,55a.9.9,0,0,0,1.8,0Zm2.4-5.7a.9.9,0,0,0,1.8,0A.9.9,0,0,0,19.2,49.3Zm27.1,7.5.9-.6a8.1,8.1,0,0,0,0-2.2.909.909,0,0,0-.8-.4c-3.9,1.8-7.8,3.5-11.7,5.3v.3l-.2-.2a14.167,14.167,0,0,1-1.8.8l-.2.9-.7-.5-3.4,1.6a2.73,2.73,0,0,1-.9,1.2c1.2.7,2.6,1.4,3.9,2.1,5-2.8,9.9-5.6,14.9-8.3Zm15.4,8.8c-.8,1.4-1.6,2.9-2.5,4.3h2.2c0-.4.1-.8.1-1.2.1-.9.2-1.8.3-2.8,0-.1.1-.3-.1-.3ZM15.4,53.1a.9.9,0,0,0-1.8,0,.9.9,0,0,0,1.8,0Zm25-3.1c-2.4.7-4.7,1.3-7.1,1.9l.2,1.6a4.751,4.751,0,0,1,.9,1.9c2.9-1.1,5.8-2.1,8.7-3.2.1-.1.3-.1.4-.3a4.981,4.981,0,0,1-1-1.9A3.75,3.75,0,0,0,40.4,50ZM11.2,48.5a.6.6,0,0,0-.4.1L12.7,52c.3-.7.5-1.4.8-2.1.3-1.1-1.5-1.4-2.3-1.4Zm4.8-1a6.558,6.558,0,0,0-4.4-2.8c-.5.5-1.2,1.3-1.8,2l.4.7a7.469,7.469,0,0,1,3.9,1.2A11.782,11.782,0,0,1,16,47.5Zm6.4,21.9.3.5h6.2a35.6,35.6,0,0,0-6.5-.5ZM21.1,51.3a.9.9,0,0,0,1.8,0,.9.9,0,0,0-1.8,0ZM13.8,33c1.3.1,2.5.3,3.8.4l2.7.3c1.3.1,2.6.3,3.9.4,1.4.2,2.8.3,4.2.5H29c.3-1.2.5-2.4.7-3.6-.1-.1-.1-.2-.2-.2-6.6-1.3-13.1-2.7-19.7-4l-3,5.3,2.7.3a34.118,34.118,0,0,0,4.3.6ZM29.1,17.9a24.606,24.606,0,0,1-2-4.7c0-.1-.1-.2-.2-.3-.2.1-.5.3-.7.4a5.066,5.066,0,0,1-1.5.7,3,3,0,0,0-1,.4c-.6.3-1.1.5-1.7.8-.1.1-.3.1-.3.3,2.6,1.2,5.2,2.4,7.8,3.5l.1-.1A9.292,9.292,0,0,0,29.1,17.9Zm9.2,26.7a.349.349,0,0,1-.2-.1c-3.9.4-7.8.9-11.7,1.3l.7.6a7.208,7.208,0,0,1,4.6,1.3l1.2,1c1.7-.3,3.5-.7,5.2-1,.2-.1.3-.1.5-.2a4.191,4.191,0,0,1-.4-1.5,6.6,6.6,0,0,0,.1-1.4Zm-10.4,15c.6-2.5-1.5-3.2-3.8-3.7-1.5-.3-2.1.5-3.3,1.4-.3,3.2,3.1,1.8,4.4,3.1a20.278,20.278,0,0,1,1.3,1.8C27.4,62.1,27.8,60.2,27.9,59.6Zm52.5-24a6.356,6.356,0,0,1-1.8.6,2.815,2.815,0,0,1-2-.4v-.1c.4,0,.9-.1,1.2-.1A4.032,4.032,0,0,0,80,35l-1.1-2.1a4.1,4.1,0,0,1-1.1.1,2.777,2.777,0,0,1-1.8-.3c0-.2.1-.1.2-.1h.1a8.329,8.329,0,0,0,2.2-.3l-1-1.9a3.271,3.271,0,0,1-2.9-1.5,5.67,5.67,0,0,1-.8-1.3v-.4a5.547,5.547,0,0,0,.6.8,5.223,5.223,0,0,0,1.9,1.4c.3.1.5.1.8.2l-.8-1.5c-.1-.1-.3-.2-.4-.4a6.916,6.916,0,0,1-1-1.9v-.2c.1.1.1.2.2.2l-5.6-10a8.636,8.636,0,0,1-1.6,1,4.711,4.711,0,0,1-1.7.4,1.7,1.7,0,0,1-1.4,0l1.2-.3c.3-.1.7-.2,1-.3a4.535,4.535,0,0,0,2.1-1.5l-.7-1.2a10.7,10.7,0,0,1-1.6,1.4c-.4.2-.9.4-1.3.6a11.34,11.34,0,0,1-4.1.2.975.975,0,0,1-.9-.4h1.4a10.55,10.55,0,0,0,3.1-.4,5.619,5.619,0,0,0,3.1-1.9l-.6-1.1a7.871,7.871,0,0,1-2.2,1.8,5.278,5.278,0,0,1-2.5.8c-.1.1-.2.1-.4.1a2.824,2.824,0,0,1-1.8-.2,13.552,13.552,0,0,1,2-.2,4.951,4.951,0,0,0,1.3-.4,10.837,10.837,0,0,0,3-2.6h0L65.2,8.5V9c0,.2-.1.4-.1.7-.1,0-.1,0-.1-.1a5.7,5.7,0,0,1-.4-2.2l-.8-1.5a17.7,17.7,0,0,0-.1,2.3,2.769,2.769,0,0,1-.1.9,4.793,4.793,0,0,1-.7-2A6.079,6.079,0,0,1,63,5.2c0-.1.1-.3.1-.4l-.4-.7h-1c.1.2.1.4.2.6-.2.1-.3-.1-.4-.2a2.181,2.181,0,0,1-.5-.4H58.1a3.592,3.592,0,0,1-1,.7c-.1.1-.2.3-.4.3A4.875,4.875,0,0,1,57.1,4H55.5a8.005,8.005,0,0,1-2.9,2.3.965.965,0,0,1-.8.2c.1-.1.1-.1.1-.2A10.444,10.444,0,0,0,54.7,4H53.6c-1.1,1-2.5,1.7-3.4,1.3.3-.1.8-.3,1.1-.4a5.3,5.3,0,0,0,1-.6c.1-.1.3-.2.4-.3H38c-.3.1-.7.3-1,.4a4.169,4.169,0,0,1-.6.2V4.3c.2-.1.4-.3.6-.4H31.8V4c-.3.8-.8,1.5-1.1,2.2a7.778,7.778,0,0,1-2,2.4,6.514,6.514,0,0,1-2.3,1.5c.1-.2.2-.3.3-.5.9-1.1,1.8-2.1,2.7-3.2a5.854,5.854,0,0,0,1-1.7,2.01,2.01,0,0,1,.4-.8h-2c-.6,1.1-1.3,2.2-1.9,3.3-.3.6-.7,1.1-1,1.7a9.3,9.3,0,0,1-2.1,2.3.758.758,0,0,1-.4.2,12.133,12.133,0,0,0,1-1.4,18.014,18.014,0,0,0,2.5-4l.9-2.1H26.4c-.3.5-.6,1.1-.9,1.6-.4.8-.8,1.5-1.2,2.2a8.129,8.129,0,0,1-1.8,1.9,9.81,9.81,0,0,1-3.6,2c-.1.1-.2,0-.3,0,.1-.3.4-.4.7-.7A21.1,21.1,0,0,0,21.6,9a17.929,17.929,0,0,0,3.1-3.7c.3-.5.5-.9.8-1.4H24.3L22.2,6.7a11.849,11.849,0,0,1-2.5,2.5l-3.1,5.5h.9c.2,0,.6-.1.8-.1.3,0,.6-.1.9-.1a4.918,4.918,0,0,0,2.1-.4c.6-.3,1.1-.6,1.7-.9a3.708,3.708,0,0,1,1.4-.4,3,3,0,0,0,1-.4c.6-.4,1.2-.9,1.8-1.3.2,0,.3-.1.6-.2.1.1.1.2.2.3a15.662,15.662,0,0,0,1.9,5.5c.7,1.2,1.2,2.4,1.9,3.6a5.748,5.748,0,0,1,.4,3.4c-.4,2.8-.9,5.4-1.3,8.1-.2,1.7-.7,3.2-1,4.8v.1a3.18,3.18,0,0,0,1.3,3.5,5.244,5.244,0,0,0,1.8,1,13.576,13.576,0,0,0,2.9.3,7.717,7.717,0,0,1,2.6.3c.1,0,.3.2.4.3a1.709,1.709,0,0,1,.7,1.3,6.473,6.473,0,0,1-.1,2.4,5.1,5.1,0,0,0,1.2,2,2.875,2.875,0,0,0,1.8.7c.4,0,1-.1,1.4-.1.2.1,0,.3,0,.4a.367.367,0,0,0-.1.3,2.3,2.3,0,0,0,.4,1.4,2.251,2.251,0,0,0,1.6,1,7.194,7.194,0,0,1,2.1,1.2,1.622,1.622,0,0,1,.7,1.4V56a5.853,5.853,0,0,1-.2,1.3c-.3,1.4-.6,2.8-.8,4.2-.1,1.2-.3,2.4-.4,3.6a16.2,16.2,0,0,0-.1,2.2v2.3h1.8V68.2l.1-.1c.1.5.3,1,.4,1.5h.7c-.1-.6-.1-1.2-.2-1.7a3.4,3.4,0,0,0-.1-1,19.3,19.3,0,0,1,0-3.4c0-.3.1-.7.1-.9.2-1.2.4-2.4.7-3.6a.367.367,0,0,1,.3.1,2.635,2.635,0,0,1,.6,2.1,32.529,32.529,0,0,0-.3,4.4v4h1c0-1.6,0-3.2.1-4.8V62.9a1.854,1.854,0,0,1,.2-.7.548.548,0,0,1,.6-.4h.1a.592.592,0,0,1,.1.7c-.1,2.3-.3,4.6-.3,7h2.4c0-.7.1-1.4.1-2.2v-.6c0-1-.1-1.9-.1-2.9,0-.2,0-.3.1-.4h.3a6.383,6.383,0,0,0,4.1-.2A16.587,16.587,0,0,0,63,62c.1-.1.3-.1.6-.2v.4L63,66.7a24.519,24.519,0,0,0-.2,2.7l2.4-4.3.3-3.3V58.4c0-2.2.1-4.5.3-6.7.1-2,.2-4,.2-5.8a19.529,19.529,0,0,1,.3-3.4c.2-1.5.4-3,.6-4.4a22.923,22.923,0,0,1,2.2-6.7c0-.1.1-.1.1-.2a1.412,1.412,0,0,1-.1.9c-.4,2-.9,4.1-1.2,6.1-.2,1.4-.4,2.9-.7,4.2V43c-.1,1.9-.1,3.7-.2,5.6,0,1.3-.1,2.5-.2,3.9-.1,1.7-.2,3.4-.3,5.2-.1,1.9-.1,3.7-.3,5.6v.6l1.2-2.2v-.5c.1-1.9.1-3.6.2-5.5q.15-1.8.3-3.9c0-1.2.1-2.3.2-3.5.1-2.1.3-4.1.6-6.2a13.71,13.71,0,0,1,.8-3.5c.2-1,.6-1.9.8-2.8a17.923,17.923,0,0,0,.7-5.1,2.769,2.769,0,0,1,.1-.9c.1.1.1.1.1.2a4.869,4.869,0,0,1,.1,1.2,4.1,4.1,0,0,1,.1,1.1,41.726,41.726,0,0,1-.8,5.1,30.669,30.669,0,0,0-.7,4.2,4.253,4.253,0,0,0-.2,1.1c-.2,2-.4,4-.6,5.9-.2,1.5-.3,3.1-.6,4.7-.1,1.1-.1,2.2-.2,3.3s-.1,2.2-.2,3.3l2.8-5.1c0-.1-.1-.2,0-.3a15.165,15.165,0,0,1,1.9-5.9,79.963,79.963,0,0,0,3.5-7.2,6.405,6.405,0,0,1,1.3-1.9,3.858,3.858,0,0,1,1.7-1.1c.3-.1.6-.2,1-.3l.8-1.4ZM60.1,9.5a8.651,8.651,0,0,0,.7,1.7,2.94,2.94,0,0,0,1,1.2,4.62,4.62,0,0,1,.7.7c-.1.1-.1.1-.2.1A2.2,2.2,0,0,1,60.7,12,3.88,3.88,0,0,1,60.1,9.5ZM53.2,7.6a3.1,3.1,0,0,1,2.6,2.9,1.949,1.949,0,0,1,.1.8v.1a1.38,1.38,0,0,1-.4-.3c-.2-.4-.4-.9-.7-1.4A3.907,3.907,0,0,0,53.4,8c-.1-.1-.2-.1-.3-.2,0-.1,0-.1-.1-.1h0c0-.1.2-.2.2-.1Zm-2.3.8a9.2,9.2,0,0,1,2.5,1.9c.8,1.1,1.6,2.1,2.3,3.2a12.092,12.092,0,0,0,5.5,3.9,29.066,29.066,0,0,0,3.9,1.2,19.016,19.016,0,0,1,4.2,1.5c.1.1.3.2.4.3h-.6c-1.3-.3-2.7-.6-4-.9l-2.3-.7a14.262,14.262,0,0,1-2.7-.9A9.036,9.036,0,0,1,55.6,15a26.888,26.888,0,0,1-2.2-2.8c-.9-1.2-1.7-2.3-2.6-3.5-.1-.2-.2-.3-.2-.5a.769.769,0,0,1,.3.2ZM64.8,26.1a4.1,4.1,0,0,1-.1-1.1,3.838,3.838,0,0,1,1.1,1.1,8.083,8.083,0,0,1,.7,2.2,1.7,1.7,0,0,1-.1.7,4.951,4.951,0,0,1-.4,1.3c-.4.7-.8,1.3-1.2,2a9.58,9.58,0,0,0-1.2,3.2c0,.1-.1.2-.2.3,0-.1-.1-.1-.1-.2a10.2,10.2,0,0,1,.4-4.6c.3-.7.6-1.3.8-1.9a10.206,10.206,0,0,0,.3-3ZM63,28.9a3.178,3.178,0,0,0-.3.9c-.2-.8-.3-1.2-.4-1.7s-.3-1-.4-1.5a14.672,14.672,0,0,0-.6-1.4c-.1-.4-.3-.9-.4-1.3a6.109,6.109,0,0,0-.7-1.4L59.6,21c.1.1.3.2.4.3.3.4.7.8,1,1.2s.7.9,1,1.3a12.81,12.81,0,0,1,1.1,2,4.714,4.714,0,0,1-.1,3.1ZM44.5,5.2a30.918,30.918,0,0,1,3.3,3.9,3.808,3.808,0,0,1-1.6-.3,23.776,23.776,0,0,1-2.3-4.1c.3.1.5.2.6.5Zm-7.9.5a2.375,2.375,0,0,1,1.2.3c1.3.7,2.9,1.2,4.3,1.8a41.052,41.052,0,0,1,6.1,2.5,24.937,24.937,0,0,1,6,4.2c.1.1.3.2.4.4.7.8,1.4,1.7,2.1,2.5a1.9,1.9,0,0,1,.7,1.1c-1-1-2.1-2-3.2-3a25.887,25.887,0,0,0-5.6-3.7c-2.8-1.2-5.5-2.5-8.2-3.9-.9-.3-1.8-.8-2.7-1.1A8.342,8.342,0,0,1,36.5,6c-.1-.1-.2-.1-.3-.2.2,0,.3-.1.4-.1Zm-1,1.2c1.3.9,2.8,1.8,4.1,2.6a12.979,12.979,0,0,0,3.7,1.9c.5.2.9.4,1.4.6a28.523,28.523,0,0,1,6.7,3.5,21,21,0,0,1,5.1,5.2,24.093,24.093,0,0,1,2.5,5.7v.3c-.2,0-.2-.2-.3-.4-.2-.6-.6-1.2-.8-1.8a25.881,25.881,0,0,0-4.7-6.3,22.091,22.091,0,0,0-4.7-3.3,47.661,47.661,0,0,0-5.2-2.2,16.581,16.581,0,0,1-3.3-1.5,8.711,8.711,0,0,1-3.2-2.4,17.878,17.878,0,0,0-1.3-1.4l-.3-.6a.438.438,0,0,0,.3.1Zm3.8,11.6a1.589,1.589,0,0,1-1-.8v-.1a1.02,1.02,0,0,1,.9-.2h1.8a8.519,8.519,0,0,1,2.3.4,24.374,24.374,0,0,1,2.6.6c.1.1.3.1.4.4a1.421,1.421,0,0,1-.6.2,3.4,3.4,0,0,1-1,.1,24.825,24.825,0,0,1-5.4-.6Zm5.4,2c-.1.4-.6.8-.9,1.1a4.648,4.648,0,0,1-2.1,1.3,5.333,5.333,0,0,1,.4-2.8c.7-.3,1.3,0,2,0a.675.675,0,0,1,.6.4Zm.7-2.9c-1-.3-1.9-.6-2.8-.8-1.1-.1-2.1-.1-3.2-.2H36.8l-.3-.3v-.2a2.526,2.526,0,0,1,2.3-1.5,3.194,3.194,0,0,0,1.4-.3,4.869,4.869,0,0,1,1.2-.1,1.7,1.7,0,0,1,.7.1c1.7.9,3.5,1.5,5,2.4a7.551,7.551,0,0,1,1.4,1.1c-.3.1-.4.2-.6.2a5.277,5.277,0,0,1-2.4-.4ZM45.3,50a.751.751,0,0,1-.2-1,7.459,7.459,0,0,1,1.2-.7c.1,0,.2,0,.6.2A4.573,4.573,0,0,1,45.3,50Zm18.9,8.2a2.99,2.99,0,0,1-1.3,2.5c-.4.2-.9.6-1.3.8a15.872,15.872,0,0,1-2,.7,8.1,8.1,0,0,1-3.8.3,3.247,3.247,0,0,1-1.8-1A9.881,9.881,0,0,1,51.8,58c-.1-.3-.1-.7-.2-.9a10.9,10.9,0,0,0-.3-2.6,2.767,2.767,0,0,0-2.2-2.3,7.572,7.572,0,0,1-1.8-.9,3.126,3.126,0,0,1-1.1-.9,4.442,4.442,0,0,0,1.9-1.7,8.488,8.488,0,0,0,.9-2.2H47.3a15.137,15.137,0,0,1-3-.2,5.732,5.732,0,0,1-1.4-.4,2.247,2.247,0,0,0-1.8-.2c-.1,0-.1-.1-.2-.1a4.973,4.973,0,0,0,.1-2.1V43a6.356,6.356,0,0,0-1.4-2.2,17.023,17.023,0,0,0-3.9-.2,6.465,6.465,0,0,1-2-.4,3.424,3.424,0,0,1-2.5-3.1,1.978,1.978,0,0,1,.2-1.1c.2-.6.4-1.3.6-2,.1-1,.3-2,.4-2.9a43.378,43.378,0,0,1,.8-5.2,15.458,15.458,0,0,0,.4-3.1,5.439,5.439,0,0,0-.6-3.3l-1.7-3.3A14.039,14.039,0,0,1,30,12.8c-.2-.1-.2-.3-.2-.5a2.449,2.449,0,0,1,.4-2.3l.7-.3a3.083,3.083,0,0,1,1.9,0l2.7,1.2a3.582,3.582,0,0,1,1.1.4c.8.4,1.4.8,2.1,1.2.2.1.3.2.3.4,0,.1-.2.1-.3.1a10.88,10.88,0,0,0-3,.7,2.56,2.56,0,0,0-1.3,1c-.3.3-.7.8-1,1.1A1.374,1.374,0,0,0,33,17c-.1.7.2,1,.9,1.2.1,0,.3.1.4.1a2.863,2.863,0,0,0,2.7-.1c0-.1-.1-.2-.2-.3s-.2-.1-.4-.2a1.721,1.721,0,0,1,1.2-.2c.1.1.2.2.2.3v.7a1.3,1.3,0,0,1-1.2.8c-.6,0-1.2-.1-1.8-.1h-.6c-.1.1,0,.2,0,.3h.1c.3.2.6.3.9.5a1.779,1.779,0,0,1,.8.7l.1.1a6.478,6.478,0,0,0,2-.2,3.553,3.553,0,0,0,1-.2,1.1,1.1,0,0,1,.8,0,8.428,8.428,0,0,0,.6,1.4,3.805,3.805,0,0,0,.9,1.3c0,.2-.2.2-.4.3-.3.3-.3.3-.4.9.3.2.6,0,.8,0a.6.6,0,0,1,.3.6,4.759,4.759,0,0,0,.8,1.8c.1,0,.1,0,.2.1.1-.4-.2-.7-.2-1a2.769,2.769,0,0,1-.1-.9,1.651,1.651,0,0,1,1-1,8.635,8.635,0,0,0,1.4-1.3c.1-.1.1-.2.2-.3-.6.3-1.1.8-1.7,1.1a3.7,3.7,0,0,1-1.1.5h-.4c.1-.2.1-.3.2-.4.2-.1.5-.3.7-.4a6.484,6.484,0,0,0,3.1-2.8c.1-.3.3-.7.7-.7a1.693,1.693,0,0,0,1.4-.9,8.506,8.506,0,0,1,2.2-.4,46.154,46.154,0,0,1,5,3.7,2.982,2.982,0,0,1,1.2,1.7,7.619,7.619,0,0,0,.6,2,9.094,9.094,0,0,0,2.5,4.2c.6.6,1,1.1,1.6,1.7a.951.951,0,0,1,.4,1c0,.4.1.9.1,1.2a17.023,17.023,0,0,0,.2,3.9l.6,1.8c.1.1.1.3.2.6a38.44,38.44,0,0,1,1.6,6.7c0,.2.1.4.1.7a17.852,17.852,0,0,1,.2,2.3ZM46.9,48.1a2.092,2.092,0,0,1,.6-.4c.2.3,0,.4-.1.7C47.2,48.4,46.9,48.4,46.9,48.1ZM69,28a13.859,13.859,0,0,1-1.2,3.6,5.3,5.3,0,0,1-.6,1,22.708,22.708,0,0,0-2,5.7l-.3.9-.1.1c0-.3-.1-.5-.1-.9a16.96,16.96,0,0,1,.6-3.1A21.981,21.981,0,0,1,67,31.4a9.819,9.819,0,0,0,.8-1.8c.3-.7.8-1.2,1.1-1.9l.2-.2Zm4.3,7.3a19.269,19.269,0,0,1-.1,2.4c-.1,1.1-.2,2.1-.4,3.2-.6,2.5-1.2,5.1-2,7.5a1.689,1.689,0,0,1-.3,1,1.1,1.1,0,0,1,0-.8c.1-1.1.2-2.3.4-3.4.3-1.7.4-3.3.8-5A50.706,50.706,0,0,1,73,34.6c0-.1.1-.2.2-.3.3.4.1.7.1,1Zm.2-3.8a8.794,8.794,0,0,1-.6-1A19.692,19.692,0,0,0,70,26.3,11.777,11.777,0,0,0,67.3,24c-1.4-.8-2.8-1.5-4.2-2.3a20.278,20.278,0,0,1-1.8-1.3c-.1,0-.2-.1-.3-.2.2,0,.3,0,.4.1a.367.367,0,0,0,.3.1L67.4,23a21.11,21.11,0,0,1,2.7,1.8,9.025,9.025,0,0,1,3.1,4.6l.3,1.5c.1.2.2.4,0,.6ZM29.4,27.2a1.412,1.412,0,0,0,.9.1,18.01,18.01,0,0,0,.6-3.2v-.6a10.375,10.375,0,0,1-1-.4c-5-1.8-9.9-3.6-14.9-5.5l-2.7,4.9c2.4.7,4.8,1.3,7.3,2,3.2.9,6.5,1.8,9.8,2.7ZM22.5,4.4l.5-.5h-.4l-.7,1.2c0-.1.1-.1.1-.2A1.205,1.205,0,0,0,22.5,4.4ZM12.3,42.8l-.6-.8,2.4.2a4.486,4.486,0,0,1,1.9.5h0l-.2-1.1,2,1h.1c1.9-.1,3.8-.1,5.7-.2H24c2.2-.1,4.5-.2,6.7-.3.1,0,.3.1.4-.1-.6-.5-1.2-1-1.7-1.5a6.667,6.667,0,0,1-.9-2.1c-.1,0-.1-.1-.2-.1-1.3-.1-2.6-.1-3.8-.2-2.3-.1-4.6-.2-6.8-.3-2.1-.1-4.1-.2-6.2-.3-2-.1-4.1-.2-6.1-.2a1.949,1.949,0,0,1-.8-.1h0L7.8,43c1.1,0,2.3-.1,3.4-.1A3.75,3.75,0,0,1,12.3,42.8ZM28.6,57a2.186,2.186,0,0,0,.3.5c.1-.1.2-.1.3-.2A3.435,3.435,0,0,0,27.6,56,9.428,9.428,0,0,1,28.6,57Zm-4.8-5.9c.9-1,2.8-.9,4.1-1.2,1.5-.3,3,1.5,4.3,2.1a3.08,3.08,0,0,0-2.5-2.9c.5-.1.8-.5,1.3-.6-2.1-1.8-10.4-1.2-7.2,2.6Zm8,7.5c.2-.8,1-1.8,1.8-1.4-.1-3.8-2.8-4.9-6.2-5.4-.6-.1-3.3-.4-3.8.3-.3.4.1,2,.1,2.4a9.346,9.346,0,0,1,4.4.4C29.8,55.7,30.5,57.5,31.8,58.6ZM21,52.5c0-3.1-5.3-3.1-5.3,0C15.8,55.5,21,55.5,21,52.5Zm.3-8.2c-1.4-.4-.5,2.6-.6,3.5,1.5.9,1.1.9,2.3-.1a8.228,8.228,0,0,1,2.5-1.2,4.756,4.756,0,0,0-2.1-.7C22.4,45.5,22.2,44.6,21.3,44.3ZM16.7,56.1a.9.9,0,0,0,1.8,0A.9.9,0,0,0,16.7,56.1Zm.4-8.6c.9,0,2.2.4,2.4-.6.4-1.8-.7-2.7-2.2-3.5.1.4-.1.9,0,1.3a5.612,5.612,0,0,0-3.2-1.5C15,44.4,15.8,46.6,17.1,47.5Zm-3.1,3a.9.9,0,0,0,1.8,0,.9.9,0,0,0-1.8,0Z"></path><path d="M64.7,73.8H20.9l-.8-.4L0,37.4v-.8L20.1.6l.8-.6H64.7l.8.4,20.1,36v.8l-20.1,36ZM21.4,72H64.1L83.7,36.8,64.1,1.7H21.4L1.8,36.9Z"></path></g></svg> 