<?xml version="1.0" encoding="UTF-8"?>
<svg id="Ebene_1" xmlns="http://www.w3.org/2000/svg" version="1.1" viewBox="0 0 93.83 77.74">
  <!-- Generator: Adobe Illustrator 29.8.4, SVG Export Plug-In . SVG Version: 2.1.1 Build 6)  -->
  <defs>
    <style>
      .st0 {
        fill: #fff;
      }
    </style>
  </defs>
  <path class="st0" d="M68.36,75.47H25.46l-.7-.4L5.06,39.27v-.8L24.66,2.67l.8-.4h42.9l.7.4,19.7,35.8v.8l-19.7,35.8-.7.4ZM25.96,73.77h41.9l19.2-34.9L67.86,3.97H25.96L6.76,38.87l19.2,34.9Z"/>
  <g>
    <path class="st0" d="M45.56,36.67c.1.1.2.2.2.3.5,1,.5,2,.1,3.1-.2.3-.4.7-.9.7-.4-.2-.3-.5-.3-.9-.1,0-.2-.1-.3-.1-1.2-.3-2.5-.3-3.7-.2-.5.1-1.1.3-1.5.5-.3.2-.7.4-.7.9.3-.2.8-.4,1.1-.7.9-.4,1.7-.4,2.5-.4,1,0,1.9.4,2.5,1.2.1.1.2.1.2.2.5.1.9-.1,1.3-.3.1-.2.3-.5.4-.9.3-.8.4-1.5.1-2.4-.1-.5-.4-.8-1-1Z"/>
    <path class="st0" d="M28.36,52.87c.9-.9,2.8-.9,4-1.2,1.5-.3,2.9,1.5,4.2,2.1-.2-1.5-.9-2.5-2.4-2.8.4-.1.8-.5,1.3-.6-2.2-1.9-10.3-1.4-7.1,2.5Z"/>
    <path class="st0" d="M21.76,49.27c.9,0,2.2.4,2.4-.6.4-1.8-.7-2.6-2.2-3.4.1.4-.1.9,0,1.3-1.1-.8-1.8-1.4-3.2-1.5.9,1.1,1.8,3.3,3,4.2Z"/>
    <path class="st0" d="M23.06,59.37c-.9-.4-1.9-.7-2.8-1.1-.1,0-.3,0-.4.1l4,7.2c1.2-2.2.9-3.9-.8-6.2Z"/>
    <path class="st0" d="M15.96,50.27c-.2,0-.4,0-.5.1l1.9,3.5c.3-.8.5-1.5.8-2.3.4-1-1.4-1.4-2.2-1.3Z"/>
    <path class="st0" d="M25.96,46.17c-1.4-.4-.5,2.5-.6,3.4,1.4.9,1.1.9,2.2-.1.6-.6,1.7-.9,2.4-1.2-.6-.5-1.3-.5-2.1-.7-.9-.3-1.1-1.2-1.9-1.4Z"/>
    <path class="st0" d="M31.86,53.57c-.6-.1-3.2-.3-3.7.3-.3.4.1,1.9.1,2.4,1.4-.1,3-.2,4.3.4,1.7.7,2.3,2.4,3.6,3.6.2-.8,1-1.8,1.8-1.4-.1-3.7-2.8-4.8-6.1-5.3Z"/>
    <path class="st0" d="M14.46,48.47l.3.6c1.5.1,2.9.4,4,1.2.6-.4,1.3-.7,1.9-1.1-1.2-1.7-2.6-2.5-4.3-2.8-.5.6-1.3,1.4-1.9,2.1Z"/>
    <path class="st0" d="M29.76,62.07c.2.2,1.3,1.8,1.3,1.8.8-.1,1.2-2,1.4-2.6.5-2.5-1.4-3.2-3.7-3.6-1.5-.3-2.1.5-3.2,1.4-.5,3.1,2.9,1.7,4.2,3Z"/>
    <path class="st0" d="M34.46,71.67c-2.5-.5-5.1-.7-7.7-.7l.4.7h7.3Z"/>
    <path class="st0" d="M25.56,54.17c0-3-5.2-3-5.2,0,.1,3,5.2,3,5.2,0Z"/>
    <path class="st0" d="M28.66,63.77l-2.5-1.1c.3.7-.1,1,1,1.8,3,2,6.1,3.9,9.4,5.3,1.3.5,2.6,1.2,3.9,1.8h2.9c-5.1-2.6-10.8-5.1-14.7-7.8Z"/>
    <path class="st0" d="M20.46,52.17c0-1.1-1.8-1.1-1.8,0,.1,1.1,1.8,1.1,1.8,0Z"/>
    <path class="st0" d="M21.46,56.67c0-1.1-1.8-1.1-1.8,0,0,1.1,1.8,1.1,1.8,0Z"/>
    <path class="st0" d="M23.76,51.07c0,1.1,1.8,1.1,1.8,0,0-1.1-1.8-1.1-1.8,0Z"/>
    <path class="st0" d="M18.26,54.77c0,1.1,1.8,1.1,1.8,0,0-1-1.8-1-1.8,0Z"/>
    <path class="st0" d="M23.16,57.77c0-1.1-1.8-1.1-1.8,0s1.8,1.1,1.8,0Z"/>
    <path class="st0" d="M25.86,57.47c0-1.1-1.8-1.1-1.8,0s1.8,1.1,1.8,0Z"/>
    <path class="st0" d="M22.86,50.77c0-1.1-1.8-1.1-1.8,0s1.8,1.1,1.8,0Z"/>
    <path class="st0" d="M27.46,53.07c0-1.1-1.8-1.1-1.8,0,0,1.1,1.8,1.1,1.8,0Z"/>
    <path class="st0" d="M27.46,55.87c0-1.1-1.8-1.1-1.8,0,0,1.1,1.8,1.1,1.8,0Z"/>
    <path class="st0" d="M45.46,24.47c.1-.3.1-.7,0-1-.2.1-.4.2-.7.3.2.3.3.6.7.7Z"/>
    <path class="st0" d="M51.96,19.97c.1,0,.3-.1.6-.2-.5-.5-.9-.8-1.4-1.1-1.6-.9-3.3-1.6-4.9-2.4-.2-.1-.4-.1-.6-.1-.4,0-.9.1-1.3.2-.5.1-.9.2-1.4.3-1,.1-1.8.5-2.2,1.5v.2c.1.1.2.2.3.3h2.7c1,0,2.1.1,3.1.2.9.1,1.8.4,2.7.7.8.4,1.6.5,2.4.4Z"/>
    <path class="st0" d="M70.46,18.67c-.3.1-.7.3-1,.4s-.7.2-1.2.3c.6.2,1,.2,1.4.1.6-.1,1.1-.3,1.7-.5.6-.3,1.1-.6,1.6-1l-.4-.8c-.6.6-1.2,1.1-2.1,1.5Z"/>
    <path class="st0" d="M32.96,63.27c1.1-.5,2.1-1,3.2-1.5l-.8-.6c-.6-.5-1-1.1-1.4-1.6-.5-.6-.9-1.2-1.5-1.6.2.2.4.4.6.6.5.8.7,1.8.4,2.9-.1.5-.3,1.2-.5,1.8Z"/>
    <path class="st0" d="M46.36,22.17c-.3.9-.6,1.7-.4,2.8.8-.3,1.4-.8,2-1.3.3-.3.8-.6.9-1.1-.1-.2-.3-.3-.5-.3-.7-.1-1.4-.4-2-.1Z"/>
    <path class="st0" d="M61.66,26.47c.3.6.5,1.2.8,1.8.1.2.1.4.3.5v-.3c-.5-2-1.3-3.9-2.5-5.7-1.4-2-3.1-3.7-5-5.2-2-1.5-4.2-2.6-6.5-3.5-.5-.2-.9-.4-1.4-.5-1.3-.4-2.4-1.1-3.6-1.8-1.3-.9-2.7-1.8-4.1-2.7-.1-.1-.3-.2-.5-.1.1.2.3.4.4.6.4.5.8.9,1.2,1.4.9,1,1.9,1.9,3.1,2.5,1.1.6,2.2,1.1,3.3,1.5,1.7.6,3.4,1.3,5.1,2.2s3.3,2,4.6,3.3c2.2,1.6,3.7,3.7,4.8,6Z"/>
    <path class="st0" d="M49.86,21.07c.2,0,.4-.2.6-.3-.1-.3-.3-.3-.4-.4-.8-.2-1.7-.4-2.5-.6s-1.6-.3-2.3-.4h-1.7c-.3,0-.6,0-.9.1v.2c.3.4.6.6,1,.7,1.8.4,3.5.7,5.3.7.3.1.6.1.9,0Z"/>
    <path class="st0" d="M82.66,40.47c-.6.3-1.2.6-1.7,1.1-.6.5-.9,1.2-1.2,1.9-1,2.4-2.2,4.7-3.4,7-1,1.9-1.6,3.8-1.9,5.9,0,.1,0,.2.1.3.1,0,.2-.1.2-.1l9.1-16.6c-.4.2-.8.3-1.2.5Z"/>
    <path class="st0" d="M66.66,63.97c-.9.5-2,.9-3.1,1.2-1.3.4-2.6.7-4,.3-.1-.1-.2,0-.3,0,0,.1-.1.2-.1.3.1,1,.1,2,.1,2.8v.5c0,.8,0,1.5-.1,2.3v.1h3.8c.8-1.5,1.7-3,2.5-4.5.2.1.1.2.1.3-.1.9-.2,1.7-.3,2.7,0,.5-.1.9-.1,1.4h1.3v-.2c.1-.9.1-1.9.2-2.7.1-1.5.3-2.9.5-4.5v-.4c-.2.3-.3.4-.5.4ZM63.06,66.77c-.8,1.1-1.4,2.2-2.1,3.3-.1.1-.2.2-.4.5-.1-.5,0-.9,0-1.3v-1c0-.4-.1-.8,0-1.2.9-.1,1.6-.2,2.5-.3q0-.1,0,0Z"/>
    <path class="st0" d="M39.36,8.97s0-.1,0,0h0Z"/>
    <path class="st0" d="M72.76,33.37h0"/>
    <path class="st0" d="M68.56,40.97c.1-.3.2-.5.2-.8.5-2,1.1-3.9,2-5.7.2-.3.3-.7.5-1,.6-1.1,1-2.4,1.3-3.6v-.3c-.1.1-.2.1-.2.2-.3.6-.7,1.2-1,1.9-.3.6-.5,1.2-.8,1.7-.7,1.2-1.2,2.5-1.6,3.8-.3,1-.5,2-.5,3.1,0,.3,0,.5.1.8-.1,0,0-.1,0-.1Z"/>
    <path class="st0" d="M69.76,64.87c.2-1.9.2-3.7.3-5.6.1-1.7.2-3.4.3-5.1.1-1.3.2-2.5.2-3.8.1-1.9.1-3.7.2-5.6v-.4c.2-1.4.4-2.8.6-4.2.4-2,.7-4,1.2-6,.1-.3.1-.6.1-.9q-.1.1-.1.2c-1,2.1-1.8,4.3-2.1,6.6-.2,1.5-.4,2.9-.6,4.4-.2,1.1-.3,2.2-.3,3.4,0,1.9-.1,3.9-.2,5.8-.2,2.2-.3,4.5-.3,6.7,0,1.1,0,2.3-.1,3.4-.1,1.3-.2,2.5-.3,3.8l.9-1.7c.1-.3.1-.6.2-1Z"/>
    <path class="st0" d="M64.66,22.17h0c.1,0,0,0,0,0h0Z"/>
    <path class="st0" d="M70.96,23.27c-.1-.1-.1-.2-.2-.1,0,.1.1.1.2.1.1.3.4.4.6.5,1.2.7,2.3,1.5,3.4,2.3.2.1.4.2.5.3,0-.1-.1-.3-.1-.4-1.1-1.2-2.5-2.2-4.1-2.7-.1,0-.2,0-.3,0Z"/>
    <path class="st0" d="M72.16,55.17c.1-1.6.3-3.1.5-4.7.2-1.9.4-3.9.6-5.8,0-.4.1-.8.2-1.2.2-1.4.4-2.7.7-4.1.4-1.6.6-3.3.7-5v-1.1c0-.4-.1-.9-.1-1.3,0-.1,0-.2-.1-.3l-.1.1v.9c-.1,1.7-.2,3.4-.6,5-.3.9-.6,1.8-.8,2.7-.3,1.2-.6,2.3-.7,3.5-.3,2-.4,4.1-.6,6.1-.1,1.2-.2,2.3-.2,3.5-.1,1.3-.2,2.6-.3,3.8-.1,1.8-.2,3.6-.3,5.4,0,.3,0,.6-.1,1l.9-1.6c.1-1.2.1-2.5.2-3.7-.1-1,0-2.1.1-3.2Z"/>
    <path class="st0" d="M75.46,26.37h0"/>
    <path class="st0" d="M76.96,32.87c-.1-.5-.2-1-.3-1.5-.5-1.8-1.5-3.4-3-4.6-.8-.7-1.7-1.2-2.6-1.7-1.8-.9-3.7-1.8-5.6-2.6-.1-.1-.2-.1-.4-.1-.1-.1-.2-.1-.4-.1.1.1.2.1.3.2.5.5,1.2.9,1.8,1.3,1.3.8,2.7,1.6,4,2.4,1,.6,1.9,1.3,2.7,2.2,1.1,1.3,2.1,2.6,2.8,4.2.2.3.3.6.5,1,.3-.4.2-.6.2-.7Z"/>
    <path class="st0" d="M62.86,28.77h0q0,.1,0,0Z"/>
    <path class="st0" d="M62.86,28.77h0Z"/>
    <path class="st0" d="M62.86,28.77h0Z"/>
    <path class="st0" d="M50.26,50.07c-.4.1-.8.3-1.1.6-.2.4-.1.7.2,1,.7-.2,1.1-.8,1.5-1.3-.3-.3-.4-.3-.6-.3Z"/>
    <path class="st0" d="M51.36,50.07c.1-.2.3-.3.1-.6-.2.1-.4.2-.6.4.1.3.3.3.5.2Z"/>
    <path class="st0" d="M63.26,63.87c.7-.2,1.3-.4,2-.8.4-.2,1-.4,1.3-.8.9-.7,1.3-1.4,1.3-2.5,0-.2.1-.5.1-.8-.1-2.6-.1-5.2-.1-7.8,0-.8-.1-1.5-.2-2.2,0-.3-.1-.5-.1-.8-.3-2.3-.7-4.5-1.5-6.6,0-.1-.1-.3-.2-.5-.1-.5-.3-1.1-.4-1.6-.3-1.3-.4-2.6-.3-3.9v-1.1c0-.4-.2-.8-.5-1.1-.4-.5-1-1.1-1.5-1.6-1.1-1.1-1.9-2.5-2.4-4.1-.1-.7-.3-1.3-.5-2s-.7-1.2-1.1-1.6c-1.6-1.3-3.4-2.5-5-3.7-.8-.1-1.4.3-2.1.4-.3.5-.8.9-1.4.9-.4.1-.5.3-.8.7-.7,1.3-1.7,2.2-2.9,2.8-.3.1-.5.2-.8.4,0,0-.1.1-.2.3h.4c.4-.1.8-.2,1.1-.5.5-.3,1.1-.7,1.6-1.1,0,.1-.1.3-.2.3-.4.5-.9,1-1.4,1.3-.3.2-.7.4-1,1,.1.2.1.5.1.9,0,.3.3.7.2,1q-.1-.1-.2-.1c-.3-.5-.7-1-.7-1.6-.1-.3-.2-.4-.4-.7-.2,0-.4.2-.7,0,0-.4.1-.5.4-.8.1-.1.3-.1.3-.4-.3-.4-.7-.8-.9-1.2-.2-.5-.3-1-.5-1.5-.2-.1-.5,0-.8,0-.3.1-.7.2-1,.2-.7.1-1.2.3-1.9.2-.1,0-.2,0-.2-.1-.2-.2-.4-.4-.8-.7-.2-.2-.5-.3-.9-.4v-.1c-.1-.1-.2-.2,0-.3.1,0,.3,0,.4.1h1.7c.5,0,1-.3,1.2-.8.1-.2.1-.4,0-.7,0-.1-.1-.2-.2-.3-.3,0-.8-.1-1.2.2.2.1.3.2.4.2.1.1.3.2.2.4-.9.4-1.7.4-2.5.1-.1-.1-.2-.2-.4-.2-.7-.2-.9-.5-.9-1.2,0-.4.1-.9.4-1.2s.7-.7,1-1.1c.3-.4.9-.8,1.4-1,.9-.3,1.9-.5,2.8-.7.1,0,.3.1.4-.1-.1-.2-.2-.3-.4-.4-.7-.3-1.3-.8-2.1-1.2-.3-.1-.7-.3-1-.4-.9-.4-1.9-.8-2.6-1.1s-1.3-.3-2-.1c-.2.1-.4.2-.7.3-.5,1-.7,1.4-.4,2.3,0,.2.1.4.1.5.3,1.2.8,2.3,1.3,3.5.5,1.1,1.1,2.2,1.6,3.3.4,1,.8,2.1.7,3.2-.1,1.1-.2,2.1-.4,3.1-.4,1.7-.5,3.4-.9,5.1-.1,1-.2,2-.4,2.8-.1.7-.2,1.3-.5,2-.1.3-.2.8-.2,1.1.2,1.4.8,2.5,2.4,3.2.7.2,1.3.3,2.1.3,1.2,0,2.5,0,3.7.2.8.5,1.1,1.4,1.4,2.2.1.2,0,.3.1.4,0,.8,0,1.4-.2,2.1.1.1.2.1.2.1.7-.2,1.2-.1,1.7.2.4.2,1,.3,1.4.4,1,.2,2,.2,3.1.2h1.5c-.2.8-.4,1.5-.9,2.3-.4.7-1.1,1.2-1.9,1.6.3.3.8.5,1.2.9.4.3,1,.7,1.6.8,1.2.3,2,1.1,2.2,2.4.2.8.3,1.6.4,2.5,0,.3,0,.5.1.9.4,1.3,1.2,2.5,2.2,3.5.4.5,1.1.9,1.9,1,1.4.1,2.6,0,3.8-.3Z"/>
    <path class="st0" d="M27.76,13.47h0"/>
    <path class="st0" d="M30.36,10.97c.4-.6.7-1.2,1-1.7.6-1,1.2-2.1,1.8-3.1h-1.1c-.3.7-.6,1.3-.9,2-.6,1.4-1.4,2.7-2.3,3.9-.4.5-.7,1-1.1,1.4.2-.1.3-.1.4-.2.8-.7,1.6-1.4,2.2-2.3Z"/>
    <path class="st0" d="M26.76,8.87c.7-.9,1.3-1.8,2-2.7h-1.2c-.2.1-.3.2-.4.4-.2.2-.3.4-.5.6l-.1.1-2.2,4c.9-.7,1.7-1.4,2.4-2.4Z"/>
    <path class="st0" d="M23.16,13.77h0"/>
    <path class="st0" d="M37.26,60.57l-.2.9c.5-.2,1.1-.5,1.6-.7l-1.2-.6s-.2.2-.2.4Z"/>
    <path class="st0" d="M26.56,65.47c-.5-.3-.8-.6-1-.9-.2.7-.5,1.5-1.1,2.3l.2.3c.9-.4,1.7-.8,2.6-1.2-.3-.2-.5-.3-.7-.5Z"/>
    <path class="st0" d="M36.16,70.87c-1.4-.6-2.8-1.2-4.2-2.1-.6.4-1.3.7-1.9,1.1,2.1.2,4.1.5,6.1,1Z"/>
    <path class="st0" d="M23.56,13.67c1.3-.5,2.4-1.1,3.5-2,.6-.5,1.2-1.1,1.7-1.8.4-.7.9-1.5,1.3-2.2.3-.5.5-1,.8-1.5h-.8c-.3.4-.5.9-.8,1.3-.8,1.4-1.8,2.6-3,3.7-.8.7-1.5,1.3-2.3,2-.2.2-.5.3-.6.6-.1-.1.1-.1.2-.1Z"/>
    <path class="st0" d="M34.96,8.37c.4-.7.8-1.5,1.1-2.2h-1.1c-.1.2-.2.5-.3.7-.3.6-.6,1.1-1,1.6-.9,1.1-1.7,2.2-2.6,3.2-.1.2-.3.3-.4.5.9-.3,1.6-.9,2.3-1.5.8-.6,1.5-1.4,2-2.3Z"/>
    <path class="st0" d="M53.46,56.97c0,.1-.1.1-.1.2-.1.9-.2,1.8-.3,2.6-.1.5-.1,1-.2,1.5-.2,1.1-.3,2.1-.4,3.3.3-.3.3-.6.4-.9.2-1.4.5-2.8,1-4.1.3-.8.3-1.6,0-2.4-.1,0-.2-.2-.4-.2Z"/>
    <path class="st0" d="M57.06,64.37c0-.2,0-.4-.2-.6-.4-.1-.6.1-.7.4-.1.2-.1.4-.1.6,0,.6,0,1.2-.1,1.8-.1,1.7-.1,3.3-.1,5h.9c0-2.4.2-4.8.3-7.2Z"/>
    <path class="st0" d="M52.86,69.87q-.1.1-.1.2v1.6h.5c-.1-.6-.2-1.2-.4-1.8Z"/>
    <path class="st0" d="M38.56,10.27c.3.2.4.4.7.4q-.2-.4-.7-.4Z"/>
    <path class="st0" d="M54.46,60.87c-.2,1.2-.4,2.3-.6,3.5-.1.3-.1.6-.1.9,0,1.1-.1,2.3.1,3.4,0,.3.1.7.1,1,0,.6.1,1.3.1,1.9h1.1v-4.3c0-1.4.1-2.9.3-4.3.1-.8-.1-1.4-.5-2.1-.3,0-.4-.1-.5,0Z"/>
    <path class="st0" d="M75.16,42.17c-.3,1.6-.5,3.3-.7,4.9-.2,1.1-.4,2.2-.5,3.3,0,.2-.1.4.1.8.1-.4.2-.7.3-.9.8-2.4,1.4-4.9,1.9-7.4.2-1,.3-2.1.4-3.2.1-.8.1-1.6.1-2.5,0-.3.1-.6-.2-1-.1.2-.2.3-.2.3-.5,1.9-.9,3.8-1.2,5.7Z"/>
    <path class="st0" d="M66.56,20.87c.8.2,1.5.5,2.3.6,1.3.3,2.6.6,3.9.8h.5c-.1-.1-.3-.2-.4-.3-1.3-.7-2.8-1.2-4.2-1.6-1.3-.3-2.5-.7-3.8-1.1-2.2-.7-4-2-5.3-3.9-.7-1-1.6-2-2.3-3.1-.6-.9-1.5-1.4-2.4-1.9h-.2c.1.2.2.4.3.5.8,1.1,1.6,2.3,2.4,3.4.7,1,1.5,1.9,2.2,2.8,1.2,1.4,2.6,2.3,4.4,2.8.9.4,1.7.7,2.6,1Z"/>
    <path class="st0" d="M73.26,22.37h0"/>
    <path class="st0" d="M64.46,25.87c.2.5.3.9.5,1.4s.3.9.5,1.4.4,1,.5,1.5.2.9.4,1.6c.2-.4.3-.6.4-.8.3-1,.5-2.1.1-3.1-.3-.7-.6-1.4-1.1-2-.3-.4-.6-.8-.9-1.2-.3-.4-.7-.8-1.1-1.3-.1-.1-.2-.1-.4-.3.1.6.4,1,.6,1.4.1.4.3.9.5,1.4Z"/>
    <path class="st0" d="M66.86,37.67c.1-.2.2-.3.2-.4.2-1.1.7-2.1,1.3-3.1.4-.7.8-1.3,1.1-2,.2-.4.4-.8.5-1.3.1-.2.1-.4.1-.6-.1-.8-.3-1.5-.7-2.2-.3-.4-.6-.8-1-1.2l-.1.1c0,.3.1.7.1,1,.2,1,0,2-.4,3-.3.6-.5,1.3-.8,1.9-.6,1.5-.7,3-.5,4.6.1,0,.1.1.2.2Z"/>
    <path class="st0" d="M34.16,32.97c-.2,1.2-.4,2.4-.8,3.6h-.5c-1.3-.1-2.7-.3-4-.4-1.3-.1-2.6-.3-3.8-.4-.9-.1-1.9-.2-2.7-.3-1.2-.1-2.4-.2-3.7-.4-1.4-.1-2.8-.3-4.1-.4-.9-.1-1.8-.2-2.6-.3l-2.6,4.8.1.1h1c2,.1,3.9.2,5.9.2,2.1.1,4,.2,6.1.3,2.2.1,4.5.2,6.6.2,1.3.1,2.5.2,3.8.2,0,0,.1.1.2.1.2.7.3,1.4.9,2.1.4.5,1.1,1,1.6,1.5-.1.1-.2.1-.3.1-2.2.1-4.5.2-6.6.3h-.3c-1.9,0-3.7.1-5.4.2.4.2,1.1.7,1.6,1.2.1,0,.1-.1.1-.1.3-.3.8-.5,1.2-.5.2,0,.4,0,.7.1.7.2,1.1.7,1.4,1,.2.3.3.3.4.3.1.1.2.1.4.1.7.1,1.4.2,2.1.9l.3.3c3.8-.4,7.6-.9,11.3-1.3h.2c.1.5-.1,1-.1,1.4,0,.5.2,1,.4,1.5-.2,0-.3.1-.5.2-1.6.3-3.3.7-5,1l.3.2-1,.4c.5.5.9,1.4,1.1,2.5,2.3-.7,4.6-1.2,6.8-1.9.8-.2,1.4-.2,2.2,0,.2.7.4,1.3,1,1.9,0,.2-.2.2-.3.3-2.8,1-5.7,2.1-8.5,3.2.1.5.2,1.1.2,1.7l.1,1.6c3.7-1.7,7.5-3.5,11.3-5.2.3,0,.5.2.8.4.1.8,0,1.4,0,2.2-.3.2-.7.3-1,.5l-14.4,8.2c1.1.4,2.1,1,3.2,1.5.2.1.4.2.7.3,3.7-2.4,7.3-4.9,11-7.3-.2,1.5-.4,2.8-.7,4-.1.2-2.7,2.3-6.4,5.2.8.4,1.5.8,2.2,1.2h1.5c.8-.8,1.6-1.5,2.4-2.2v2.2h1.3v-2.5c.1-.7.1-1.4.1-2.1.1-1.2.3-2.4.5-3.7.1-1.3.3-2.7.7-4.1.1-.4.2-.9.2-1.3.1-.7,0-1.2,0-1.9.1-.7-.2-1.1-.7-1.4-.5-.5-1.2-1-2.1-1.2-.7-.1-1.2-.4-1.5-1-.2-.4-.4-.9-.4-1.3,0-.1.1-.3.1-.4s.2-.2.1-.4c-.5.1-1,.1-1.5.1-.7.1-1.2-.2-1.7-.7s-1-1.2-1.2-2c.2-.8.2-1.5.2-2.3-.1-.5-.3-1.1-.8-1.4-.1-.1-.3-.2-.4-.3-.9-.2-1.6-.3-2.5-.3-1,.1-1.9-.1-2.8-.3-.7-.2-1.2-.5-1.7-1-1.2-.9-1.5-2-1.3-3.4,0-.1.1-.2.1-.2.3-1.6.7-3.2.9-4.8.5-2.6,1-5.3,1.3-8.1.2-1.1.1-2.3-.4-3.4-.7-1.2-1.2-2.4-1.9-3.6-.8-1.7-1.6-3.5-1.9-5.4,0-.1-.1-.2-.2-.3-.1.1-.3.2-.4.3-.7.3-1.2.8-1.9,1.2-.3.2-.7.3-1,.4-.5.1-1,.3-1.4.5-.5.2-1.1.5-1.6.8-.7.3-1.3.5-2.1.4-.2,0-.5.1-.9.1-.2.1-.4.1-.8.1h-.8l-1.6,2.9c4.9,1.8,9.7,3.6,14.5,5.4.3.1.7.3,1,.4v.5c-.2,1.1-.2,2.2-.5,3.2-.3.1-.7,0-.9,0-3.3-1-6.4-1.9-9.6-2.7-2.4-.7-4.8-1.3-7.1-2l-2.4,4.4c6.4,1.3,12.8,2.6,19.2,3.9-.1.2-.1.4,0,.4ZM33.76,21.07c-2.5-1.2-5-2.3-7.5-3.5,0-.2.1-.2.2-.3.5-.2,1.1-.5,1.6-.8.3-.2.7-.3,1.1-.4.5-.1,1-.3,1.4-.7.2-.1.4-.2.7-.4.1.1.2.2.2.3.5,1.6,1.2,3.2,2,4.7.2.3.3.7.5,1t-.2.1Z"/>
    <path class="st0" d="M15.96,44.67c-1.2,0-2.3,0-3.5.1l1.4,2.6c.6-.6,1.3-1.4,1.6-1.7l.4-.5.5.1c.4.1.9.2,1.3.3l-.9-1c-.2,0-.5,0-.8.1Z"/>
    <path class="st0" d="M54.56,10.47h0c0-.1,0,0,0,0Z"/>
    <path class="st0" d="M81.96,38.07c.6-.1,1.2-.3,1.8-.6l-.4-.7c-.7.4-1.4.6-2.2.6-.4,0-.8.1-1.3.1v.1c.7.5,1.3.7,2.1.5Z"/>
    <path class="st0" d="M82.26,34.77l-.3-.6c-.7.2-1.4.4-2.2.3h-.1c-.1,0-.2,0-.3.2.5.3,1.1.4,1.8.3.3,0,.7-.1,1.1-.2Z"/>
    <path class="st0" d="M78.16,27.77c.2.7.5,1.3,1,1.8.2.2.3.3.5.5l-1.3-2.3q-.1-.1-.2-.2c.1.1,0,.2,0,.2Z"/>
    <path class="st0" d="M77.96,30.97c.6.8,1.7,1.4,2.9,1.4l-.4-.8c-.3-.1-.6-.1-.8-.2-.7-.3-1.3-.7-1.8-1.3-.2-.3-.4-.5-.6-.8v.4c.1.4.4.8.7,1.3Z"/>
    <path class="st0" d="M77.16,29.17h0"/>
    <path class="st0" d="M60.26,12.17c0,.3,0,.5.1.8.1.4.2.8.3,1.2.2.7.8,1.2,1.4,1.5.1.1.3.1.4-.1-.1-.1-.2-.2-.3-.3-.6-.6-1-1.2-1-2.1,0-.5-.1-.9-.2-1.4-.1-.4-.2-.8-.5-1.1s-.6-.5-1-.6c0,0-.1,0-.1-.1,0,0,0,.1.1.1.1.2.2.4.3.6.3.6.5,1,.5,1.5Z"/>
    <path class="st0" d="M65.36,8.17h0"/>
    <path class="st0" d="M63.06,6.87c.7,0,1.4.2,1.9.8.2.2.3.3.5.5v-.2c-.4-.8-1-1.4-1.9-1.6-.2-.1-.5,0-.8,0-.2.1-.5.2-.7.5.4,0,.7.1,1,0Z"/>
    <path class="st0" d="M53.66,6.37h.2c.2-.1.3-.2.5-.2h-.6s0,.1-.1.2Z"/>
    <path class="st0" d="M65.16,6.47c.1.1.2.3.4.2,0-.2-.1-.4-.1-.6h-.7c.1.2.2.3.4.4Z"/>
    <path class="st0" d="M61.66,6.17h-.9c-.1.3-.2.6-.3.9.2,0,.3-.1.4-.3.3-.2.6-.4.8-.6Z"/>
    <path class="st0" d="M57.16,10.07c.7.4,1.2.9,1.5,1.7.2.5.4.9.7,1.4.1.1.2.2.4.3,0-.1.1-.1.1-.1,0-.3-.1-.5-.1-.8-.2-1.5-1.2-2.3-2.5-2.8h-.3q0,.1.1.1c-.2,0-.1.1.1.2Z"/>
    <path class="st0" d="M65.56,10.37v-.4c-.2-.4-.4-.8-.6-1.1-.4-.7-1-1.1-1.7-1.3-.1,0-.3-.1-.4.1.1.1.2.2.4.3.6.4,1.1.9,1.5,1.5.2.3.3.5.5.8.1,0,.2.1.3.1Z"/>
    <path class="st0" d="M56.26,6.17c-.1.1-.2.1-.3.2-.3.2-.6.4-1,.5-.3.2-.7.3-1.1.5.9.4,2.3-.2,3.4-1.2,0,0-1,0-1,0Z"/>
    <path class="st0" d="M65.66,10.67c.1-.1,0-.2,0-.2v.2Z"/>
    <path class="st0" d="M56.46,8.37c1.1-.5,2-1.3,2.7-2.2h-.8c-.8.9-1.6,1.6-2.6,2.2l-.1.1c.3.1.5,0,.8-.1Z"/>
    <path class="st0" d="M60.46,7.17h0c0-.1,0,0,0,0Z"/>
    <path class="st0" d="M66.06,16.97c.1,0,.3,0,.5-.1.8-.1,1.6-.4,2.3-.8.8-.5,1.5-1.1,2.2-1.8l-.5-.9h0c-.8,1.1-1.8,1.9-2.9,2.6-.4.2-.8.4-1.3.4-.6.1-1.3.2-2,.3.5.3,1.1.4,1.7.3Z"/>
    <path class="st0" d="M67.26,10.97c0-.4.1-.7,0-1,0-.7,0-1.5.1-2.2l-.6-1.2c0,.1-.1.3-.1.4-.2.6-.2,1.3-.1,1.9,0,.8.3,1.5.7,2.1Z"/>
    <path class="st0" d="M65.06,11.57s0-.1,0,0q0-.1,0,0h0Z"/>
    <path class="st0" d="M63.26,14.07h0"/>
    <path class="st0" d="M63.16,14.07c-.1-.6-.1-1.2-.2-1.8-.1-.5-.1-.9-.3-1.3-.2-.3-.4-.6-.7-.8-.4-.3-.6-.3-1.1-.3.2.3.4.5.6.7.5.5.8,1.2.9,1.9,0,.3.1.5.2.8.1.3.2.7.6.8Z"/>
    <path class="st0" d="M64.36,10.67c.2.3.4.5.7.8v-.4c-.2-.6-.5-1.2-.9-1.7-.5-.5-1-1-1.7-1.2-.1,0-.3-.1-.4.1.9.7,1.7,1.5,2.3,2.4Z"/>
    <path class="st0" d="M65.86,15.17s.1,0,.2-.1c-.2-.3-.4-.5-.7-.7-.4-.3-.7-.7-1-1.2-.2-.5-.4-1-.6-1.6-.1.9.2,1.7.5,2.4.4.7.9,1.1,1.6,1.2Z"/>
    <path class="st0" d="M68.56,11.57l.1.1c0-.2,0-.4.1-.6v-.7l-.6-1c0,.7.2,1.4.4,2.2Z"/>
    <path class="st0" d="M47.96,6.77c.2.6,1.6,3,2.3,4,.4.2.9.5,1.6.4-1.1-1.5-2.1-2.7-3.3-3.9-.1-.1-.3-.4-.6-.5Z"/>
    <path class="st0" d="M40.56,6.67c.2-.1.4-.1.5-.2.3-.1.5-.2.8-.3h-.8c-.2.1-.3.2-.5.4v.1Z"/>
    <path class="st0" d="M40.46,8.07c.1.1.2.2.3.2.4.2.8.5,1.3.7.9.4,1.7.8,2.6,1.2,2.7,1.3,5.4,2.5,8,3.8,2,1,3.8,2.2,5.5,3.7,1.1,1,2.1,2,3.2,2.9-.1-.5-.4-.8-.7-1.1-.7-.9-1.4-1.7-2.1-2.5-.1-.1-.2-.3-.4-.4-1.8-1.7-3.8-3-5.9-4.1-1.9-1-3.9-1.8-6-2.6-1.4-.5-2.9-1-4.2-1.7-.4-.2-.8-.3-1.2-.3-.2.1-.3.1-.4.2Z"/>
    <path class="st0" d="M68.96,17.87c.5-.1,1-.3,1.4-.5.6-.4,1.1-.9,1.6-1.4l-.3-.6c-.8.9-1.8,1.6-3.1,1.9-1,.2-2,.4-3.1.4h-1.4c.3.3.6.4,1,.4,1.2.2,2.6.1,3.9-.2Z"/>
    <path class="st0" d="M61.36,20.67h0"/>
    <path class="st0" d="M53.66,6.37h0Z"/>
  </g>
</svg>