<?xml version="1.0" encoding="UTF-8"?>
<svg id="Ebene_1" xmlns="http://www.w3.org/2000/svg" version="1.1" viewBox="0 0 2000 2000">
  <!-- Generator: Adobe Illustrator 29.8.4, SVG Export Plug-In . SVG Version: 2.1.1 Build 6)  -->
  <defs>
    <style>
      .st0 {
        fill: #fff;
      }
    </style>
  </defs>
  <path class="st0" d="M819.41,777.32c-4.48,3.3-7.76,12.71-9.66,17.95-8.91,24.57-14.22,54.4-4.99,79.53,1.22,3.31-.86,4.1,5.02,3.35,2.92-29.39,18.77-57.38,35.03-81.42,20.35-30.07,57-76.91,89.03-93.41,12.2-6.28,27.6-12.31,41.58-11.23-9.26,7.5-19.9,13.53-27.61,22.8-1.58,1.9-6.31,4.79-2.4,7.21,22.27-16.64,48.39-26.26,75.61-31.19-16.74,43.94-24.44,82.89-7.24,128.47,19.26,51.02,66.11,57.78,86.04,96.4,1.6,3.11,9.12,19.42.48,16.4l-73.27-49.23c-1.78-.38-1.64,2.51-1.17,3.56,1.63,3.64,50.72,52.24,56.4,56.44,31.78,23.52,145.16,36,191.36,48.7,36,9.9,85.11,25.79,117.97,42.87,10.36,5.38,21.63,10.89,27.95,21.24-17.28-3.89-34.61-9.31-52.31-11.3-2.63-.3-8.2-2.77-7.68,1.69,61.4,24.14,142.75,53.21,168,120.06l-78.01-55.2-1.17,3.56c67.9,65.66,133.63,140.66,141.58,240.12,1.75,21.96,4.22,45.48-25.36,34.84,4.41-26.94-1.68-54.28-11.9-79.21-2.45-5.98-5.53-15.46-10.7-19.29,1.94,12.14,6.89,23.26,8.92,35.47,2.75,16.54,3.44,32.32-.46,48.63-5.94,24.78-11.59,28.92-37.27,31.12,7.6-17.79,10.38-32.16,9.58-51.63-.12-2.91,1.82-8.92-2.37-8.35-16.49,78.32-124.4,83.53-136.89,163.21-5.49-2.11-6.6-10.42-7.17-15.6-2.68-24.18,4.81-48.43,18.21-68.21l22.57-29.01c-40.23,22.47-68.48,59.72-61.18,108.01-37.42-35.25-15.43-98.11,25.18-121.23-4.92-1.81-13.35,3.97-17.52,6.48-43.63,26.28-57.81,67.71-29.11,112.19,3.02,4.68,22.25,21.31,11.63,24.09-60.06-13.84-84.03-69.02-78.5-126.64.25-2.64,2.83-8.17-1.69-7.68-8.3,37.19-18.22,76.48,7.23,109.15,8.34,10.7,36.11,28.63,38.92,35.48,4.23,10.3.19,26.92-6.66,35.31-15.87,19.44-85.57,22.24-109.15,16.87l2.39-9.57c-4.02,3.1-36.66,12.3-32.41,2.4l10.81-14.4c-12.3,7.29-25.76,15.06-40.79,14.38l11.99-19.17c-7.35-.66-14.39,2.88-21.38,3.82-3.45.47-5.78,3.17-4.99-2.61,13.93-6.7,29.31-23.43,44.62-25.19,28.75-3.31,71.24,27.47,97.4,18.36,7.65-2.66,12.21-4.56,6.91-12.53-9.58-14.41-30.89-28.28-42.87-45.94-84.43-124.46,41-242.59,168.49-236.28l18.28-4.49c-33.27-1.92-68.74-7.36-100.79,4.78-1.71-5.62,1.71-4.16,3.05-5.49,5.36-5.31,14.81-12.96,21.14-17.11,9.72-6.36,22.66-9.85,31-18.19l-47.79,9.35c-8.16-37.9-31.27-71.07-72.23-73.01,14.26,10.49,29.23,17.36,38.01,34,5.77,10.93,14.37,39.49-1.99,44.02-1.29-7.59-5.88-13.8-10.08-19.95-1.91-2.81-15.62-24-18.76-20.82,6.85,17.81,21.32,44.97,3.59,59.98-5.61-57.86-52.4-84.78-105.66-91.16l-1.15,4.73c42.92,8.64,88.44,41.85,91.2,88.84-7.65-8.68-9.73-19.73-17.93-28.86-6.29-7-16.58-13.2-24.1-19.12-7.32-.36-1.68,2.57.45,4.36,10.02,8.42,16.43,15.72,23.4,27.01,2.02,3.28,7.69,10.4,5.01,14.19-37.39-53.94-130.84-32.83-140.42-108.01,15.12,6.53,30.7,18.73,47.98,18.01-25.67-17.82-47.06-42.15-59.98-70.83,7.12,5.59,10.51,10.07,19.8,12.59,3.29.89,4.63,4.4,4.16-1.75-20.96-18.41-34.1-43.11-49.26-66.07-1.84-2.78.61-6.22-5.94-4.76,18.09,44.95,34.27,103.05,7.17,147.58l-35.95,56.44c8.09-34.51,19.22-68.03,5.39-102.75-1.46-3.65,1.39-6.49-5.4-5.26,4.48,18.89,2.47,36.95-.72,55.69-5.79,34-19.18,81.17-29.3,114.73-15.1,50.06-39.52,94.48-61.24,141.62-7.16-4.3,3.21-15.78,2.41-21.59-8.46,7.76-19.62,25.85-32.36,26.6-14.3.85-25.58-11.33-39.63-9.82l14.4-16.76c-14.94,3.86-26.81,17.04-43.2,9.55l9.6-11.95-27.52,4.76-2.64-4.87c13.68-25.17,57.7-14.72,74.65-31.04,22.7-21.86,41.54-115.91,42.07-147.63,1.12-66.41-62.46-94.87-57.72-153.68,2.23-27.67,23.41-51.39,21.56-76.81-3.51-48.27-60.88-89.27-43.23-140.47-15.06,10.49-15.75,36.87-14.09,53.72,3.54,35.8,34.6,59.94,33.44,98.79-.77,26.04-18.12,45.77-21.77,70.72l-12.4-22.35c-9.16-24.98-16.81-51.62-16.4-78.44-3.48-.63-3.09,4.53-3.62,7.12-6.91,33.93-4.92,64.93,10.85,96.07-3.86,3.76-19.35-20.12-21.12-23.26-36.79-65.2,1.77-88.26-.4-143.42-1.01-25.65-30.94-47.5-28.92-75.73-4.39.69-2.6,12.37-2.34,15.56,1.91,22.97,9.25,42.79,7.13,67.21-2.44,28.04-21.71,55.61-21.76,81.66,0,4.02,7.6,50.68,12.17,44.4.21-5.98-.21-12.03.02-18.03.11-2.91-1.81-8.93,2.37-8.36l14.9,39.12,49.92,71.29c-57.66-29.21-110.54-80.09-105.56-150,1.98-27.78,15.35-58.46,16.85-86.36,1.07-19.72-4.08-38.55-4.99-57.61-2.08-43.81,2.9-84.26,27.72-121.32,4.85,16.72-1.75,33.27-3.31,49.52-.26,2.67-2.22,8.62,2.07,8.06,13.68-30.66,9.53-61.01,12.07-92.37,1.25-15.44,8.24-31.28,9.55-45.71.98-10.75-6.85,7.64-7.61,9.25l-37.97,88.03c-9.98-87.09,35.15-171.65,78.96-243.8,1.29-2.12-1.25-4.77,5.01-3.46,9.75,26.32-.04,43.17-9.58,67.19l21.57-19.18c5.97,4.71-6.07,38.67-6.91,47.05-5.04,49.9,34.01,68.51,37.84,110.47,2.25,24.63-6.56,45.75-20.11,65.72l3.57-34.84-4.73-1.16c-7.33,25.34-12.64,56.04-28.83,76.82v-33.61ZM1016.23,899.75l-17.2-29.58-16.36-40.02c-7.53,28.06,12.63,53.21,33.56,69.6ZM905.82,1043.81c-7.02-6.78-19.06,28.44-18.95,34.53.41,23.79,22.27,47.44,42.95,56.66,1.66-1.61-14.09-19.66-16.32-23.27-12.48-20.23-18.48-45.75-7.68-67.92ZM1239.48,1435.06c-2.04-34.12,10.12-66.92,21.61-98.41-20.12,20.39-25.8,50.37-26.48,78.11l4.87,20.29Z"/>
  <path class="st0" d="M1640.4,1389.44l45.15-61.65c113.12-173.35,84.52-436.24,8.1-619.33C1465.92,162.92,708.73,96.61,376.19,582.56c-134.29,196.25-189.6,545.37-56.17,752.95,9.16,14.25,30.31,36.49,35.83,50.63,1.49,3.81-.43,2.98-2.7,3.9-3.25,1.33-23.42,4.04-25.79,3.08-35.71-42.44-61.14-95.26-77.52-148.26-66.48-215.01-13.08-504.79,108.61-692.05,303.39-466.83,1052.34-440.64,1316.8,51.61,104.27,194.09,147.76,477.08,59.88,684.13-6.33,14.91-52.03,102.88-62.81,105.32l-31.92-4.44Z"/>
  <path class="st0" d="M1383.51,1550.3c2.16,27.36-14.52,47.31-38.37,57.64-.66,4.09,5.76,2.58,8.16,2.17,11.21-1.93,18-9.46,27.8-14.2,1.61,38.82-43.05,23.3-66.02,21.63-20.36-1.48-44.82-3.87-64.88-2.52-50.21,3.38-101.54,24.06-152.34,4.92,8.18,13.73,29.13,12.04,38.4,23.96-9.88,0-17.61,7.87-26.47,10.76-23.88,7.8-46.97,3.53-69.55-5.91,11.01,11.22,23.9,22.34,40.8,21.61-1.1,4.2-12.14,4.82-15.51,4.89-39.64.82-68.52-44.25-94.86-68.56-8.65-7.98-22.02-19.16-31.43-26.18-5.3-3.95-12.57-9.46-19.01-10.97l112.81,121.22c-1.67,3.32-6.46-.05-8.83-.77-39.12-11.76-65.7-42.68-88.39-74.85-3.14,1.53-.2,6.56.72,8.88,19.22,48.62,58.7,91.9,115.7,84.75l-20.28,4.87c-85.22,2.32-102.74-86.4-153.81-129.65-45.03-38.13-121.64-59.8-179.26-44.98-59.1,15.21-101.18,67.44-92.92,129.92,1.35,10.22,8.42,20.67,9.41,31.42.3,3.25,1.29,7.38-3.57,5.96-5.61-1.64-18.65-13.09-22.79-18.03-18.29-21.9-23.33-55.37-15.19-82.28,2.55-8.41,9.72-15.93,9.14-24.47-12.67,13-23.14,34.6-27.01,52.21-14.46,65.9,56.46,153.22,115.76,175.89,35.36,13.51,90.02,15.94,121.07-8.67,27.02-21.41,30.23-68.47-9.39-75.38,18.56,42.29-44.71,42.01-38.28,1.33,1.94-12.31,18.11-23.56,30.08-25.13,41.51-5.44,68.29,32.15,65.89,70.69-4.79,76.85-110.68,106.64-172.92,80.3-.07-4.08-1.35-5.2,3.39-4.61,17.84,2.23,30.22,3.29,48.2-.19,3.49-.68,7.44.03,8.43-4.75-68.68,13.31-127.9-41.94-164.45-93.63-3.57,1.87.54,5.78,1.71,7.89,11.05,19.84,23.25,39.02,35.49,58.13-1.72,3.45-5.86-.49-8.03-1.58-54.65-27.42-86.98-125.36-80.52-183.03,7.91-70.7,81.03-131.85,148.57-143.11l-20.37-2.36c-31.79,3.62-52.8,18.66-78.82,34-4.64,2.74-13.16,8.64-18.41,8,10.29-9.83,18.03-21.79,28.77-31.25,99.73-87.9,273.46-51.55,381.77,2.38,82.95,41.3,142.01,104.26,241.1,109.38,63.69,3.29,141.16-13.08,188.52-57.71ZM744.99,1473.48h-37.21c-.82,0-17.03,3.53-14.38,7.23l51.59-7.23Z"/>
  <path class="st0" d="M1716.36,1671.88c-44.28,41.58-110.78,60.6-170.51,53.38-37.85-4.58-84.13-9.27-120.61-18.62-66.13-16.94-106.67-58.45-181.47-50.05-85.98,9.66-211.28,100.43-198.51,197.18,4.92,37.28,34.66,43.37,61.45,58.58,72.96,41.41-44.81,69.93-77.3,72.42-34.81,2.66-117.3-2.68-144.06-26.3-38.17-33.71,23.78-49.04,45.25-62.9,61.72-39.85,11.2-131.06-29.55-168.85-70.08-64.98-177-97.41-262.79-41.9-14.51-21.8,12.14-35.52,28.99-42.99,125.85-55.81,311.46,65.31,320.26,200.06,4,61.29-25.01,69.32-69.76,93.76-1.79.98-6.78.69-4.72,4.72,2.11,4.12,25.41,10.9,31.1,12.12,45.83,9.8,102.45,4.77,146.51-10.91-37.04-25.62-72.85-32.02-76.89-85.1-8.07-105.85,116.36-209.99,213.13-226.34,95.64-16.16,135.39,33.22,216.15,53.91,41.71,10.68,135.88,14.34,178.27,6.84,34.85-6.17,75.12-23.35,94.96-53.87,1.33-2.05,5.91-5.33,2.14-7.46-13.45,14.13-30.6,27.81-50.39,31.23-2.12,0-1.61-4.95-1.17-5.97.71-1.67,24.97-16.36,29.88-20.54,36.52-31.13,54.5-80.4,32.18-125.66-60.03-121.74-306.84-57.16-292.56,66.92,1.69,14.7,17.5,32.28,32.01,23,3.95-2.53,2.41-12.12,7.56-9.78,20.8,31.79-27.04,51.49-50.42,26.43-24.62-26.37-21.17-65.98-8.02-96.92,43.08-101.37,207.94-138.22,297.11-79.34,85.4,56.39,69.7,169.2,1.77,232.99Z"/>
  <path class="st0" d="M1604.38,299.64c31.11,1.23,41.73,35.57,31.74,61.72-1.6,4.18-12.2,17.28-10.11,19.87,22.65-3.09,41.85-7.68,45.62-33.6,13.79-.85,15.55,18.85,14.15,29.79-5.05,39.56-70.04,40.36-97.03,23.03l-1.16,4.73,110.39,87.7c.8,5.99-1.67,2.85-4.92,2.53-6.65-.65-14.8-3.51-21.45-.18,42.18,50.18,73.54,108.43,101.23,167.63,7.55,16.14,19.21,52.06,27.17,64.05.65.98,3,3.19,3.59,2.39l.05-19.2c2.27-.09,3.3,2.31,4.43,3.94,7.03,10.13,21.66,43.87,27.17,56.85,22.31,52.66,45.79,139.72,22.94,194.21-3.64,8.67-17.2,25.25-18.44,31.97-5.63,30.3,1.65,87.86-.01,122.42-.99,20.54-4.53,43.03-7.29,63.5l6.21-4.5,12.96-21.88,26.46,120.01c11.17-8.74,17.37-29.61,20.39-43.2,9.01-40.64,1.95-78.84-28.76-108.08-12-11.42-21.98-7.27-17.38-29.42,2.69-12.93,14.55-3.86,22.03.75,59.06,36.36,64.73,133.28,29.71,187.96-3.54,5.52-17.08,18.3-18.33,22.48-3.47,11.53-.66,45.34-3.17,61.65-5.36,34.84-22.69,69.23-50.1,91.53-20.2,16.44-58.81,35.78-67.23-1.22,55.31-3.92,88.39-58.67,88.78-110.44-19.73,17.72-44.12,22.63-66.45,33.14-23.12,10.88-28.61,31.43-42.75,50.83-5.76-6.11-11.18-12.36-20.41-11.98-2.17-2.47,25.67-50.58,29.23-58.37,82.44-180.83,74.32-403.43,24.81-592.17-67.53-257.42-270.87-467.73-526.94-541.3-62.06-17.83-124.32-23.18-187.86-32.99-18.29-9.65-10.43-32.05,3-42.64,1.82,29.06,43.15,43.83,68.47,43.38,24.64-.43,31.13-4.58,59.33.48,96.03,17.23,190.33,57.89,272.91,108.78,22.4,13.8,67.94,51.72,90.79,55.63,41.12,7.03,65.15-24.86,46.25-61.81ZM1837.26,964.56c13.7-14.92,18.59-46.12,19.16-66.04,1.22-43.19-26.01-102.15-52.76-135.61,18.55,65.56,31.22,133.45,33.61,201.64ZM1784.44,1358.24c25.85-7.61,57.25-23.37,65.56-50.84,5.59-18.48,1.88-50.77-4.42-69.11-1.32-3.83-12.54-26.39-14.34-26.42-3.52,2.09-2.9,5.09-3.77,8.19-5.45,19.31-7.85,40.73-13.6,60.82-7.62,26.62-18.41,52.09-29.43,77.37Z"/>
  <path class="st0" d="M149.68,1348.65c-.27,56.62,33.07,101.21,88.78,114.01-12.53,14.55-8.82,21.96-30.76,16.38-53.99-13.72-84.78-75.12-89.22-126.82-.99-11.58,2.27-30.45-.54-40.26-1.14-3.98-15.94-21.05-19.93-28.08-29.23-51.43-29.35-119.62,8.5-166.83,6.02-7.51,32.14-35.99,42-22.9,1.68,2.23,4.07,13.81,2.5,16.81-2.02,3.85-13.65,8.97-18.12,13.26-43.01,41.31-35.12,109.56-8.42,157.24l27.64-120.04c5.59-1.21,3.84.73,5.35,3.08,1.06,1.65,9.81,23.47,13.81,18.5-1.93-23.01-6.29-47.8-7.29-70.7-1.44-33.12,5.6-88.56.04-117.67-.9-4.73-14.79-18.52-18.62-29.39-28.79-81.84,17.28-187.53,54.71-259.91l4.74,23.97c32.46-82.8,69.5-165.55,127.24-234.07.9-5.48-1.84-3.37-5.4-3.02-6.46.64-14.54,5.47-20.97,3.06l108-93.65c-6.89-2.72-13.34,4.02-20.65,5.75-25.8,6.1-72.62,8.66-77.65-27.54-1.29-9.31,4.1-27.88,14.26-29.8,4.68,22.58,26.65,32.29,48.04,31.18-2.26-7.81-10.36-11.83-13.25-19.13-9.77-24.68,6.67-60.78,34.84-62.45-18.41,65.9,24.32,78.96,75.21,47.58,87.09-53.7,149.27-100.53,251.28-130.4,58.99-17.28,92.32-19.73,152.4-20.22,26.21-.21,59.04-15.6,57.62-45.79,13.47,11.32,20.89,33.61,5.45,46.24-76.05,9.02-151.63,17.48-224.58,41.88-376.27,125.86-557.45,507.2-526.21,887.66,8.21,99.93,34.8,205.19,88.49,290.17l-17.7,15.88c-15.22-15.77-20.73-39.58-41.45-49.73-6.5-3.18-14.6-4.2-21.39-7.41-16.83-7.96-33.38-16.4-48.75-26.84ZM166.43,959.76c2.4-65.91,18.1-130.21,31.21-194.44-33.09,45.33-54.58,101.86-47.37,159.02,1.47,11.66,6.4,28.08,16.17,35.42ZM219.27,1358.23c-21.79-42.21-31.62-88.12-42.44-133.97-.91-3.85-1.71-13.54-5.54-14.82-19.42,39.39-37.91,93.06,2.58,125.8,5.06,4.09,43.02,24.94,45.4,22.99Z"/>
  <path class="st0" d="M1121.87,621.29c14.76,14.74,44.48,12.54,62.39,4.8,4.22,4.11-21.94,23.57-26.37,25.22-18.16,6.77-27.77-.07-44.46-1.17-35.32-2.32-65.91,17.15-99.47,22.88-3.82.65-16.18,3.77-16.91-1.29l23.97-14.41-47.99,11.95,11.37-12.04,15-7.19-1.21-4.79c-38.36,3.78-75.99,12.88-99.57,45.64-1.38-14.96,4.09-32.25,10.82-45.57,5.33-10.53,13.65-16.25,17.94-26.45-19.63,6.88-35.12,23.69-41.99,43.23-10.45-33.45,2.58-62.13,25.21-86.42-24.38,5.35-46.44,25.02-50.44,50.38-23.74-22.96-10.19-68.48,6.82-92.44-63.02-48.86,9.86-138.96,72.28-95.85,12.42,8.58,15.68,21.98,36.16,13.02,1.69-2.27-17.99-9.95-10.78-16.79,41.82,5.79,111.03,6.46,145.01,32.63,9.03,6.95,13.2,15.86,20.51,22.7,24.8,23.25,63.25,22.7,92.48,37.15,10.56,7.93,12.64,29.4,3.55,39.53l-20.29-9.56c-.22,6.36,6.34,8.32,9.03,13.74,8.81,17.76-8.01,37.69-23.68,44.83-2.17.99-19.11,6.24-20.17,6.24h-49.21ZM915.44,530.05c4.09-10.87,14.42-16.42,18.68-28.1,17.79-48.76-43.36-66.68-61.64-28.04-7.74,16.36-3.68,47.17,18.95,44.16l-16.81,43.18c19.68-8.97,35.43-25.33,57.59-28.81l-16.77-2.38ZM1100.24,489.26c-1.76-23.17-27.02-26.05-45.57-26.38l30.49,13.88,15.08,12.5ZM1089.93,504.41c-14.25-12.98-37.62-.32-50.57,9.18-9,6.6,10.5,22.45,16.8,25.77,15.45,8.13,31.94-10.35,48.91-9.31-6.06-6.22-9.45-20.45-15.14-25.63Z"/>
  <path class="st0" d="M550.55,1471.04l-22.81,16.77c-58.22-53.25-167.73-63.62-229.28-10.75-61.29,52.64-34.72,146.48,35.97,174.17.83,12.63-5.51,8.67-13.58,5.15-14.33-6.24-25.34-16.61-36.73-26.85,1.5,5.84,8.05,13.38,12.04,17.94,33.85,38.61,93,50.18,142.75,46.85,18.45-1.24,36.36-8.68,54.92-6.84,4.59,4.73,11.63,18.84,4.88,23.41-9.25,6.25-63.86,16.78-76.48,17.16-54.09,1.65-118.94-31.89-152.46-73.39-79.62-98.55-31.35-230.96,97.44-243.29,60.97-5.84,141.54,12.91,183.35,59.68Z"/>
  <path class="st0" d="M144.83,1065.39c-62.69-12.2-57.73-100.79-52.48-149.73,17.01-158.62,106.72-361.67,213.41-480.35,11.76-13.08,18.71-24.43,35.86-9.69-106.68,119.45-185.09,269.62-215.21,428.08-10.37,54.56-22.86,119.7,2.33,171.4,6.58,13.5,21.97,24.08,16.1,40.29Z"/>
  <path class="st0" d="M1541.96,318.81c-6.68,6.95-27.31-30.04-31.25-34.75-14.88-17.75-40.19-35.92-60.15-47.88-10.02-6-52.65-31.19-61.93-20.31-4.14,15.07,6.15,21.49,14.1,32.14.37,1.81-2.31,1.54-3.54,1.15-11.11-3.48-29.02-15.81-41.2-21.23-50.52-22.48-103.96-41.24-157.99-53.26-2.75-.61-4.39-.86-6.05-3.48,15.54-17.96,13.76-44.02,41.93-46.82,26.43-2.63,87.16,24.11,113.26,35.59,42.21,18.57,93.41,44.39,131.17,70.48,29.89,20.65,68.01,46.76,61.65,88.36Z"/>
  <path class="st0" d="M812.2,172.36c-54.87,10.45-108.99,30.08-160.06,52.41-14.02,6.13-29.65,16.64-43.3,21.55-1.83.66-8.18,1.37-4.22-1.88,6.91-4.42,13.36-14.03,14.45-21.86-5.01-23.21-50.13,4.68-61.14,11.21-22.19,13.16-51.25,35.04-67.36,55.07-3.24,4.02-21.57,36.57-24.03,34.75-7.9-16.33-5.71-26.67,2.31-42.06,25.48-48.87,176.23-119.95,229.92-139.77,19.41-7.16,48.93-19.47,69.17-17.55,26.4,2.5,24.53,34.99,44.24,48.13Z"/>
  <path class="st0" d="M1662.01,424.49l15.11-7c13.77,3.52,84.76,106.49,96.3,124.79,33.47,53.08,62.64,110.9,84.82,169.64,28.13,74.48,85.35,259.17,38.61,327.88-6.88,10.12-28.6,32.5-40.42,21.95,25.08-39.77,36.18-74.72,33.59-122.35-10.31-190.1-105.53-353.96-218.37-499.4-2.02-2.61-11.18-13.37-9.65-15.5Z"/>
  <path class="st0" d="M1215.48,1725.55c-32.9,8.27-32.43,44.9-14.38,68.39,26.65,34.69,98.7,27.73,135.66,15.65,41.75-13.64,72.17-44.3,93.99-81.42l26.77,4.96c5.82,8.98-.62,16.22-4.85,24.32-14.03,26.85-36.16,52.36-63.14,66.49-1.62.51-1.75-2.3-1.17-3.55,1.59-3.44,12.32-16.25,15.56-20.46,1.46-1.9,6.46-4.62,2.43-7.17-33.69,36.31-85.12,61.05-135.64,50.42.84,4.58,5,3.98,8.28,4.89,12.07,3.36,27.14,4.67,39.73,4.71-11.13,11.7-40.62,11.16-56.39,9.55-55.06-5.6-117.31-57.6-98.98-118.13,12.78-42.19,84.97-63.1,92.38-16.89,6.27,39.08-52.75,39.56-40.25-1.77Z"/>
  <path class="st0" d="M1598.02,680.46c2.29,2.43,6.71,3.57,8.75,6.85-4.64,1.49-10.66-4.38-17.31-6.7-5.2-1.81-13.28-4.25-18.58-5.44-2.45-.55-7.82-3.21-7.29,1.3,14.64,6.9,31.38,10.41,45.69,17.94,5.07,2.67,36.59,26.95,38.31,25.28-10.35-14.88-18.46-27.03-10.81-45.57,30.27,28.09,43.86,71.66,55.22,110.42,7.93,27.08,16.75,61.12,21.69,88.73,2.66,14.88,5.79,32.89,3.78,47.06l-14.64,5.84c-4.12-13.39-4.39-27.81-7.94-41.3-13.03-49.52-52.12-85.88-93.56-112.89-7.78-5.07-19.71-13.98-28.14-12.67,9.84,8.66,22.89,16.24,26.38,30.01-33.45,3.22-67.55-25.1-76.51-55.92,19.66-22.56,53.75-5.04,72.87,10.38,8.5,6.86,15.62,16.92,24.13,23.88,20.91,17.11,44.54,30.43,61.12,52.88-8.01-36.27-19.41-72.25-50.59-94.61-35.11-25.18-87.36-16.98-108.91-63.93-6.84-14.9,19.74-15.54,30.54-13.72,21.65,3.66,32.41,17.94,45.81,32.18Z"/>
  <path class="st0" d="M322.52,820.53c6.91-7.1,13.1-14.79,20.32-21.67,20.62-19.67,63.84-62.23,89.59-68.84,32.5-8.34,54.41-.91,29.3,31.7-15.56,20.21-39.03,32.26-64.81,29.98l31.19-34.8c-12.5.39-26.37,12.53-37.1,20.52-21.95,16.34-46.6,38.15-60.84,61.59-16.7,27.49-21.63,55.84-26.91,87.14-28.42-3-12.07-54.19-8.43-74.46,11.79-65.59,31.55-142.27,80.45-189.59,3.59,22.63-5.83,39.24-19.17,56.42-.38,1.78,2.52,1.64,3.56,1.17,6.32-2.89,18.39-15.42,27.6-20.43,14.79-8.04,32.65-13.16,48.03-20.39.57-4.33-5.21-2.17-7.77-1.77-9.62,1.53-19.14,5.65-28.2,9-2.51-2.97,20.88-24.56,24.6-26.92,6.44-4.1,17.26-7.89,24.85-8.81,6.45-.79,33.01-3.12,28.63,9.22-1.86,5.24-20.37,28.58-25.45,32.37-17.62,13.15-43.32,14.9-62.81,23.61-44.75,20.01-58.92,59.59-66.64,104.97Z"/>
  <path class="st0" d="M624.91,1250.23c-18.93,13.83-39.64,3.04-61.25,4.72-14.23,1.11-33.08,12.9-32.32-11.9-17.2,1.21-29.5,23.93-45.13,3.61,23.23-40.69,80.32-91.43,127.94-56.44,11.98,8.8,37.69,42.66,39.24,57.04,1.45,13.49-27.35,19.15-28.48,2.97ZM598.55,1207c-11-10.72-33.32-13.7-45.6-3.57,6.85,1.29,13.03-1.57,20.29-1.24,8.38.38,16.82,4.72,25.31,4.8Z"/>
  <path class="st0" d="M363.33,1276.62l12.05-36.49c11.56-8.8,20.11-24.72,23.97-39.07l-23.58,29.24-7.69,22.34c-3.26,3.47-4.4-.17-4.79-3.55-1.66-14.19-3.09-32.31,2.65-45.43,7.79-17.82,32.16-29.8,50.16-32.64,5.07,24.24,7.86,49.49-11.9,68.5-5.9,5.68-23.12,12.57-25.78,16.22-2.13,2.91-8,24.79-8.11,29.3-.86,35.01,31.31,60.22,40.43,86.99,1.66,4.88,5.81,11.15-.52,14.46-2.82-1.6-8.29-.96-10.35-2.38-1.83-1.26-18.45-32.03-23.3-37.92-12.44-15.1-30.19-21.16-43.19-33.63-7.56-7.25-10.22-9.62-8.47-21.51,3.42-.64,5.93.7,8.94,1.84,4.39,1.66,18.22,14.32,19.86,6.49,1.29-6.19-14.69-35.43-17.53-44.82-5.23-17.31-8.55-40.19-6.28-58.14.46-3.65,8.8-30.84,10.03-31.99,1.43-1.32,6.5-1.23,8.96-3.02-4.54,21.16-5.43,39.36-2.09,60.93,3.02,19.53,11.08,35.76,16.55,54.28Z"/>
  <path class="st0" d="M889,1624.71c-23.18-18.76-46.35-36.82-75.57-45.63-3.32,1.49,3.12,4.63,4.21,5.39,21.43,14.92,45.62,27.59,54.57,54.63l-72.79-41.21c-41.61-17.39-85.48-22.94-124.84,3.23-6.57,4.37-23.47,22.15-26.85,23.58-8.01,3.4-.35-15.94.82-18.4,22.59-47.68,94.66-53.68,139.63-41.62l-26.37-10.8-43.22-8.4,20.39-4.97c55.61,7.06,125.14,29.49,150.02,84.21Z"/>
  <path class="st0" d="M857.79,1221.42l-4.75-36.01c24.42,17.53,28.39,54.12,27.59,81.61l-17.99-21.59c10.06,30.32,15.72,67.32,11.71,99.35-2.04,16.26-6.25,24.05-23.75,20.69-2.34-51.6-10.58-103.3-30.03-151.21-5.58-13.75-26.55-47.97-27.62-58.83-.3-3.02-1.05-7.74,3.61-5.99,4.37,1.63,25.85,20.53,30.1,25.12,13.47,14.55,19.34,31.75,31.13,46.87Z"/>
  <path class="st0" d="M986.81,193.36c-1.25,1.35-7.94,4.14-8.96,3.02-6.14-51.76-40.21-94.06-96.61-85.78-46.77,6.86-21.13,60.16,2.89,43.71,5.24-3.59,5.47-18.86,11.13-20.16,25.7,7.88,13.68,36.85-8.48,42-62.78,14.62-86.78-76.07-15.12-89.52,30.16-5.66,66.89,5.68,88.22,28.08,12.27,12.89,41.48,62.92,26.92,78.64Z"/>
  <path class="st0" d="M1096.02,139.33c2.27-2.23,9.44-2.93,12.73-4.8,4.56.63,5.46,16.32,13.16,19.81,25.23,11.44,39.76-33.19,2.49-43.3-50.45-13.69-98.66,36.16-96.17,85.34l-11.55-2.85c-7.38-38.6,22.42-83.43,57.18-99.17,27.29-12.36,76.22-15.02,93.58,14.45,29.42,49.92-35.12,91.21-67.25,57.65-6.22-6.5-11.3-20.12-4.16-27.13Z"/>
  <path class="st0" d="M670.57,1120.6l-4.45-.41c-4.51-9.36-19.06-13.35-19.79-24.78-.65-10.11,10.96-26.09,20.73-30.1,10.8-2.45,30,22.03,29.86,30.16-.16,9.7-22.61,17.3-26.35,25.13,11.32-4.4,23.49-6.16,35.66-4.46,8.22,13.42-2.7,25.6-16.33,27.42-5.69.76-20.87-5.86-21.7,2.21,7.39,10.43,46.74-9.96,48.17,7.27,1.37,16.53-32.27,16.9-43.39,15.59,2.62,6.43,11.98,5.94,9.62,14.39,9.61-4.59,18.08-12.33,28.92-5.83,3.18,17.09-9.09,26.5-25.06,27.27l-6.26-9.44c3.23,19.87,3.16,38.14-2.45,57.6-9.82-6.83-6.93-21.89-10.74-33.64-6.99-21.59-13.1-12.37-24.1-21.51-2.2-1.83-12.47-16.14-12.84-18.6-1.9-12.71,23.19-12.18,30.88-7.87v-9.59c-13.14,5.9-46.85-7.61-34.41-24.19l15.21,2.57c2.62-2.63-12.62-12.97-9.18-24.67,5.64-19.21,24.56,8.49,30.07,10.03,4.94,2.45,7.25-4.29,7.94-4.56Z"/>
  <path class="st0" d="M1025.86,64.37c7.29-.79,11.51-3.23,19.32-1.45,2.94.67,17.76,6.72,14.26,11-27.53,12.49-40.38,41.14-56.39,64.81-8.26-9.74-14.77-22.67-22.86-32.31-4.79-5.71-32.87-31.24-33.45-33.82-1.9-8.44,27.97-11.99,33.49-10.64.47-19.03,9.96-38.68,22.81-52.76,15.42,13.82,21.64,35.17,22.82,55.18Z"/>
  <path class="st0" d="M1150.68,717.33c31.59-2.66,64.81,6.76,96.05,13.15,76.75,15.71,161.83,33.33,237.25,53.22,5.63,1.48,28.58,6.34,26.78,13.99-2.22,9.44-31.25,1.69-38.84.48-51.38-8.13-107.08-22.08-158.02-34.03-44.79-10.51-112.69-22.81-153.67-38.38-3.8-1.44-8.11-4.47-9.54-8.44Z"/>
  <path class="st0" d="M1724.41,1149.4c4.34,36.69-24.84,59.37-52.56,75.88-3.03,11.16,9.05,28.38,9.04,38.16-.01,17.07-21.08,30.06-11.69,49.2-7.94-3.04-39.39,17.35-38.13,3.97,21.45-31.52,38.25-52.26,21.79-92.05-4.43-10.72-17.32-18.11-19.53-26.11-1.49-5.39,8.63-4.31,11.87-5.85-4.88-11.63-6.12-21.81,3.61-31.17,17.81,11.51,10.76,37.67,17.73,56.66,1.21,3.3-.86,4.1,5.01,3.34,4.63-13.78,16.72-26.27,26.43-37.21-11.3-1.34-14.52,16.67-23.97,20.42-5.81-32.34,19.56-55.16,50.39-55.22Z"/>
  <path class="st0" d="M524.06,1312.51l-62.33,2.55.19,5.95-44.76,14.81c-11.07-7.69-3.18-17.21-2.33-25.23.43-4.1-1.64-7.96-.68-12.91,2.85-14.67,24.82-31.01,39.38-32.84,26.99-3.38,66.78,19.62,70.53,47.67Z"/>
  <path class="st0" d="M584.15,1318.65c-2.88,22.81-14.65,52.45-18.51,77.51-2.24,14.53-3.94,28.97-3.12,43.71-9.29-6.25-38.74-26.32-38.63-37.2,9.13-22.94,20.91-44.93,27.33-68.95,3.21-12.02,7.34-51.68,11.13-57.9,2.9-4.76,21.8-9.5,21.8-2.79,0,13.85,1.65,32.6,0,45.61Z"/>
  <path class="st0" d="M1513.15,1062.98c-3.98.9-4.87-1.28-7.15-3.62-8.56-8.8-15.64-25.75-24.09-35.92-16.57-19.94-38.32-32.68-64.75-32.43l26.24,13.33,24.14,23.87c-33.52,5.43-54.24-25.6-79.12-42.19,7.89-19.39,38.86-14.75,55.09-8.2,20.46,8.25,32.59,27.63,48.02,41.98-2.42-21.32-14.4-42.98-16.47-63.93-.46-4.67-2.22-34.61,3.29-34.45,12.34,7.75,6.95,19.03,9.48,31.28,7.46,36.19,27.34,71.97,25.32,110.29Z"/>
  <path class="st0" d="M516.97,1139.79l17.25-36.71c12.05-20.36,23.5-26.35,46.45-30.59,2.63-.49,20.63-3.51,20.23,1.31-15.34,14.88-43.38,16.92-56.2,34.97-4.13,5.82-12.79,26.18-14.67,33.34-4.9,18.64,2.84,45.72-15.48,52.92-1.98-21.04-12.33-40.66-16.12-61.92-4.87-27.3-8.2-99.2,6.46-121.75,2.71-4.17,19.41-20.51,21.09-9.68,1.5,9.66-17.3,55.81-18.76,72.02-2,22.3,4.72,44.67,9.73,66.1Z"/>
  <path class="st0" d="M612.65,948.07c5.66,20.27,18.36,32.48.37,51.33l8.45,5.95.72,5.47-11.6,14.96,9.25,7.43c-5.76,26.79-31.95,28.67-54.91,29.75,7.33-19.59,17.61-31.77,38.43-37.18-51.1,1.23.16-28.86-4.85-54l-10.87,23.96-14.34,14.43c-8.56,1.95-12.08-23.9-9.69-31.33,3.62-11.25,37.55-38.18,49.03-30.76Z"/>
  <path class="st0" d="M1222,681.81c23.38-5.11,91.71-1.15,119.62-.61,5.68.11,10.93,2.46,16.61,2.6,38.22.94,85.36-1.9,122.53,2.3,14.39,1.63,26.82,13.42,9.54,16.74-20.74,3.98-55.09-1.78-76.65-2.43-66.93-2.03-133.87-2.52-200.58-8.26-5.85-3.2,6-9.69,8.95-10.33Z"/>
  <path class="st0" d="M112.05,1064.58c2.74,2.69,7.39,4.8,11.18,5.66v4.71c-19.35,8.35-27.14,29.89-39.59,45.61-8.46-4.74-6.18-20.2-11.42-25.75-5.75-6.09-47.67-14.87-45.17-30.41,16.72-16.27,48.57-16.65,54.21-42.24,8.79.03,22.8,34.59,30.79,42.42Z"/>
  <path class="st0" d="M1249.09,640.48c-.97-5.46.3-3.82,3.07-5.35,8.42-4.65,25.39-7.78,35.31-10.27,67.66-16.95,137.58-26.06,205.56-41.76,25.2.99,23.89,10.95.48,17.35-56.75,15.52-151.45,33.46-209.92,39.73-11.67,1.25-23.03,2.52-34.51.29Z"/>
  <path class="st0" d="M1143.99,767.23c-1.32-2.32-2.39-13.65,3.05-11.48,1.17.47,2.85,3.13,5.53,4.08,65.41,23.12,139.29,49.08,201.38,79.48,6.19,3.03,24.95,9.77,22.36,18.35-3.96,5.55-11.36,4.3-16.82,2.5-63.99-30.25-132.06-52.29-196.02-82.43-3.06-1.44-18.83-9.36-19.48-10.5Z"/>
  <path class="st0" d="M1970.92,1071.9c-8,8.49-30.68,18.3-42.63,18.53-4.51,2.92-.58,27.83-10.61,27.8-1.47,0-13.03-19.84-16.8-24.06-6.87-7.7-14.99-13.74-22.79-20.38,0-1.61,19.4-18.44,22.61-22.96,4.47-6.3,11.23-29.04,16.98-28.59,10.39,25.13,34.29,29.43,55.33,43.09,1.44,1.56-1.01,5.42-2.09,6.57Z"/>
  <path class="st0" d="M744.64,1320.23c11.53,16.21,4.24,19.07.36,35.61,9.79.4,8.35-10.22,11.89-15.69,10.98-16.99,52.17,4.35,19.06,21.46-3.83,1.98-27.06,10.12-28.55,8.65v-7.2c-2.16.24-4.85-.7-6.8.44-5.18,3.02-29.01,50.82-32.8,59.56-3.77-10.25-9.58-5.72-17.42-8.99-8.34-3.48-18.63-16.96-9-24.57,3.57.08,16.56,23.62,20.39,19.15l2.58-24.95c-16.6-2.61-23.57-20.71-10.58-32.4,8.99-2.87,13.37,6.32,15.16,13.21,2.25,8.62-2.96,16.23,3.65,22.5,11.05-9.63,5.06-21.85,5.91-32.23.84-10.29,12.06-43.42,26.15-34.55Z"/>
  <path class="st0" d="M1103.87,1473.48c-.68.09-2.68,3.6-3.58,2.4,7.3-30.19,37.55-33.4,62.91-20.92,24.9,12.25,26.76,18.85,4.07,36.32-21.39,16.47-38.94,15.35-64.6,13.39l-1.23-7.22-38.4,21.58c-5.57-2.76-.7-8.23,2.07-11.09,17.74-18.33,38.77-28.32,63.95-32.05,1.4,6.15-1.69,4.19-4.5,6.2-5.16,3.68-10.68,7.14-17.08,8.23l3.33,4.54,32.67-21.38c-12.47,1.2-27.53-1.65-39.61,0Z"/>
  <path class="st0" d="M411.31,609.26c4.95-12.29,15.04-18.69,23.99-27.59-4.1-2.41-10.86,5-14.13,7.46-7.15,5.38-13.03,11.65-19.44,17.76-4.41-38.78,19.61-73.08,61.32-67.33,6.99.96,10.96,4.29,12.56,11.42,7.63,34.18-31.5,65.99-64.29,58.28Z"/>
  <path class="st0" d="M1606.76,604.48c-10.57-6.56-21.71-23.28-33.57-22.82,2.97,3.24,25.88,23.72,21.58,27.61-36.59,6.16-74.2-26.62-62.59-63.79,37.64-23.69,77.85,20.68,74.58,59Z"/>
  <path class="st0" d="M1486.37,486.5c-56.07,26.26-111.19,56.27-168.44,79.99-7,2.9-44.88,21.04-47.21,10.35-1.35-6.21,37.93-23.83,44.74-27.23,53.25-26.56,108.21-49.9,161.64-76.11,9.64-4.01,11.17,5.59,9.27,13Z"/>
  <path class="st0" d="M722.86,571.37l.52,9.09c-4.3,4.53-86.41-32.87-97.63-37.97-37.42-17.02-74-36.67-110.97-54.66l-4.6-4.91,1.76-6.62,10.72-1.23,200.2,96.3Z"/>
  <path class="st0" d="M384.51,1548.28l2.38,8.73-16.38,14.86,26.38-9.59c9.09,9.48-15.52,38.35-24.68,43.72-15.16,8.88-30.67,9.01-47.46,5.65-17.68-40.2,21.32-69.97,59.76-63.38Z"/>
  <path class="st0" d="M716.17,1670.35l-17.93,12.04c-23.36,16.7-35.37,53.07-14.31,76.61,9.35,10.45,17.24,4.54,27.61,11.32-1.37,41.45-47.3,19.44-58.21-7.12-21.75-52.92,10.21-88.69,62.85-92.85Z"/>
  <path class="st0" d="M1295.28,1789.8l-5.07-20.76c12.69-3.84,20.31-1.18,29.78-12.23,23.38-27.27,4.93-58.58-19.25-76.91-5.44-4.12-12.54-3.77-15.63-9.55,21.88,1.86,51.06,9.28,62.91,29.48,21.62,36.86-3.94,102.07-52.75,89.96Z"/>
  <path class="st0" d="M328.86,979.8c8.11,8.81,13.83,27.99,12.59,39.83l-6.99.16c1.63,3.65,4.58,5.27-1.17,4.83-8.83-.67-14.65-5.74-22.8-7.23l18.08,14.31c7.52,13.57-31.5,3.78-37.3,1.28-10.39-4.48-19.46-17.25-21.34-28.31,1.45-5.89,12.72-10.2,13.63-11.8,2.69-4.7-2.43-13.22,2.96-19.88,9.73-12.02,33.55-2.74,42.33,6.8Z"/>
  <path class="st0" d="M1633.19,1567.08l-14.39-13.19c17.49-13.19,53.11,1.36,61.2,20.42,15.12,35.62-11.9,45.77-41.94,34.74-22.38-8.22-50.58-55.84-4.87-41.97Z"/>
  <path class="st0" d="M925.02,1867.2c-7.29,31.3-52.34,25.01-77.36,20.93-20.46-3.34-39.26-12.21-59.47-16.17-.92-6.14.51-3.74,3.38-5.02,7.97-3.55,27.08-13.39,33.78-14.21,9.34-1.15,96.85,10.3,99.68,14.48Z"/>
  <path class="st0" d="M1210.69,1864.81c1,5.42-.28,3.81-3.05,5.33-7.08,3.87-25.45,9-34.11,11.48-32.04,9.16-76.91,21.89-97.25-13.26,24.81-4.22,83.34-22.65,105.69-16.84,8.77,2.28,18.81,12.06,28.72,13.3Z"/>
  <path class="st0" d="M1679.32,1506.55c1.61,2.28,14.24,3.92,13.9,14.91-11.13-.97-13.5,15.1-23.39,18.67-9.37,3.38-53.61,4.47-53.57-7.81.02-5.54,8.4-7.06,7.31-13.23l-14.37,4.79c.35-31,50.35-58.28,68.23-26.12,1.46,2.63.68,7.07,1.89,8.79Z"/>
  <path class="st0" d="M1640.6,1009.96l-2.63-18.97c-8.8,6.47-.76,22.38-15.43,19.15-7.04-1.55-23.06-21.81-24.77-28.14-7.84-28.95,25.04-45.77,49.78-35.4,19.42,8.14,22.14,65.26-6.95,63.36Z"/>
  <path class="st0" d="M1717.23,998.17c27.64-6,16.84,16.32,2.4,27.63-14.9,11.67-26.96,11.72-45.62,10.77l9.59-16.77-18.9,2.08c-8.1-19.28,9.42-45.34,27.93-51.87,25.06-8.84,29.38,6.33,24.6,28.16Z"/>
  <path class="st0" d="M368.08,990.98l-4.79,21.6c-13.44,1.06-23.07-24.41-23.84-35.17-1.25-17.63,12.93-46.76,30.18-25.02,28.39-23.18,39.91,17.73,29.25,39.36-2.56,5.19-14.47,23.34-20.01,23.35-8.92-2.71-10.27-16.18-10.8-24.12Z"/>
  <path class="st0" d="M1608.86,1051.31c6.35,10-11.09,11.82-14.07,18.86,5.8-2.16,26.71-10.37,26.05.73-.34,5.71-14.48,31.29-18.8,35.88-31.36,33.26-81.76-23.49-32.89-49.02,6.8-3.55,35.56-12.99,39.72-6.44Z"/>
  <path class="st0" d="M1195.43,1246.29c6.46,6.69,11.98,18.53,12.84,27.94-18.29-14.37-38.14-31.62-62.39-33.58l21.59,14.35c-25.08-3.26-70.86,14.09-76.78-21.58,1.12-1.51,28.51,21.52,33.58,7.22-8.52,1.72-25.44-14.8-29.9-21.74-5.71-8.87-9.13-23.05-8.49-33.5,5.84,2.33,7.49,9.41,11.89,13.29,27.47,24.21,71.28,20.28,97.65,47.58Z"/>
  <path class="st0" d="M711.36,630.94l-1.19,4.77c-51.87-4.28-106.35-13.79-157.32-25.13-9.5-2.11-50.25-10.35-55.16-14.46-3.87-3.24-2.18-9.07-2.34-13.25,72.29,12.31,146.63,24.08,216.01,48.06Z"/>
  <path class="st0" d="M1088.3,1466.27c-7.01-13.1-4.43-22-3.11-35.5.26-2.64,2.83-8.18-1.69-7.68-8,25.31-12.12,56.59-24.54,79.96-1.91,3.59-3.85,10.3-9.09,8.83.26-19.21,7.34-37.56,9.55-56.44,2.05-17.58-3.49-41.07,10.94-56.27,4.39-4.63,11.84-4.23,14.35-12.19,37.39,13.94,28.13,57,3.58,79.3Z"/>
  <path class="st0" d="M682.56,736.53c.06,3.24.63,6.61-1.17,9.61-3.21,5.38-51.01,20.09-60.72,23.29-28.29,9.34-93.39,32.25-120.09,33.8-2.64.15-5.11,1.15-7.61-.62-3.2-1.84-7.51-7.98-3.41-11.09s21.66-8.03,27.93-10.03c54.07-17.29,109.67-32.97,165.07-44.96Z"/>
  <path class="st0" d="M394.48,1526.29l-11.97-7.19c-1.16,6.39,3.02,9.4,7.14,13.19l-3.86,3.3c-15.66-2.16-27.56,7.21-43.02,5.21-14.2-1.84-18.17-16.01-29.32-22.8,8.85-32.98,46.23-44.47,71.42-19.28,7.86,7.86,11.53,16.28,9.61,27.58Z"/>
  <path class="st0" d="M440.77,1102.01c-3.24,2.85-3.42,15.42-7.03,16.29-25.16,6.96-46.13-23.09-48.79-44.6-.87-7.07,12.33-2.13,16.76-3.54l-9.34-11.26c-3.95-15.25,24.76-7.05,31.48-4.86,17.04,5.56,30.49,17.18,28.43,36.6-1.29,12.18-7.43,7.78-11.51,11.36Z"/>
  <path class="st0" d="M327.29,1070.17c6.42-.63,7.25-5.91,14.41-2.37-2.78,26.76-25.49,46.64-52.91,39.69-4.97-14.3-4.78-19.65-19.28-26.91-.95-4.55,7.65-21.06,11.14-24.61,15.35-15.59,71.25-15.17,46.63,14.2Z"/>
  <path class="st0" d="M1587.13,1579.7c14.2-.9,21.94,10.85,25.21,23.85,8.4,33.41-24.93,68.18-48.77,34.38-14.2-20.13-2.89-56.56,23.57-58.24Z"/>
  <path class="st0" d="M1717.2,1089.39c4.75,25.26-16.95,26.92-33.65,13.25-5.81-4.75-27.45-34.15-15.3-37.12l12.94,2.24c-6.71-6.35-11.39-8.18-6.64-18.59,14.67-6.76,35.24-2.84,47.52,7.74,13.46,11.59,20.29,35-4.88,32.47Z"/>
  <path class="st0" d="M1640.36,1075l6.04,14.38,1.2-14.38c17.49,1.41,23.29,32.01,21.37,46.6-4.49,34.02-50.99,28.92-54.85,4.87-2.43-15.14,8.7-50.13,26.23-51.47Z"/>
  <path class="st0" d="M399.31,1038.96c-3.59-8.04,22.68-11.29,16.78-16.78l-23.97,4.79c-1.61-27.54,42.51-56.28,61.09-28.68,6.59,9.79,14,26.42,4.9,35.89-18.68,19.42-36.16,10.74-58.79,4.78Z"/>
  <path class="st0" d="M1606.01,1006.13c3.79,4.45,6.05,12.59,5.55,18.44l-26.38-4.78c-1.2,6.34,1.3,4.19,4.79,5.87,5.05,2.43,19.41,4.64,13.34,13.46-2,2.91-35.45,10.07-40.73,9.42-10.95-1.35-22.19-15.77-20.22-26.98.23-1.32,7.8-23.29,8.64-25.16,8.43-18.73,45.27-1.72,55,9.72Z"/>
  <path class="st0" d="M416.12,870.91l7.17-16.77-19.18,11.98c3.5-24.28,2.32-48.81,32.68-52.5,29.25-3.56,38.11,2.03,28.57,30.96-6.88,20.87-27.25,35.15-49.24,26.34Z"/>
  <path class="st0" d="M349.62,1080.55c1.62-1.4,5.82-3.49,7.64-3.17,6.63,1.16-2.68,11.18,4.82,9.59l9.6-11.96c15.36,15.92,25.08,36.07,14.5,57.65-12.86,26.22-58.7,9.14-50.02-26.03,1.18-4.78,10.23-23.27,13.47-26.08Z"/>
  <path class="st0" d="M420.89,1595.91c-3.19-33.64,20.4-5.92,23.48,8.94,10.84,52.35-56.71,58.39-54.11,9.8.47-8.86,10.97-41.4,23.64-32.13,3.38,2.47.82,12.07,7,13.39Z"/>
  <path class="st0" d="M1594.77,861.33l-19.17-9.59,7.17,21.59c-27.49,3.58-42.9-7.32-48.7-34.08-3.74-17.24-2.72-23.77,16.3-25.92,35.05-3.96,45.53,15.56,44.4,47.99Z"/>
  <path class="st0" d="M607.5,410.38c4.48-1.26,5.8.39,9.23,1.88,15.6,6.79,52.22,37.63,67.99,49.64,9.45,7.2,71.17,53.57,69.85,59.73-3.76,5.3-6.35,3.82-11.31,1.76-19.89-8.26-60.85-40.42-79.7-54.74-21.17-16.09-42.16-33.28-61.49-51.41-1.81-2.5,3.73-6.39,5.42-6.86Z"/>
  <path class="st0" d="M667.67,679.61c9.28-.4,20.62-4.08,26.86,5.29-3.85,5.1-9.57,7.29-15.76,8.19-37.98,5.57-90.61,8.68-129.32,9.91-7.22.23-40.37,1.92-42.08-3.79-3.11-10.37,16.24-12.5,22.82-13.07,44.42-3.87,92.62-4.58,137.49-6.53Z"/>
  <path class="st0" d="M1539.05,1622.74c1.89-.15,3.63-.76,5.32.62,10.12,14.64-10.36,32.91-23.99,38.58-27.99,11.65-70.01,6.31-97.31-5.95-8.46-3.8-32.97-16.3-21.54-26.43,31.4,29.25,64.93,28.96,102.12,10.86,11.64-5.67,20.96-16.57,35.39-17.68Z"/>
  <path class="st0" d="M1044.7,1456.32l-11.25,2.44-21.97-23.68,21.58,35.98c-30.82,4.1-47.87-21.85-50.21-49.49-2.13-25.12,34.99-13.02,47.65-4.34,13.69,9.38,15.34,23.27,14.2,39.09Z"/>
  <path class="st0" d="M1553.67,1548.18c3.82,12.36-3.94,11.05-9.3,18.9,5.19,1.1,14.52-8.24,18.08-2.48,9.15,27.07-40.27,57.58-54.59,28.21-16.26-33.34,15.6-53.56,45.81-44.63Z"/>
  <path class="st0" d="M1395.47,410.1c1.65,2.37-.57,8.12-2.22,10.86-4.37,7.26-33.54,29.92-42.19,37.02-11.99,9.83-64.44,51.72-74.94,54.69-4.13,1.17-8.42.61-12.6.58-2.07-1.78,7.57-13.72,9.49-15.69,19.29-19.72,61.94-50.81,85.42-68.22,5.44-4.03,31.76-26.86,37.04-19.24Z"/>
  <path class="st0" d="M1201.11,474.84c-.86-5.85.87-9.45,3.7-14.28,11.83-20.17,62.92-74.51,81.47-93.77,2.86-2.97,9.34-10.57,12.53-11.53,7.9-2.37,14.7.1,11.7,9.27-1.65,5.04-27.9,34.06-33.77,40.74-15.21,17.32-41.53,47.76-58.78,61.24-2.48,1.94-14.94,10.43-16.85,8.33Z"/>
  <path class="st0" d="M450.46,1595.18c-2.24-2.54-10.97-24.08-10.23-26.62,6.24-9.29,14.08.42,21.5.92-7.62-8.2-21.47-21.37-1.32-24.09,32.86-4.43,39.06,23.81,33.77,50.56-11.54,9.05-33.64,10.63-43.71-.77Z"/>
  <path class="st0" d="M1105.05,1346.27c-6.17,3.78-5.92,23.99-13.48,26.25-9.52,2.84-13.27-12.74-12.96-20.14.52-12.4,13.47-34.07,22.75-42.23,17.08-15.03,26.38,20.78,25.4,34.85-.73,10.48-13.96,41.08-26.2,28.67l4.49-27.4Z"/>
  <path class="st0" d="M1598.81,1474.24c8.2,9.83,10.73,29.73,1.9,39.96-3.37,3.9-12.72,6.11-15.21,2.16-1.97-3.12,2.5-11.67-2.68-11.65l-2.44,14.4c-8.52,8.55-49.15-42.99-21.71-51.74,12.3-3.92,31.3-3.74,40.16,6.87Z"/>
  <path class="st0" d="M1270.69,894.94c-4.29,4.57-53.87-26.58-61.25-31.14-17.92-11.08-59-36.31-72-50.42-3.02-3.27-4.41-4.71-3.55-9.63,3.65-3.54,32.2,13.35,37.61,16.38,13.47,7.55,94.27,57.52,97.95,65.29,1.5,3.16,1.55,6.17,1.25,9.53Z"/>
  <path class="st0" d="M626.73,1310.83c16.4-4.32,53.01,11.04,41.17,29.12-12.38,18.92-53.4,18.21-68.25,1.51l-.74-5.45c1.8-7.17,20.94-23.37,27.82-25.18Z"/>
  <path class="st0" d="M698.66,355.08c5.67-1.49,22.52,17.53,27.19,22.48,14.79,15.69,32.06,35.99,45.49,52.93,3.01,3.79,30.88,34.73,18.01,37.16-5.57,1.05-20.75-15.8-25.22-20.35-9.26-9.44-70.71-78.5-71.62-84.53-.46-3.03,3.61-7.03,6.15-7.69Z"/>
  <path class="st0" d="M1042.68,1396.66c-2.53-9.56-.55-21.43-8.44-28.79-1.62,7.45,8.89,27.12,1.38,32.57-20.44,8.73-38.18-51.59-29.13-57.94,7.24-5.08,29.67,1.54,36.96,6.55,24.1,16.54,2.63,51.05-.78,47.61Z"/>
  <path class="st0" d="M781,1231.02l-38.41-2.38c35.3,25.8-16.32,28.45-21.26,10.39-2.28-11.22,11.29-5.38,16.44-11.62-21.29-11.6-26.14,20.18-35.39,31.87-1.45,1.84-2.8,7.35-4.27.57-2.77-12.73,5.83-14.02,9.13-19.7,10.32-17.78,23.02-43.66,48.35-40.23,13.04,1.77,28.48,16.98,25.41,31.11Z"/>
  <path class="st0" d="M423.66,1516.33l-1.55-11.66-5.87,13.35-10.96-1.31c-11.3-27.49-8.39-47.35,24.71-49.94,27.71-2.17,24.11,25.04,12.98,41.98-5.52,8.4-8.86,13.34-19.31,7.58Z"/>
  <path class="st0" d="M1213.09,316.42c.75,5.02-.37,9.04-1.86,13.74-4.65,14.64-45.44,85.84-55.73,97.9-3.41,3.99-6.12,6.96-12,5.98-.7-5.89.07-10.53,1.85-16.13,6.19-19.5,34.6-69.41,46.62-87.81,5.92-9.07,8.07-15.99,21.13-13.67Z"/>
  <path class="st0" d="M322.47,1202.22l-17.99-19.19c-1.79-.38-1.62,2.46-1.16,3.55,5.9,14.06,25.21,28.61,23.97,44.44-4.52,1.05-5.68-2.57-8.39-4.79-24.78-20.3-40.52-46.25-39.59-79.21,33.43,3.63,50.13,21.03,43.17,55.2Z"/>
  <path class="st0" d="M1467.56,1797.54l17.96-24.03c17.38-17.44,36.53-43.1,63.66-25.12-15.45,29.89-49.75,44.53-81.62,49.14Z"/>
  <path class="st0" d="M1561.19,1139.82c33.22,8.58,58.54,24.98,45.76,63.77-4.92,3.48-21.4-1.8-25.31-6.23-2.33-2.64-22.59-55.35-20.45-57.54Z"/>
  <path class="st0" d="M452.12,1521.51l-7.17,2.38c-2.08-40.16,69.93-46.44,50.98-2.99-6.33,14.52-52.83,24.91-43.81.61Z"/>
  <path class="st0" d="M1558.76,1521.48c-23.31-5.02.47,4.19,0,11.98-14.53,7.68-49.98-3.41-52.69-20.54-5.89-37.2,54.13-23.45,52.68,8.55Z"/>
  <path class="st0" d="M531.34,1797.53c-7,5.28-70.42-29.72-75.62-40.82-7.24-15.45,17.3-18.86,29.9-10.65,4.82,3.14,48.87,49.1,45.71,51.47Z"/>
  <path class="st0" d="M347.26,1062.22c-22.54-20.8,12.84-56.86,35.36-34.15,19.3,19.46-12.06,55.66-35.36,34.15Z"/>
  <path class="st0" d="M507.32,1408.65c-15.89-2.8-26.75-4.07-34.56-19.43-2.04-4.02-10.86-31.57-10.89-34.56-.08-7.6,13.06-19.27,20-17.68,6.31,1.45,12.39,38.8,15.17,47.16,2.89,8.71,8.4,15.75,10.27,24.51Z"/>
  <path class="st0" d="M687.36,796.54c.69,5.46.12,7.93-3.51,12.07-3.61,4.12-33.23,20.38-40.47,24.34-10.03,5.49-31.94,19.03-41.82,20.75s-13.78-5.15-7.99-12.95c4.67-6.3,89.8-48.36,93.79-44.21Z"/>
  <path class="st0" d="M1656.46,1025.32c19.33,17.97-5.21,51.03-29.28,35.26-30.78-20.17,7.66-55.37,29.28-35.26Z"/>
  <path class="st0" d="M452.1,278.01c-2.17,11.24-8.85,23.66-9.4,35.19s8.86,28.94-5.66,35.04c-8.15,3.42-19.71-4.51-22.24-12.49-8.45-26.67,14.83-49.12,37.31-57.74Z"/>
  <path class="st0" d="M920.23,1787.93c-4.59,3.32-51.99-4.99-58.36-9.43-6.13-4.28-8.79-26.03-8.84-33.75,27.78,8.37,54.93,13.83,67.2,43.18Z"/>
  <path class="st0" d="M1546.77,273.23c21.16,7.2,57.86,48.08,33.75,68.54-7,5.94-21.38,10.01-26.2-.63,8.54-24.41,4.76-45.74-7.55-67.91Z"/>
  <path class="st0" d="M1082.9,399.85c-3.69,4.05-9.88,1.75-11.04-3.49-.7-3.16,4.05-26.73,5.12-32.42,1.73-9.19,13.23-58.95,17.74-62.09,4.16-2.9,9.37-2.17,11.64,2.62,2.83,6.01-10.86,57.41-13.96,67.68-1.61,5.35-7.05,25.03-9.48,27.7Z"/>
  <path class="st0" d="M843.4,410.03c-6.58,1.08-9.46-2.86-13.02-7.36-6.21-7.86-35.07-61.01-37.9-70.11-3.71-11.94.68-25.09,10.7-13.11,7.5,8.97,20.07,32.86,25.5,44.12,3.37,7,19.52,41.46,14.73,46.46Z"/>
  <path class="st0" d="M1352.84,956.82c-3.8-2.15-14.71-20.24-8.95-25.93,3.96-4.05,10.14-3.84,14.53-7.06,7.7-5.63,2.55-13,18.57-9.14,13.12,3.16,15.14,31.06,6.69,39.19-5.61,5.4-25.12,6.16-30.84,2.93Z"/>
  <path class="st0" d="M1006.61,386.02c-2,1.3-6.24.03-8.31-2.44-5.4-6.45-4.59-68.17-3.62-80.32.89-11.25,2.9-28.02,15.56-15.62,2.38,11.14.52,95.7-3.63,98.39Z"/>
  <path class="st0" d="M1661.97,863.75c6.7,12.03-1.67,24.26-1.22,34.87.34,7.91,9.2,19.7.06,27.48-2.57.11-40.42-20.98-45.24-24.33-3.51-2.44-33.19-24.71-19.62-25.95,7.71-.71,46.38,28.83,54.02,35.94,1.09-9.58-3.25-17.27-1.87-26.98.51-3.61,8.34-24.99,13.87-21.02Z"/>
  <path class="st0" d="M1169.89,1384.67c-1.49,26.08-20.35,42.28-45.6,45.59-3.31-14.83,9.12-16.01,16.74-25.2-6.08-9.34-20.17,9.42-21.53,8.4-10.13-27.57,31.22-30.96,50.39-28.79Z"/>
  <path class="st0" d="M920.36,390.71l-23.98-88.5c8.22-3.45,12.66-2.46,16.84,5.63,4.24,8.22,17.91,60.93,18.52,70.54.54,8.48-2.07,13.07-11.37,12.33Z"/>
  <path class="st0" d="M353.71,904.54c3.18,3.58,43.44-28.53,52.8-23.97-.42,13.52-68.94,48.65-72,45.57,12.41-22.5-1.07-40.28,4.82-62.39,17,4.73,14.63,26.62,14.39,40.79Z"/>
  <path class="st0" d="M1579.75,1526.67c5.66-1.02,16.74,3.1,21.58,6.28,21.94,14.41-6.11,46.56-25.7,32.89-14.63-10.21-15.43-35.66,4.12-39.17Z"/>
  <path class="st0" d="M1480.88,912.75c-.61-.9-3.62-.85-3.81-2.56-2.1-19.27,36.17-50.22,40.75-21.08,2.5,15.89-6.67,30.28-20.39,37.17-6.92.67-12.98-8.29-16.56-13.53Z"/>
  <path class="st0" d="M1646.53,1254.13c-.3.9-5.56.91-2.4,8.18-16.86,8.12-34.58-7.84-35.17-25.25-.91-27.01,15.47-24.75,30.24-8.44,8.9,9.82,11.43,13.18,7.32,25.52Z"/>
  <path class="st0" d="M542.52,929.19c3.13-.27,19.32,4.96,19.98,7.91-8.14,20.46-31.37,42.08-53.04,26.37-1.25-17.3,16.48-32.86,33.07-34.28Z"/>
  <path class="st0" d="M404.87,1531.86c23.87-21.75,52.04,16.83,25.55,33.93-21.56,13.92-39.29-21.42-25.55-33.93Z"/>
  <path class="st0" d="M1599.57,1747.15c6.59,6.34-29.21,34.09-35.91,37.29-12.8,6.1-29.66,9.02-43.29,5.88-1.01-5.45.3-3.81,3.06-5.32,4.88-2.67,11.23-3.56,16.92-7.06,19.03-11.72,33.89-34.94,59.22-30.78Z"/>
  <path class="st0" d="M1432.12,876.3c5.88-6.34,23.16,8.9,26.89,13.99,7.44,10.16,15.76,40.16-5.31,34.34-19.92-5.51-30.58-29.76-21.57-48.33Z"/>
  <path class="st0" d="M1140.45,1777.72c-6.36,7.83-41.33,9.85-52.17,10.22,3.53-25.27,36.82-30.37,56.43-40.77,1.11,5.76-1.54,27.2-4.26,30.55Z"/>
  <path class="st0" d="M480.93,1790.33c-33.83,5.37-69.21-14.14-81.6-45.58,25.97-.4,35.6,17.93,52.95,29.85,9.79,6.72,22.5,6.63,28.65,15.73Z"/>
  <path class="st0" d="M1467.36,964.39c-21.03-.66-49.24-9.95-47.62-35.6,25.33-11.64,50.22,11.14,47.62,35.6Z"/>
  <path class="st0" d="M1616.36,683.69c-4.21.85-5.92-2.17-8.42-4.75-6.14-6.36-38.51-46.57-32.36-52.84,28.63-.31,49.75,30.88,40.77,57.59Z"/>
  <path class="st0" d="M550.54,892.55c3.06,0,6.19-.61,9.19.35,7.59,19.7-9.25,38.84-30.78,33.25-1.91-1.78,9.44-20.65,11.36-23.41,3.52-5.07,7.56-6.3,10.23-10.18-4.69.01-9.67,1.99-14.57,1.12l-2.59,8.09-9.12.3c3.5-7.71-9.56-18.58-8.79-21.63,2.42-9.65,28.31-30.9,38.78-19.18,2.36,10.28,2.48,22.3-3.71,31.3Z"/>
  <path class="st0" d="M1534.53,926.4c9.89,13.49-22.88,46.06-30.96,41.94l-8.75-24.18c5.85-15.19,24.74-20.04,39.71-17.76Z"/>
  <path class="st0" d="M1155.47,1811.94l-83.99,9.6c-.24-3.31-.32-6.48,1.19-9.59,5.82-11.97,60.73-8.43,74.58-13.6l8.22,13.59Z"/>
  <path class="st0" d="M932.1,1807.27l.11,16.68-79.2-12.02,6.21-14.43c23.57,7.2,48.72,5.67,72.88,9.77Z"/>
  <path class="st0" d="M430.5,621.3c6.46,7.16-34.02,56.7-43.17,62.4-6.48-37.23,10.39-51.54,43.17-62.4Z"/>
  <path class="st0" d="M651.08,1420.37c-1.13,1.79-11.91,3.4-14.9,2.41-8.85-2.91-13.4-42.87-11.24-50.82,1.3-4.76,13.78-10.38,18.59.14,1.84,4.03,8.85,46.21,7.54,48.27Z"/>
  <path class="st0" d="M1075.43,1282.28c12,10.77,8.41,37.37-.33,35.15-4.73-1.2-.77-11.9-8.43-9.58l2.38,11.97c-22.84-1.2-21.96-29.26-14.24-45.49,3.09-2.23,17.36,5.02,20.61,7.94Z"/>
  <path class="st0" d="M828.99,1387.07c1.31,6.37-1.59,4.13-4.72,5.96-5.16,3.01-10.77,4.78-15.66,8.43-13.36,9.97-17.58,29.2-37.08,16.66l4.67-11.84-14.39,2.36c-3.27-3.02,7.68-9.42,9.75-10.63,16.21-9.53,39.01-11.31,57.44-10.95Z"/>
  <path class="st0" d="M1138.68,1372.63l4.79-9.56-6.93-.91c1.98-25.73,13-31,35.71-37.52,6.86,22.15-9.68,47.43-33.58,47.99Z"/>
  <path class="st0" d="M392.08,827.72c6.89,20.78,2.25,49.83-23.77,50.2-11-20.88.17-46.21,23.77-50.2Z"/>
  <path class="st0" d="M1473.97,842.5c21.88,4.75,13.18,50.04-2.83,50.13s-18.73-46.94,2.83-50.13Z"/>
  <path class="st0" d="M710.8,1304.88c-1.51,1.28-15.69,5.11-18.46,4.16-8.47-2.89-25.76-17.35-20.68-27.59,9.53-19.16,58.2,7.36,39.14,23.42Z"/>
  <path class="st0" d="M1612.95,827.87c21,2.25,34.56,35.8,18.72,50.05-20.18-6.77-31.18-32.11-18.72-50.05Z"/>
  <path class="st0" d="M516.17,888.5c10.33,11.52,9.57,32.39-2.84,42.45-3.64-6.06-6.92-13.14-15.59-11.97l11.62,17.52c-3.26,4.55-6.7,23.38-14.12,22.27-18.65-7.03-29.4-29.42-12.73-44.43l12.03,4.3,5.55-3.27c-12.01-13.47-1.21-46.14,16.09-26.87Z"/>
  <path class="st0" d="M1600.54,915.7c1.1,1.47,5.77-.38,3.85,5.63-19.59,6.46-40.78,9.81-55.15-8.38,15.45-17.9,37.54-15.59,51.3,2.75Z"/>
  <path class="st0" d="M559.88,1053.11h-6.67c-4.26-2.76-12.73-37.92-12.34-44.16.95-15.36,25.9-.02,28.47,12.59,2.3,11.28-6.44,21.32-9.46,31.57Z"/>
  <path class="st0" d="M401.92,923.56c-6.72-9.71,18.97-19.66,25.6-20.9,9.56-1.79,29.97,2.15,22.33,15.19-8.46,14.45-34.76,11.34-47.93,5.71Z"/>
  <path class="st0" d="M477.81,1160.72c-5.68,7.01-24.67,7.95-27.68-.89-8.72-25.66,37.32-52.91,30.58-6.93-.44,2.99-.95,5.41-2.9,7.82Z"/>
  <path class="st0" d="M185.69,1387.06c20.35,5.77,33.41,23.53,39.84,43.03l-2.69,4.97c-23.17-3.1-40.04-24.55-37.15-48Z"/>
  <path class="st0" d="M1818.02,1387.07c4.45,22.47-13.48,42.52-34.71,48-3.87-2.92-3.57-3.01-2.59-7.25,3.61-15.73,20.53-37.43,37.31-40.75Z"/>
  <path class="st0" d="M1035.44,1725.55c3.78,3.81-10.85,12.36-14.32,13.27-23.41,6.09-61.53-3.38-67.26-30.08,23.45,16.03,53.57,24.07,81.58,16.81Z"/>
  <path class="st0" d="M1354.24,960.15c6.17,10.64-15.17,9.45-21.69,8.58-39.24-5.23-33.38-38.86,3.74-20.54,2.2,1.08,17.41,11.02,17.95,11.96Z"/>
  <path class="st0" d="M680.15,868.54c8.73,6.14-9.63,29.51-14.45,34.73s-10.56,14.1-19.29,9.85c-13.85-10,29.41-47.62,33.74-44.58Z"/>
  <path class="st0" d="M590.46,1092.55c5.21-.5,20.41,2.38,19.74,9.64-20.31,42.53-60.21-5.77-19.74-9.64Z"/>
  <path class="st0" d="M465.57,1627.44c11.6-2.69,26.39,17.35,26.4,28.32l-2.59,4.85c-12.9-3.53-31.88-4.09-30.03-22.45.33-3.22,2.94-9.96,6.22-10.72Z"/>
  <path class="st0" d="M597.58,1394.41c9.03-2.7,16.44,23.92,15.5,29.8-1.44,8.92-11.32,4.9-18.28,7.76-9.75-5.34-5.17-35.18,2.78-37.56Z"/>
  <path class="st0" d="M752.7,1321.75c-9.53-6.83-.75-25.56,4.66-32.79,22.44-.06,18.8,21.87,7,34.43-1.43.61-10.51-.82-11.65-1.64Z"/>
  <path class="st0" d="M540.21,1046.9c8.54,11.78,8.59,21.56,5.52,35.3-5.59,1.47-4.02-1.36-5.49-3.06-3.58-4.14-6.45-9.62-10-13.91-2.35-2.84-8.11-4.16-8.62-6.34-1.26-5.38,3.14-20.24,8.53-22.31,1.07,6.18,8.35,7.95,10.06,10.31Z"/>
  <path class="st0" d="M471.34,962.18c20.3-.39,42.1,18.94,20.39,35.95-7.57-11.6-21.68-20.13-20.39-35.95Z"/>
  <path class="st0" d="M552.45,1165.69c-2.89,1.65-8.03.14-11.51.51-2.26-14.13,13.75-37.24,28.77-29.98,2.96,1.43,6.19,5.47,3.76,8.36-4.82,5.87-11.34,9.62-17.11,14.35-1.96,1.61-2.74,6.09-3.91,6.76Z"/>
  <path class="st0" d="M453.66,1192.81c6.24-1.99,25.64,6.79,26.86,13.36-.84,13.87-17.39,12.37-27.43,8.29-4.65-3.68-5.76-19.62.57-21.64Z"/>
  <path class="st0" d="M1069.05,1343.84c-2.51,2.53-37.4-10.35-35.64-20.47,1.8-10.32,42.38,5.95,35.64,20.47Z"/>
  <path class="st0" d="M786.55,1306.21c12.71-10.59,32.21-5.94,18.29,9.89-10.97,12.49-38.62,7.04-18.29-9.89Z"/>
  <path class="st0" d="M1037.83,1514.29c-8.47-3.52-31.19-22.94-16.77-30.01,19.47-7.26,16.9,16.89,16.77,30.01Z"/>
  <path class="st0" d="M1011.44,1759.16c.73.67-5.62,16.04-6.57,18.69-1.11,3.07,1.05,6.39-4.19,5.28l-20.43-26.36,31.18,2.39Z"/>
  <path class="st0" d="M1688.42,1283.83c-3.12-16.95,10.67-28.94,23.97-36,4.64,7.65-19.65,40.93-23.97,36Z"/>
  <path class="st0" d="M778.64,1293.44c-3.76-5.64-11.77-23.93-1.21-26.4,8.34-1.95,13.22,24.26,1.21,26.4Z"/>
  <path class="st0" d="M1011.44,1900.76h-14.4s2.43-26.39,2.43-26.39c5.76,1.25,13.81,24.67,11.97,26.39Z"/>
</svg>