<?xml version="1.0" encoding="UTF-8"?> <svg xmlns="http://www.w3.org/2000/svg" xmlns:xlink="http://www.w3.org/1999/xlink" version="1.1" id="Ebene_1" x="0px" y="0px" viewBox="0 0 224.2 138.9" style="enable-background:new 0 0 224.2 138.9;" xml:space="preserve"> <style type="text/css"> .st0{fill:#FFFFFF;} </style> <g> <g> <g> <g> <path class="st0" d="M129,73.2H86.1l-0.7-0.4L65.7,37l0-0.8L85.3,0.4L86.1,0H129l0.7,0.4l19.7,35.8V37l-19.7,35.8L129,73.2z M86.6,71.5h41.9l19.2-34.9L128.5,1.7H86.6L67.4,36.6L86.6,71.5z"></path> </g> <g> <path class="st0" d="M106.2,34.4c0.1,0.1,0.2,0.2,0.2,0.3c0.5,1,0.5,2,0.1,3.1c-0.2,0.3-0.4,0.7-0.9,0.7 c-0.4-0.2-0.3-0.5-0.3-0.9c-0.1,0-0.2-0.1-0.3-0.1c-1.2-0.3-2.5-0.3-3.7-0.2c-0.5,0.1-1.1,0.3-1.5,0.5c-0.3,0.2-0.7,0.4-0.7,0.9 c0.3-0.2,0.8-0.4,1.1-0.7c0.9-0.4,1.7-0.4,2.5-0.4c1,0,1.9,0.4,2.5,1.2c0.1,0.1,0.2,0.1,0.2,0.2c0.5,0.1,0.9-0.1,1.3-0.3 c0.1-0.2,0.3-0.5,0.4-0.9c0.3-0.8,0.4-1.5,0.1-2.4C107.1,34.9,106.8,34.6,106.2,34.4z"></path> <path class="st0" d="M89,50.6c0.9-0.9,2.8-0.9,4-1.2c1.5-0.3,2.9,1.5,4.2,2.1C97,50,96.3,49,94.8,48.7c0.4-0.1,0.8-0.5,1.3-0.6 C93.9,46.2,85.8,46.7,89,50.6z"></path> <path class="st0" d="M82.4,47c0.9,0,2.2,0.4,2.4-0.6c0.4-1.8-0.7-2.6-2.2-3.4c0.1,0.4-0.1,0.9,0,1.3c-1.1-0.8-1.8-1.4-3.2-1.5 C80.3,43.9,81.2,46.1,82.4,47z"></path> <path class="st0" d="M83.7,57.1c-0.9-0.4-1.9-0.7-2.8-1.1c-0.1,0-0.3,0-0.4,0.1l4,7.2C85.7,61.1,85.4,59.4,83.7,57.1z"></path> <path class="st0" d="M76.6,48c-0.2,0-0.4,0-0.5,0.1l1.9,3.5c0.3-0.8,0.5-1.5,0.8-2.3C79.2,48.3,77.4,47.9,76.6,48z"></path> <path class="st0" d="M86.6,43.9c-1.4-0.4-0.5,2.5-0.6,3.4c1.4,0.9,1.1,0.9,2.2-0.1c0.6-0.6,1.7-0.9,2.4-1.2 c-0.6-0.5-1.3-0.5-2.1-0.7C87.6,45,87.4,44.1,86.6,43.9z"></path> <path class="st0" d="M92.5,51.3c-0.6-0.1-3.2-0.3-3.7,0.3c-0.3,0.4,0.1,1.9,0.1,2.4c1.4-0.1,3-0.2,4.3,0.4 c1.7,0.7,2.3,2.4,3.6,3.6c0.2-0.8,1-1.8,1.8-1.4C98.5,52.9,95.8,51.8,92.5,51.3z"></path> <path class="st0" d="M75.1,46.2l0.3,0.6c1.5,0.1,2.9,0.4,4,1.2c0.6-0.4,1.3-0.7,1.9-1.1c-1.2-1.7-2.6-2.5-4.3-2.8 C76.5,44.7,75.7,45.5,75.1,46.2z"></path> <path class="st0" d="M90.4,59.8c0.2,0.2,1.3,1.8,1.3,1.8c0.8-0.1,1.2-2,1.4-2.6c0.5-2.5-1.4-3.2-3.7-3.6 c-1.5-0.3-2.1,0.5-3.2,1.4C85.7,59.9,89.1,58.5,90.4,59.8z"></path> <path class="st0" d="M95.1,69.4c-2.5-0.5-5.1-0.7-7.7-0.7l0.4,0.7L95.1,69.4z"></path> <path class="st0" d="M86.2,51.9c0-3-5.2-3-5.2,0C81.1,54.9,86.2,54.9,86.2,51.9z"></path> <path class="st0" d="M89.3,61.5c0,0-2.5-1.1-2.5-1.1c0.3,0.7-0.1,1,1,1.8c3,2,6.1,3.9,9.4,5.3c1.3,0.5,2.6,1.2,3.9,1.8l2.9,0 C98.9,66.7,93.2,64.2,89.3,61.5z"></path> <path class="st0" d="M81.1,49.9c0-1.1-1.8-1.1-1.8,0C79.4,51,81.1,51,81.1,49.9z"></path> <path class="st0" d="M82.1,54.4c0-1.1-1.8-1.1-1.8,0C80.3,55.5,82.1,55.5,82.1,54.4z"></path> <path class="st0" d="M84.4,48.8c0,1.1,1.8,1.1,1.8,0C86.2,47.7,84.4,47.7,84.4,48.8z"></path> <path class="st0" d="M78.9,52.5c0,1.1,1.8,1.1,1.8,0C80.7,51.5,78.9,51.5,78.9,52.5z"></path> <path class="st0" d="M83.8,55.5c0-1.1-1.8-1.1-1.8,0C82,56.6,83.8,56.6,83.8,55.5z"></path> <path class="st0" d="M86.5,55.2c0-1.1-1.8-1.1-1.8,0C84.7,56.3,86.5,56.3,86.5,55.2z"></path> <path class="st0" d="M83.5,48.5c0-1.1-1.8-1.1-1.8,0C81.7,49.6,83.5,49.6,83.5,48.5z"></path> <path class="st0" d="M88.1,50.8c0-1.1-1.8-1.1-1.8,0C86.3,51.9,88.1,51.9,88.1,50.8z"></path> <path class="st0" d="M88.1,53.6c0-1.1-1.8-1.1-1.8,0C86.3,54.7,88.1,54.7,88.1,53.6z"></path> <path class="st0" d="M106.1,22.2c0.1-0.3,0.1-0.7,0-1c-0.2,0.1-0.4,0.2-0.7,0.3C105.6,21.8,105.7,22.1,106.1,22.2z"></path> <path class="st0" d="M112.6,17.7c0.1,0,0.3-0.1,0.6-0.2c-0.5-0.5-0.9-0.8-1.4-1.1c-1.6-0.9-3.3-1.6-4.9-2.4 c-0.2-0.1-0.4-0.1-0.6-0.1c-0.4,0-0.9,0.1-1.3,0.2c-0.5,0.1-0.9,0.2-1.4,0.3c-1,0.1-1.8,0.5-2.2,1.5c0,0.1,0,0.1,0,0.2 c0.1,0.1,0.2,0.2,0.3,0.3c0.9,0,1.8,0,2.7,0c1,0,2.1,0.1,3.1,0.2c0.9,0.1,1.8,0.4,2.7,0.7C111,17.7,111.8,17.8,112.6,17.7z"></path> <path class="st0" d="M131.1,16.4c-0.3,0.1-0.7,0.3-1,0.4c-0.3,0.1-0.7,0.2-1.2,0.3c0.6,0.2,1,0.2,1.4,0.1 c0.6-0.1,1.1-0.3,1.7-0.5c0.6-0.3,1.1-0.6,1.6-1l-0.4-0.8C132.6,15.5,132,16,131.1,16.4z"></path> <path class="st0" d="M93.6,61c1.1-0.5,2.1-1,3.2-1.5L96,58.9c-0.6-0.5-1-1.1-1.4-1.6c-0.5-0.6-0.9-1.2-1.5-1.6 c0.2,0.2,0.4,0.4,0.6,0.6c0.5,0.8,0.7,1.8,0.4,2.9C94,59.7,93.8,60.4,93.6,61z"></path> <path class="st0" d="M107,19.9c-0.3,0.9-0.6,1.7-0.4,2.8c0.8-0.3,1.4-0.8,2-1.3c0.3-0.3,0.8-0.6,0.9-1.1 c-0.1-0.2-0.3-0.3-0.5-0.3C108.3,19.9,107.6,19.6,107,19.9z"></path> <path class="st0" d="M122.3,24.2c0.3,0.6,0.5,1.2,0.8,1.8c0.1,0.2,0.1,0.4,0.3,0.5c0-0.1,0-0.2,0-0.3c-0.5-2-1.3-3.9-2.5-5.7 c-1.4-2-3.1-3.7-5-5.2c-2-1.5-4.2-2.6-6.5-3.5c-0.5-0.2-0.9-0.4-1.4-0.5c-1.3-0.4-2.4-1.1-3.6-1.8c-1.3-0.9-2.7-1.8-4.1-2.7 c-0.1-0.1-0.3-0.2-0.5-0.1c0.1,0.2,0.3,0.4,0.4,0.6c0.4,0.5,0.8,0.9,1.2,1.4c0.9,1,1.9,1.9,3.1,2.5c1.1,0.6,2.2,1.1,3.3,1.5 c1.7,0.6,3.4,1.3,5.1,2.2c1.7,0.9,3.3,2,4.6,3.3C119.7,19.8,121.2,21.9,122.3,24.2z"></path> <path class="st0" d="M110.5,18.8c0.2,0,0.4-0.2,0.6-0.3c-0.1-0.3-0.3-0.3-0.4-0.4c-0.8-0.2-1.7-0.4-2.5-0.6 c-0.8-0.2-1.6-0.3-2.3-0.4c-0.6,0-1.2,0-1.7,0c-0.3,0-0.6,0-0.9,0.1c0,0.1,0,0.2,0,0.2c0.3,0.4,0.6,0.6,1,0.7 c1.8,0.4,3.5,0.7,5.3,0.7C109.9,18.9,110.2,18.9,110.5,18.8z"></path> <path class="st0" d="M143.3,38.2c-0.6,0.3-1.2,0.6-1.7,1.1c-0.6,0.5-0.9,1.2-1.2,1.9c-1,2.4-2.2,4.7-3.4,7 c-1,1.9-1.6,3.8-1.9,5.9c0,0.1,0,0.2,0.1,0.3c0.1,0,0.2-0.1,0.2-0.1l9.1-16.6C144.1,37.9,143.7,38,143.3,38.2z"></path> <path class="st0" d="M127.3,61.7c-0.9,0.5-2,0.9-3.1,1.2c-1.3,0.4-2.6,0.7-4,0.3c-0.1-0.1-0.2,0-0.3,0c0,0.1-0.1,0.2-0.1,0.3 c0.1,1,0.1,2,0.1,2.8v0.5c0,0.8,0,1.5-0.1,2.3v0.1l3.8,0c0.8-1.5,1.7-3,2.5-4.5c0.2,0.1,0.1,0.2,0.1,0.3 c-0.1,0.9-0.2,1.7-0.3,2.7c0,0.5-0.1,0.9-0.1,1.4l1.3,0c0-0.1,0-0.1,0-0.2c0.1-0.9,0.1-1.9,0.2-2.7c0.1-1.5,0.3-2.9,0.5-4.5 v-0.4C127.6,61.6,127.5,61.7,127.3,61.7z M123.7,64.5c-0.8,1.1-1.4,2.2-2.1,3.3c-0.1,0.1-0.2,0.2-0.4,0.5c-0.1-0.5,0-0.9,0-1.3 V66c0-0.4-0.1-0.8,0-1.2c0.9-0.1,1.6-0.2,2.5-0.3C123.7,64.4,123.7,64.4,123.7,64.5z"></path> <path class="st0" d="M100,6.7C100,6.7,100,6.6,100,6.7L100,6.7z"></path> <path class="st0" d="M133.4,31.1C133.4,31.1,133.4,31.1,133.4,31.1"></path> <path class="st0" d="M129.2,38.7c0.1-0.3,0.2-0.5,0.2-0.8c0.5-2,1.1-3.9,2-5.7c0.2-0.3,0.3-0.7,0.5-1c0.6-1.1,1-2.4,1.3-3.6 c0-0.1,0-0.2,0-0.3c-0.1,0.1-0.2,0.1-0.2,0.2c-0.3,0.6-0.7,1.2-1,1.9c-0.3,0.6-0.5,1.2-0.8,1.7c-0.7,1.2-1.2,2.5-1.6,3.8 c-0.3,1-0.5,2-0.5,3.1c0,0.3,0,0.5,0.1,0.8C129.1,38.8,129.2,38.7,129.2,38.7z"></path> <path class="st0" d="M130.4,62.6c0.2-1.9,0.2-3.7,0.3-5.6c0.1-1.7,0.2-3.4,0.3-5.1c0.1-1.3,0.2-2.5,0.2-3.8 c0.1-1.9,0.1-3.7,0.2-5.6c0-0.1,0-0.2,0-0.4c0.2-1.4,0.4-2.8,0.6-4.2c0.4-2,0.7-4,1.2-6c0.1-0.3,0.1-0.6,0.1-0.9 c-0.1,0.1-0.1,0.1-0.1,0.2c-1,2.1-1.8,4.3-2.1,6.6c-0.2,1.5-0.4,2.9-0.6,4.4c-0.2,1.1-0.3,2.2-0.3,3.4c0,1.9-0.1,3.9-0.2,5.8 c-0.2,2.2-0.3,4.5-0.3,6.7c0,1.1,0,2.3-0.1,3.4c-0.1,1.3-0.2,2.5-0.3,3.8l0.9-1.7C130.3,63.3,130.3,63,130.4,62.6z"></path> <path class="st0" d="M125.3,19.9C125.3,19.9,125.3,19.9,125.3,19.9C125.3,19.9,125.3,19.9,125.3,19.9 C125.4,19.9,125.3,19.9,125.3,19.9C125.3,19.9,125.3,19.9,125.3,19.9z"></path> <path class="st0" d="M131.6,21c-0.1-0.1-0.1-0.2-0.2-0.1C131.4,21,131.5,21,131.6,21c0.1,0.3,0.4,0.4,0.6,0.5 c1.2,0.7,2.3,1.5,3.4,2.3c0.2,0.1,0.4,0.2,0.5,0.3c0-0.1-0.1-0.3-0.1-0.4c-1.1-1.2-2.5-2.2-4.1-2.7C131.8,21,131.7,21,131.6,21z "></path> <path class="st0" d="M132.8,52.9c0.1-1.6,0.3-3.1,0.5-4.7c0.2-1.9,0.4-3.9,0.6-5.8c0-0.4,0.1-0.8,0.2-1.2 c0.2-1.4,0.4-2.7,0.7-4.1c0.4-1.6,0.6-3.3,0.7-5c0-0.4,0-0.7,0-1.1c0-0.4-0.1-0.9-0.1-1.3c0-0.1,0-0.2-0.1-0.3 c-0.1,0.1-0.1,0.1-0.1,0.1c0,0.3,0,0.6,0,0.9c-0.1,1.7-0.2,3.4-0.6,5c-0.3,0.9-0.6,1.8-0.8,2.7c-0.3,1.2-0.6,2.3-0.7,3.5 c-0.3,2-0.4,4.1-0.6,6.1c-0.1,1.2-0.2,2.3-0.2,3.5c-0.1,1.3-0.2,2.6-0.3,3.8c-0.1,1.8-0.2,3.6-0.3,5.4c0,0.3,0,0.6-0.1,1 l0.9-1.6c0.1-1.2,0.1-2.5,0.2-3.7C132.6,55.1,132.7,54,132.8,52.9z"></path> <path class="st0" d="M136.1,24.1C136.1,24.1,136.1,24.1,136.1,24.1"></path> <path class="st0" d="M137.6,30.6c-0.1-0.5-0.2-1-0.3-1.5c-0.5-1.8-1.5-3.4-3-4.6c-0.8-0.7-1.7-1.2-2.6-1.7 c-1.8-0.9-3.7-1.8-5.6-2.6c-0.1-0.1-0.2-0.1-0.4-0.1c-0.1-0.1-0.2-0.1-0.4-0.1c0.1,0.1,0.2,0.1,0.3,0.2c0.5,0.5,1.2,0.9,1.8,1.3 c1.3,0.8,2.7,1.6,4,2.4c1,0.6,1.9,1.3,2.7,2.2c1.1,1.3,2.1,2.6,2.8,4.2c0.2,0.3,0.3,0.6,0.5,1C137.7,30.9,137.6,30.7,137.6,30.6 z"></path> <path class="st0" d="M123.5,26.5C123.5,26.5,123.5,26.5,123.5,26.5C123.5,26.6,123.5,26.6,123.5,26.5z"></path> <path class="st0" d="M123.5,26.5C123.5,26.5,123.5,26.5,123.5,26.5C123.5,26.5,123.5,26.5,123.5,26.5 C123.5,26.5,123.5,26.5,123.5,26.5z"></path> <polygon class="st0" points="123.5,26.5 123.5,26.5 123.5,26.5 "></polygon> <path class="st0" d="M110.9,47.8c-0.4,0.1-0.8,0.3-1.1,0.6c-0.2,0.4-0.1,0.7,0.2,1c0.7-0.2,1.1-0.8,1.5-1.3 C111.2,47.8,111.1,47.8,110.9,47.8z"></path> <path class="st0" d="M112,47.8c0.1-0.2,0.3-0.3,0.1-0.6c-0.2,0.1-0.4,0.2-0.6,0.4C111.6,47.9,111.8,47.9,112,47.8z"></path> <path class="st0" d="M123.9,61.6c0.7-0.2,1.3-0.4,2-0.8c0.4-0.2,1-0.4,1.3-0.8c0.9-0.7,1.3-1.4,1.3-2.5c0-0.2,0.1-0.5,0.1-0.8 c-0.1-2.6-0.1-5.2-0.1-7.8c0-0.8-0.1-1.5-0.2-2.2c0-0.3-0.1-0.5-0.1-0.8c-0.3-2.3-0.7-4.5-1.5-6.6c0-0.1-0.1-0.3-0.2-0.5 c-0.1-0.5-0.3-1.1-0.4-1.6c-0.3-1.3-0.4-2.6-0.3-3.9v-1.1c0-0.4-0.2-0.8-0.5-1.1c-0.4-0.5-1-1.1-1.5-1.6 c-1.1-1.1-1.9-2.5-2.4-4.1c-0.1-0.7-0.3-1.3-0.5-2s-0.7-1.2-1.1-1.6c-1.6-1.3-3.4-2.5-5-3.7c-0.8-0.1-1.4,0.3-2.1,0.4 c-0.3,0.5-0.8,0.9-1.4,0.9c-0.4,0.1-0.5,0.3-0.8,0.7c-0.7,1.3-1.7,2.2-2.9,2.8c-0.3,0.1-0.5,0.2-0.8,0.4c0,0-0.1,0.1-0.2,0.3 h0.4c0.4-0.1,0.8-0.2,1.1-0.5c0.5-0.3,1.1-0.7,1.6-1.1c0,0.1-0.1,0.3-0.2,0.3c-0.4,0.5-0.9,1-1.4,1.3c-0.3,0.2-0.7,0.4-1,1 c0.1,0.2,0.1,0.5,0.1,0.9c0,0.3,0.3,0.7,0.2,1c-0.1-0.1-0.1-0.1-0.2-0.1c-0.3-0.5-0.7-1-0.7-1.6c-0.1-0.3-0.2-0.4-0.4-0.7 c-0.2,0-0.4,0.2-0.7,0c0-0.4,0.1-0.5,0.4-0.8c0.1-0.1,0.3-0.1,0.3-0.4c-0.3-0.4-0.7-0.8-0.9-1.2c-0.2-0.5-0.3-1-0.5-1.5 c-0.2-0.1-0.5,0-0.8,0c-0.3,0.1-0.7,0.2-1,0.2c-0.7,0.1-1.2,0.3-1.9,0.2c-0.1,0-0.2,0-0.2-0.1c-0.2-0.2-0.4-0.4-0.8-0.7 c-0.2-0.2-0.5-0.3-0.9-0.4v-0.1c-0.1-0.1-0.2-0.2,0-0.3c0.1,0,0.3,0,0.4,0.1h1.7c0.5,0,1-0.3,1.2-0.8c0.1-0.2,0.1-0.4,0-0.7 c0-0.1-0.1-0.2-0.2-0.3c-0.3,0-0.8-0.1-1.2,0.2c0.2,0.1,0.3,0.2,0.4,0.2c0.1,0.1,0.3,0.2,0.2,0.4c-0.9,0.4-1.7,0.4-2.5,0.1 C99,18.1,98.9,18,98.7,18c-0.7-0.2-0.9-0.5-0.9-1.2c0-0.4,0.1-0.9,0.4-1.2c0.3-0.3,0.7-0.7,1-1.1c0.3-0.4,0.9-0.8,1.4-1 c0.9-0.3,1.9-0.5,2.8-0.7c0.1,0,0.3,0.1,0.4-0.1c-0.1-0.2-0.2-0.3-0.4-0.4c-0.7-0.3-1.3-0.8-2.1-1.2c-0.3-0.1-0.7-0.3-1-0.4 c-0.9-0.4-1.9-0.8-2.6-1.1c-0.7-0.3-1.3-0.3-2-0.1c-0.2,0.1-0.4,0.2-0.7,0.3c-0.5,1-0.7,1.4-0.4,2.3c0,0.2,0.1,0.4,0.1,0.5 c0.3,1.2,0.8,2.3,1.3,3.5c0.5,1.1,1.1,2.2,1.6,3.3c0.4,1,0.8,2.1,0.7,3.2c-0.1,1.1-0.2,2.1-0.4,3.1c-0.4,1.7-0.5,3.4-0.9,5.1 c-0.1,1-0.2,2-0.4,2.8c-0.1,0.7-0.2,1.3-0.5,2c-0.1,0.3-0.2,0.8-0.2,1.1c0.2,1.4,0.8,2.5,2.4,3.2c0.7,0.2,1.3,0.3,2.1,0.3 c1.2,0,2.5,0,3.7,0.2c0.8,0.5,1.1,1.4,1.4,2.2c0.1,0.2,0,0.3,0.1,0.4c0,0.8,0,1.4-0.2,2.1c0.1,0.1,0.2,0.1,0.2,0.1 c0.7-0.2,1.2-0.1,1.7,0.2c0.4,0.2,1,0.3,1.4,0.4c1,0.2,2,0.2,3.1,0.2h1.5c-0.2,0.8-0.4,1.5-0.9,2.3c-0.4,0.7-1.1,1.2-1.9,1.6 c0.3,0.3,0.8,0.5,1.2,0.9c0.4,0.3,1,0.7,1.6,0.8c1.2,0.3,2,1.1,2.2,2.4c0.2,0.8,0.3,1.6,0.4,2.5c0,0.3,0,0.5,0.1,0.9 c0.4,1.3,1.2,2.5,2.2,3.5c0.4,0.5,1.1,0.9,1.9,1C121.5,62,122.7,61.9,123.9,61.6z"></path> <path class="st0" d="M88.4,11.2C88.4,11.2,88.4,11.2,88.4,11.2"></path> <path class="st0" d="M91,8.7c0.4-0.6,0.7-1.2,1-1.7c0.6-1,1.2-2.1,1.8-3.1h-1.1c-0.3,0.7-0.6,1.3-0.9,2 c-0.6,1.4-1.4,2.7-2.3,3.9c-0.4,0.5-0.7,1-1.1,1.4c0.2-0.1,0.3-0.1,0.4-0.2C89.6,10.3,90.4,9.6,91,8.7z"></path> <path class="st0" d="M87.4,6.6c0.7-0.9,1.3-1.8,2-2.7h-1.2C88,4,87.9,4.1,87.8,4.3c-0.2,0.2-0.3,0.4-0.5,0.6 c0,0-0.1,0.1-0.1,0.1L85,9C85.9,8.3,86.7,7.6,87.4,6.6z"></path> <path class="st0" d="M83.8,11.5C83.8,11.5,83.8,11.5,83.8,11.5"></path> <path class="st0" d="M97.9,58.3l-0.2,0.9c0.5-0.2,1.1-0.5,1.6-0.7l-1.2-0.6C98.1,57.9,97.9,58.1,97.9,58.3z"></path> <path class="st0" d="M87.2,63.2c-0.5-0.3-0.8-0.6-1-0.9c-0.2,0.7-0.5,1.5-1.1,2.3l0.2,0.3c0.9-0.4,1.7-0.8,2.6-1.2 C87.6,63.5,87.4,63.4,87.2,63.2z"></path> <path class="st0" d="M96.8,68.6c-1.4-0.6-2.8-1.2-4.2-2.1c-0.6,0.4-1.3,0.7-1.9,1.1C92.8,67.8,94.8,68.1,96.8,68.6z"></path> <path class="st0" d="M84.2,11.4c1.3-0.5,2.4-1.1,3.5-2c0.6-0.5,1.2-1.1,1.7-1.8c0.4-0.7,0.9-1.5,1.3-2.2c0.3-0.5,0.5-1,0.8-1.5 h-0.8c-0.3,0.4-0.5,0.9-0.8,1.3c-0.8,1.4-1.8,2.6-3,3.7c-0.8,0.7-1.5,1.3-2.3,2c-0.2,0.2-0.5,0.3-0.6,0.6 C83.9,11.4,84.1,11.4,84.2,11.4z"></path> <path class="st0" d="M95.6,6.1c0.4-0.7,0.8-1.5,1.1-2.2c0,0,0,0,0,0h-1.1c-0.1,0.2-0.2,0.5-0.3,0.7c-0.3,0.6-0.6,1.1-1,1.6 c-0.9,1.1-1.7,2.2-2.6,3.2c-0.1,0.2-0.3,0.3-0.4,0.5c0.9-0.3,1.6-0.9,2.3-1.5C94.4,7.8,95.1,7,95.6,6.1z"></path> <path class="st0" d="M114.1,54.7c0,0.1-0.1,0.1-0.1,0.2c-0.1,0.9-0.2,1.8-0.3,2.6c-0.1,0.5-0.1,1-0.2,1.5 c-0.2,1.1-0.3,2.1-0.4,3.3c0.3-0.3,0.3-0.6,0.4-0.9c0.2-1.4,0.5-2.8,1-4.1c0.3-0.8,0.3-1.6,0-2.4 C114.4,54.9,114.3,54.7,114.1,54.7z"></path> <path class="st0" d="M117.7,62.1c0-0.2,0-0.4-0.2-0.6c-0.4-0.1-0.6,0.1-0.7,0.4c-0.1,0.2-0.1,0.4-0.1,0.6c0,0.6,0,1.2-0.1,1.8 c-0.1,1.7-0.1,3.3-0.1,5l0.9,0C117.4,66.9,117.6,64.5,117.7,62.1z"></path> <path class="st0" d="M113.5,67.6c-0.1,0.1-0.1,0.1-0.1,0.2c0,0.5,0,1.1,0,1.6l0.5,0C113.8,68.8,113.7,68.2,113.5,67.6z"></path> <path class="st0" d="M99.2,8c0.3,0.2,0.4,0.4,0.7,0.4C99.7,8,99.7,8,99.2,8z"></path> <path class="st0" d="M115.1,58.6c-0.2,1.2-0.4,2.3-0.6,3.5c-0.1,0.3-0.1,0.6-0.1,0.9c0,1.1-0.1,2.3,0.1,3.4c0,0.3,0.1,0.7,0.1,1 c0,0.6,0.1,1.3,0.1,1.9l1.1,0c0-0.2,0-0.4,0-0.6c0-1.2,0-2.4,0-3.7c0-1.4,0.1-2.9,0.3-4.3c0.1-0.8-0.1-1.4-0.5-2.1 C115.3,58.6,115.2,58.5,115.1,58.6z"></path> <path class="st0" d="M135.8,39.9c-0.3,1.6-0.5,3.3-0.7,4.9c-0.2,1.1-0.4,2.2-0.5,3.3c0,0.2-0.1,0.4,0.1,0.8 c0.1-0.4,0.2-0.7,0.3-0.9c0.8-2.4,1.4-4.9,1.9-7.4c0.2-1,0.3-2.1,0.4-3.2c0.1-0.8,0.1-1.6,0.1-2.5c0-0.3,0.1-0.6-0.2-1 c-0.1,0.2-0.2,0.3-0.2,0.3C136.5,36.1,136.1,38,135.8,39.9z"></path> <path class="st0" d="M127.2,18.6c0.8,0.2,1.5,0.5,2.3,0.6c1.3,0.3,2.6,0.6,3.9,0.8c0.2,0,0.3,0,0.5,0c-0.1-0.1-0.3-0.2-0.4-0.3 c-1.3-0.7-2.8-1.2-4.2-1.6c-1.3-0.3-2.5-0.7-3.8-1.1c-2.2-0.7-4-2-5.3-3.9c-0.7-1-1.6-2-2.3-3.1c-0.6-0.9-1.5-1.4-2.4-1.9 c-0.1,0-0.2,0-0.2,0c0.1,0.2,0.2,0.4,0.3,0.5c0.8,1.1,1.6,2.3,2.4,3.4c0.7,1,1.5,1.9,2.2,2.8c1.2,1.4,2.6,2.3,4.4,2.8 C125.5,18,126.3,18.3,127.2,18.6z"></path> <path class="st0" d="M133.9,20.1C133.9,20.1,133.9,20.1,133.9,20.1"></path> <path class="st0" d="M125.1,23.6c0.2,0.5,0.3,0.9,0.5,1.4c0.2,0.5,0.3,0.9,0.5,1.4c0.2,0.5,0.4,1,0.5,1.5 c0.1,0.5,0.2,0.9,0.4,1.6c0.2-0.4,0.3-0.6,0.4-0.8c0.3-1,0.5-2.1,0.1-3.1c-0.3-0.7-0.6-1.4-1.1-2c-0.3-0.4-0.6-0.8-0.9-1.2 c-0.3-0.4-0.7-0.8-1.1-1.3c-0.1-0.1-0.2-0.1-0.4-0.3c0.1,0.6,0.4,1,0.6,1.4C124.7,22.6,124.9,23.1,125.1,23.6z"></path> <path class="st0" d="M127.5,35.4c0.1-0.2,0.2-0.3,0.2-0.4c0.2-1.1,0.7-2.1,1.3-3.1c0.4-0.7,0.8-1.3,1.1-2 c0.2-0.4,0.4-0.8,0.5-1.3c0.1-0.2,0.1-0.4,0.1-0.6c-0.1-0.8-0.3-1.5-0.7-2.2c-0.3-0.4-0.6-0.8-1-1.2c-0.1,0.1-0.1,0.1-0.1,0.1 c0,0.3,0.1,0.7,0.1,1c0.2,1,0,2-0.4,3c-0.3,0.6-0.5,1.3-0.8,1.9c-0.6,1.5-0.7,3-0.5,4.6C127.4,35.2,127.4,35.3,127.5,35.4z"></path> <path class="st0" d="M94.8,30.7c-0.2,1.2-0.4,2.4-0.8,3.6h-0.5c-1.3-0.1-2.7-0.3-4-0.4c-1.3-0.1-2.6-0.3-3.8-0.4 c-0.9-0.1-1.9-0.2-2.7-0.3c-1.2-0.1-2.4-0.2-3.7-0.4c-1.4-0.1-2.8-0.3-4.1-0.4c-0.9-0.1-1.8-0.2-2.6-0.3l-2.6,4.8l0.1,0.1 c0,0,0.1,0,0.1,0h0.9c2,0.1,3.9,0.2,5.9,0.2c2.1,0.1,4,0.2,6.1,0.3c2.2,0.1,4.5,0.2,6.6,0.2c1.3,0.1,2.5,0.2,3.8,0.2 c0,0,0.1,0.1,0.2,0.1c0.2,0.7,0.3,1.4,0.9,2.1c0.4,0.5,1.1,1,1.6,1.5c-0.1,0.1-0.2,0.1-0.3,0.1c-2.2,0.1-4.5,0.2-6.6,0.3h-0.3 c-1.9,0-3.7,0.1-5.4,0.2c0.4,0.2,1.1,0.7,1.6,1.2c0.1,0,0.1-0.1,0.1-0.1c0.3-0.3,0.8-0.5,1.2-0.5c0.2,0,0.4,0,0.7,0.1 c0.7,0.2,1.1,0.7,1.4,1c0.2,0.3,0.3,0.3,0.4,0.3c0.1,0.1,0.2,0.1,0.4,0.1c0.7,0.1,1.4,0.2,2.1,0.9l0.3,0.3 c3.8-0.4,7.6-0.9,11.3-1.3c0.1,0,0.1,0,0.2,0c0.1,0.5-0.1,1-0.1,1.4c0,0.5,0.2,1,0.4,1.5c-0.2,0-0.3,0.1-0.5,0.2 c-1.6,0.3-3.3,0.7-5,1l0.3,0.2l-1,0.4c0.5,0.5,0.9,1.4,1.1,2.5c2.3-0.7,4.6-1.2,6.8-1.9c0.8-0.2,1.4-0.2,2.2,0 c0.2,0.7,0.4,1.3,1,1.9c0,0.2-0.2,0.2-0.3,0.3c-2.8,1-5.7,2.1-8.5,3.2c0.1,0.5,0.2,1.1,0.2,1.7l0.1,1.6 c3.7-1.7,7.5-3.5,11.3-5.2c0.3,0,0.5,0.2,0.8,0.4c0.1,0.8,0,1.4,0,2.2c-0.3,0.2-0.7,0.3-1,0.5l-14.4,8.2c1.1,0.4,2.1,1,3.2,1.5 c0.2,0.1,0.4,0.2,0.7,0.3c3.7-2.4,7.3-4.9,11-7.3c-0.2,1.5-0.4,2.8-0.7,4c-0.1,0.2-2.7,2.3-6.4,5.2c0.8,0.4,1.5,0.8,2.2,1.2 l1.5,0c0.8-0.8,1.6-1.5,2.4-2.2c0,0.7,0,1.5,0,2.2l1.3,0v-2.5c0.1-0.7,0.1-1.4,0.1-2.1c0.1-1.2,0.3-2.4,0.5-3.7 c0.1-1.3,0.3-2.7,0.7-4.1c0.1-0.4,0.2-0.9,0.2-1.3c0.1-0.7,0-1.2,0-1.9c0.1-0.7-0.2-1.1-0.7-1.4c-0.5-0.5-1.2-1-2.1-1.2 c-0.7-0.1-1.2-0.4-1.5-1c-0.2-0.4-0.4-0.9-0.4-1.3c0-0.1,0.1-0.3,0.1-0.4c0-0.1,0.2-0.2,0.1-0.4c-0.5,0.1-1,0.1-1.5,0.1 c-0.7,0.1-1.2-0.2-1.7-0.7c-0.5-0.5-1-1.2-1.2-2c0.2-0.8,0.2-1.5,0.2-2.3c-0.1-0.5-0.3-1.1-0.8-1.4c-0.1-0.1-0.3-0.2-0.4-0.3 c-0.9-0.2-1.6-0.3-2.5-0.3c-1,0.1-1.9-0.1-2.8-0.3c-0.7-0.2-1.2-0.5-1.7-1c-1.2-0.9-1.5-2-1.3-3.4c0-0.1,0.1-0.2,0.1-0.2 c0.3-1.6,0.7-3.2,0.9-4.8c0.5-2.6,1-5.3,1.3-8.1c0.2-1.1,0.1-2.3-0.4-3.4c-0.7-1.2-1.2-2.4-1.9-3.6c-0.8-1.7-1.6-3.5-1.9-5.4 c0-0.1-0.1-0.2-0.2-0.3c-0.1,0.1-0.3,0.2-0.4,0.3c-0.7,0.3-1.2,0.8-1.9,1.2c-0.3,0.2-0.7,0.3-1,0.4c-0.5,0.1-1,0.3-1.4,0.5 c-0.5,0.2-1.1,0.5-1.6,0.8c-0.7,0.3-1.3,0.5-2.1,0.4c-0.2,0-0.5,0.1-0.9,0.1c-0.2,0.1-0.4,0.1-0.8,0.1c-0.3,0-0.5,0-0.8,0 l-1.6,2.9c4.9,1.8,9.7,3.6,14.5,5.4c0.3,0.1,0.7,0.3,1,0.4v0.5c-0.2,1.1-0.2,2.2-0.5,3.2c-0.3,0.1-0.7,0-0.9,0 c-3.3-1-6.4-1.9-9.6-2.7c-2.4-0.7-4.8-1.3-7.1-2l-2.4,4.4c6.4,1.3,12.8,2.6,19.2,3.9C94.7,30.5,94.7,30.7,94.8,30.7z M94.4,18.8 c-2.5-1.2-5-2.3-7.5-3.5c0-0.2,0.1-0.2,0.2-0.3c0.5-0.2,1.1-0.5,1.6-0.8c0.3-0.2,0.7-0.3,1.1-0.4c0.5-0.1,1-0.3,1.4-0.7 c0.2-0.1,0.4-0.2,0.7-0.4c0.1,0.1,0.2,0.2,0.2,0.3c0.5,1.6,1.2,3.2,2,4.7c0.2,0.3,0.3,0.7,0.5,1C94.6,18.7,94.6,18.7,94.4,18.8z "></path> <path class="st0" d="M76.6,42.4c-1.2,0-2.3,0-3.5,0.1l1.4,2.6c0.6-0.6,1.3-1.4,1.6-1.7l0.4-0.5l0.5,0.1c0.4,0.1,0.9,0.2,1.3,0.3 l-0.9-1C77.2,42.3,76.9,42.3,76.6,42.4z"></path> <path class="st0" d="M115.2,8.2L115.2,8.2C115.2,8.1,115.2,8.2,115.2,8.2z"></path> <path class="st0" d="M142.6,35.8c0.6-0.1,1.2-0.3,1.8-0.6l-0.4-0.7c-0.7,0.4-1.4,0.6-2.2,0.6c-0.4,0-0.8,0.1-1.3,0.1 c0,0.1,0,0.1,0,0.1C141.2,35.8,141.8,36,142.6,35.8z"></path> <path class="st0" d="M142.9,32.5l-0.3-0.6c-0.7,0.2-1.4,0.4-2.2,0.3c0,0-0.1,0-0.1,0c-0.1,0-0.2,0-0.3,0.2 c0.5,0.3,1.1,0.4,1.8,0.3C142.1,32.7,142.5,32.6,142.9,32.5z"></path> <path class="st0" d="M138.8,25.5c0.2,0.7,0.5,1.3,1,1.8c0.2,0.2,0.3,0.3,0.5,0.5l-1.3-2.3c-0.1-0.1-0.1-0.1-0.2-0.2 C138.9,25.4,138.8,25.5,138.8,25.5z"></path> <path class="st0" d="M138.6,28.7c0.6,0.8,1.7,1.4,2.9,1.4l-0.4-0.8c-0.3-0.1-0.6-0.1-0.8-0.2c-0.7-0.3-1.3-0.7-1.8-1.3 c-0.2-0.3-0.4-0.5-0.6-0.8c0,0.1,0,0.3,0,0.4C138,27.8,138.3,28.2,138.6,28.7z"></path> <path class="st0" d="M137.8,26.9C137.8,26.9,137.8,26.9,137.8,26.9"></path> <path class="st0" d="M120.9,9.9c0,0.3,0,0.5,0.1,0.8c0.1,0.4,0.2,0.8,0.3,1.2c0.2,0.7,0.8,1.2,1.4,1.5c0.1,0.1,0.3,0.1,0.4-0.1 c-0.1-0.1-0.2-0.2-0.3-0.3c-0.6-0.6-1-1.2-1-2.1c0-0.5-0.1-0.9-0.2-1.4c-0.1-0.4-0.2-0.8-0.5-1.1c-0.3-0.3-0.6-0.5-1-0.6 c0,0-0.1,0-0.1-0.1c0,0,0,0.1,0.1,0.1c0.1,0.2,0.2,0.4,0.3,0.6C120.7,9,120.9,9.4,120.9,9.9z"></path> <path class="st0" d="M126,5.9C126,5.9,126,5.9,126,5.9"></path> <path class="st0" d="M123.7,4.6c0.7,0,1.4,0.2,1.9,0.8c0.2,0.2,0.3,0.3,0.5,0.5c0-0.1,0-0.2,0-0.2c-0.4-0.8-1-1.4-1.9-1.6 c-0.2-0.1-0.5,0-0.8,0c-0.2,0.1-0.5,0.2-0.7,0.5C123.1,4.6,123.4,4.7,123.7,4.6z"></path> <path class="st0" d="M114.3,4.1c0.1,0,0.2,0,0.2,0c0.2-0.1,0.3-0.2,0.5-0.2h-0.6c0,0,0,0,0,0C114.4,3.9,114.4,4,114.3,4.1z"></path> <path class="st0" d="M125.8,4.2c0.1,0.1,0.2,0.3,0.4,0.2c0-0.2-0.1-0.4-0.1-0.6h-0.7C125.5,4,125.6,4.1,125.8,4.2z"></path> <path class="st0" d="M122.3,3.9h-0.9c-0.1,0.3-0.2,0.6-0.3,0.9c0.2,0,0.3-0.1,0.4-0.3C121.8,4.3,122.1,4.1,122.3,3.9z"></path> <path class="st0" d="M117.8,7.8c0.7,0.4,1.2,0.9,1.5,1.7c0.2,0.5,0.4,0.9,0.7,1.4c0.1,0.1,0.2,0.2,0.4,0.3 c0-0.1,0.1-0.1,0.1-0.1c0-0.3-0.1-0.5-0.1-0.8c-0.2-1.5-1.2-2.3-2.5-2.8c-0.1,0-0.2,0-0.3,0c0,0.1,0,0.1,0.1,0.1 C117.5,7.6,117.6,7.7,117.8,7.8z"></path> <path class="st0" d="M126.2,8.1c0-0.1,0-0.3,0-0.4c-0.2-0.4-0.4-0.8-0.6-1.1c-0.4-0.7-1-1.1-1.7-1.3c-0.1,0-0.3-0.1-0.4,0.1 c0.1,0.1,0.2,0.2,0.4,0.3c0.6,0.4,1.1,0.9,1.5,1.5c0.2,0.3,0.3,0.5,0.5,0.8C126,8,126.1,8.1,126.2,8.1z"></path> <path class="st0" d="M116.9,3.9c-0.1,0.1-0.2,0.1-0.3,0.2c-0.3,0.2-0.6,0.4-1,0.5c-0.3,0.2-0.7,0.3-1.1,0.5 c0.9,0.4,2.3-0.2,3.4-1.2H116.9z"></path> <path class="st0" d="M126.3,8.4c0.1-0.1,0-0.2,0-0.2C126.3,8.2,126.3,8.3,126.3,8.4z"></path> <path class="st0" d="M117.1,6.1c1.1-0.5,2-1.3,2.7-2.2H119c-0.8,0.9-1.6,1.6-2.6,2.2c0,0-0.1,0.1-0.1,0.1 C116.6,6.3,116.8,6.2,117.1,6.1z"></path> <path class="st0" d="M121.1,4.9L121.1,4.9C121.1,4.8,121.1,4.9,121.1,4.9z"></path> <path class="st0" d="M126.7,14.7c0.1,0,0.3,0,0.5-0.1c0.8-0.1,1.6-0.4,2.3-0.8c0.8-0.5,1.5-1.1,2.2-1.8l-0.5-0.9c0,0,0,0,0,0 c-0.8,1.1-1.8,1.9-2.9,2.6c-0.4,0.2-0.8,0.4-1.3,0.4c-0.6,0.1-1.3,0.2-2,0.3C125.5,14.7,126.1,14.8,126.7,14.7z"></path> <path class="st0" d="M127.9,8.7c0-0.4,0.1-0.7,0-1c0-0.7,0-1.5,0.1-2.2l-0.6-1.2c0,0.1-0.1,0.3-0.1,0.4 c-0.2,0.6-0.2,1.3-0.1,1.9C127.2,7.4,127.5,8.1,127.9,8.7z"></path> <path class="st0" d="M125.7,9.3C125.7,9.3,125.7,9.2,125.7,9.3C125.7,9.2,125.7,9.2,125.7,9.3C125.7,9.3,125.7,9.3,125.7,9.3z"></path> <path class="st0" d="M123.9,11.8C123.9,11.8,123.9,11.8,123.9,11.8"></path> <path class="st0" d="M123.8,11.8c-0.1-0.6-0.1-1.2-0.2-1.8c-0.1-0.5-0.1-0.9-0.3-1.3c-0.2-0.3-0.4-0.6-0.7-0.8 c-0.4-0.3-0.6-0.3-1.1-0.3c0.2,0.3,0.4,0.5,0.6,0.7c0.5,0.5,0.8,1.2,0.9,1.9c0,0.3,0.1,0.5,0.2,0.8 C123.3,11.3,123.4,11.7,123.8,11.8z"></path> <path class="st0" d="M125,8.4c0.2,0.3,0.4,0.5,0.7,0.8c0-0.1,0-0.3,0-0.4c-0.2-0.6-0.5-1.2-0.9-1.7c-0.5-0.5-1-1-1.7-1.2 c-0.1,0-0.3-0.1-0.4,0.1C123.6,6.7,124.4,7.5,125,8.4z"></path> <path class="st0" d="M126.5,12.9c0,0,0.1,0,0.2-0.1c-0.2-0.3-0.4-0.5-0.7-0.7c-0.4-0.3-0.7-0.7-1-1.2c-0.2-0.5-0.4-1-0.6-1.6 c-0.1,0.9,0.2,1.7,0.5,2.4C125.3,12.4,125.8,12.8,126.5,12.9z"></path> <path class="st0" d="M129.2,9.3c0,0,0,0,0.1,0.1c0-0.2,0-0.4,0.1-0.6c0-0.2,0-0.4,0-0.7l-0.6-1C128.8,7.8,129,8.5,129.2,9.3z"></path> <path class="st0" d="M108.6,4.5c0.2,0.6,1.6,3,2.3,4c0.4,0.2,0.9,0.5,1.6,0.4c-1.1-1.5-2.1-2.7-3.3-3.9 C109.1,4.9,108.9,4.6,108.6,4.5z"></path> <path class="st0" d="M101.2,4.4c0.2-0.1,0.4-0.1,0.5-0.2c0.3-0.1,0.5-0.2,0.8-0.3h-0.8c-0.2,0.1-0.3,0.2-0.5,0.4 C101.2,4.3,101.2,4.3,101.2,4.4z"></path> <path class="st0" d="M101.1,5.8c0.1,0.1,0.2,0.2,0.3,0.2c0.4,0.2,0.8,0.5,1.3,0.7c0.9,0.4,1.7,0.8,2.6,1.2 c2.7,1.3,5.4,2.5,8,3.8c2,1,3.8,2.2,5.5,3.7c1.1,1,2.1,2,3.2,2.9c-0.1-0.5-0.4-0.8-0.7-1.1c-0.7-0.9-1.4-1.7-2.1-2.5 c-0.1-0.1-0.2-0.3-0.4-0.4c-1.8-1.7-3.8-3-5.9-4.1c-1.9-1-3.9-1.8-6-2.6c-1.4-0.5-2.9-1-4.2-1.7c-0.4-0.2-0.8-0.3-1.2-0.3 C101.3,5.7,101.2,5.7,101.1,5.8z"></path> <path class="st0" d="M129.6,15.6c0.5-0.1,1-0.3,1.4-0.5c0.6-0.4,1.1-0.9,1.6-1.4l-0.3-0.6c-0.8,0.9-1.8,1.6-3.1,1.9 c-1,0.2-2,0.4-3.1,0.4c-0.5,0-1,0-1.4,0c0.3,0.3,0.6,0.4,1,0.4C126.9,16,128.3,15.9,129.6,15.6z"></path> <path class="st0" d="M122,18.4C122,18.4,122,18.4,122,18.4"></path> <path class="st0" d="M114.3,4.1C114.3,4.1,114.3,4.1,114.3,4.1C114.3,4.1,114.3,4.1,114.3,4.1C114.3,4.1,114.3,4.1,114.3,4.1z"></path> </g> </g> </g> <g> <path class="st0" d="M15.9,98.6c2.6-0.8,4-2.6,4-5c0-3.6-2.4-5.8-6.8-5.8H1.2v23h13.2c4.2,0,6.5-2.5,6.5-6.6 C20.9,101.3,19.2,99.3,15.9,98.6z M6.3,91.8h4.9c2.2,0,3.6,1.1,3.6,2.9c0,1.8-1.4,2.9-3.6,2.9H6.3V91.8z M12.3,106.9H6.3v-6.1h5.9 c2.2,0,3.6,1.2,3.6,3.1C15.9,105.7,14.5,106.9,12.3,106.9z"></path> <path class="st0" d="M39.4,110.8h5.3l-8.4-23h-6.7l-8.4,23h5.3l1.9-5.2h9.2L39.4,110.8z M30,101.1l2.9-8l2.9,8H30z"></path> <path class="st0" d="M56,111.3c6,0,10-3.7,10.3-9.4h-5.1c-0.4,3-2.3,5.1-5.3,5.1c-3.7,0-6.6-3.1-6.6-7.7c0-4.6,2.8-7.7,6.5-7.7 c3.2,0,4.8,2.3,5.3,5.6h5.1c-0.3-6.1-4.4-9.9-10.4-9.9c-6.8,0-11.7,4.9-11.7,12.1C44.3,106.5,49.1,111.3,56,111.3z"></path> <polygon class="st0" points="84.3,110.8 89.4,110.8 89.4,87.8 84.3,87.8 84.3,96.8 74.4,96.8 74.4,87.8 69.3,87.8 69.3,110.8 74.4,110.8 74.4,101.4 84.3,101.4 "></polygon> <path class="st0" d="M113.2,104.2c0-3-1.8-5-5-5.6c2.6-0.8,4-2.6,4-5c0-3.6-2.4-5.8-6.8-5.8H93.5v23h13.2 C110.9,110.8,113.2,108.3,113.2,104.2z M98.6,91.8h4.9c2.2,0,3.6,1.1,3.6,2.9c0,1.8-1.4,2.9-3.6,2.9h-4.9V91.8z M98.6,106.9v-6.1 h5.9c2.2,0,3.6,1.2,3.6,3.1c0,1.9-1.4,3.1-3.6,3.1H98.6z"></path> <polygon class="st0" points="132.8,106.2 121.3,106.2 121.3,87.8 116.2,87.8 116.2,110.8 132.8,110.8 "></polygon> <polygon class="st0" points="136.8,110.8 142.2,110.8 142.2,101.3 148.7,92.4 155.2,92.4 155.2,110.8 160.3,110.8 160.3,92.4 167.9,92.4 167.9,87.8 152,87.8 147.6,87.8 145.5,87.8 139.5,97.2 133.4,87.8 126.8,87.8 136.8,101.3 "></polygon> <polygon class="st0" points="170.3,110.8 188.6,110.8 188.6,106.2 175.4,106.2 175.4,101.4 187.6,101.4 187.6,97.1 175.4,97.1 175.4,92.4 188.6,92.4 188.6,87.8 170.3,87.8 "></polygon> <polygon class="st0" points="208.8,87.8 208.8,106.4 200.3,87.8 192.1,87.8 192.1,110.8 197.2,110.8 197.2,92.2 205.7,110.8 213.9,110.8 213.9,87.8 "></polygon> <polygon class="st0" points="32.6,138.4 38,138.4 38,129.5 50.2,129.5 50.2,124.9 38,124.9 38,120 50.8,120 50.8,115.4 32.6,115.4 "></polygon> <polygon class="st0" points="54.1,138.4 72.3,138.4 72.3,133.8 59.2,133.8 59.2,129 71.4,129 71.4,124.7 59.2,124.7 59.2,120 72.3,120 72.3,115.4 54.1,115.4 "></polygon> <path class="st0" d="M85,124.4c-3.3-0.6-4.9-1-4.9-2.6c0-1.7,1.9-2.9,4.3-2.9c3.3,0,4.8,1.6,4.8,5h5.1c0-3.3-1.7-8.9-9.9-8.9 c-6.5,0-9.4,3.7-9.4,7.4c0,5.2,5.7,6.2,9.5,6.9c3.6,0.6,5.4,1.2,5.4,3.1c0,1.8-2.3,2.6-4.5,2.6c-2.7,0-5.8-1.3-5.8-5.3h-5.1 c0,4.8,3.1,9.2,10.7,9.2c6.7,0,9.8-3.1,9.8-7C95,126.7,90,125.3,85,124.4z"></path> <polygon class="st0" points="95.5,120 103.1,120 103.1,138.4 108.2,138.4 108.2,120 115.7,120 115.7,115.4 95.5,115.4 "></polygon> <rect x="117.6" y="115.4" class="st0" width="5.1" height="23"></rect> <polygon class="st0" points="141.9,115.4 135.8,134.7 129.7,115.4 124.4,115.4 131.7,138.4 139.8,138.4 147.1,115.4 "></polygon> <path class="st0" d="M151,115.4l-8.4,23h5.3l1.9-5.2h9.2l1.9,5.2h5.3l-8.4-23H151z M151.4,128.7l2.9-8l2.9,8H151.4z"></path> <polygon class="st0" points="172.8,115.4 167.7,115.4 167.7,138.4 184.4,138.4 184.4,133.8 172.8,133.8 "></polygon> </g> <g> <path class="st0" d="M220.8,91.2c0-0.1,0-0.2-0.1-0.3c-0.1-0.2-0.2-0.3-0.4-0.3c0.4-0.1,0.6-0.3,0.6-0.7c0-0.2-0.1-0.4-0.1-0.5 c-0.1-0.1-0.2-0.2-0.3-0.2c-0.1,0-0.2-0.1-0.3-0.1c0,0-0.1,0-0.1,0h-1.6v2.8h0.7v-1.1h0.6c0.2,0,0.3,0.1,0.4,0.2 c0,0.1,0,0.1,0.1,0.2c0,0.2,0,0.3,0.1,0.5c0,0.1,0,0.2,0.1,0.2h0.7c0-0.1-0.1-0.2-0.1-0.3C220.9,91.4,220.8,91.3,220.8,91.2z M219.9,90.2h-0.8v-0.7h0.8c0.2,0,0.4,0.1,0.4,0.4C220.3,90.1,220.2,90.2,219.9,90.2z"></path> <path class="st0" d="M219.7,87.2c-1.8,0-3.2,1.5-3.2,3.2s1.5,3.2,3.2,3.2c1.8,0,3.2-1.5,3.2-3.2S221.5,87.2,219.7,87.2z M219.7,92.9c-1.4,0-2.5-1.1-2.5-2.5s1.1-2.5,2.5-2.5c1.4,0,2.5,1.1,2.5,2.5S221.1,92.9,219.7,92.9z"></path> </g> </g> </svg> 