<?xml version="1.0" encoding="UTF-8"?>
<svg id="Ebene_1" xmlns="http://www.w3.org/2000/svg" version="1.1" viewBox="0 0 231.61 138.9">
  <!-- Generator: Adobe Illustrator 29.8.4, SVG Export Plug-In . SVG Version: 2.1.1 Build 6)  -->
  <defs>
    <style>
      .st0 {
        fill: #fff;
      }
    </style>
  </defs>
  <g>
    <path class="st0" d="M229.41,91.2c0-.1,0-.2-.1-.3-.1-.2-.2-.3-.4-.3.4-.1.6-.3.6-.7,0-.2-.1-.4-.1-.5-.1-.1-.2-.2-.3-.2s-.2-.1-.3-.1h-1.7v2.8h.7v-1.1h.6c.2,0,.3.1.4.2q0,.1.1.2c0,.2,0,.3.1.5,0,.1,0,.2.1.2h.7c0-.1-.1-.2-.1-.3-.2-.2-.3-.3-.3-.4ZM228.51,90.2h-.8v-.7h.8c.2,0,.4.1.4.4,0,.2-.1.3-.4.3Z"/>
    <path class="st0" d="M228.31,87.2c-1.8,0-3.2,1.5-3.2,3.2s1.5,3.2,3.2,3.2c1.8,0,3.2-1.5,3.2-3.2s-1.4-3.2-3.2-3.2ZM228.31,92.9c-1.4,0-2.5-1.1-2.5-2.5s1.1-2.5,2.5-2.5,2.5,1.1,2.5,2.5-1.1,2.5-2.5,2.5Z"/>
  </g>
  <g>
    <path class="st0" d="M137.25,73.2h-42.9l-.7-.4-19.7-35.8v-.8L93.55.4l.8-.4h42.9l.7.4,19.7,35.8v.8l-19.7,35.8-.7.4ZM94.85,71.5h41.9l19.2-34.9L136.75,1.7h-41.9l-19.2,34.9,19.2,34.9Z"/>
    <g>
      <path class="st0" d="M114.45,34.4c.1.1.2.2.2.3.5,1,.5,2,.1,3.1-.2.3-.4.7-.9.7-.4-.2-.3-.5-.3-.9-.1,0-.2-.1-.3-.1-1.2-.3-2.5-.3-3.7-.2-.5.1-1.1.3-1.5.5-.3.2-.7.4-.7.9.3-.2.8-.4,1.1-.7.9-.4,1.7-.4,2.5-.4,1,0,1.9.4,2.5,1.2.1.1.2.1.2.2.5.1.9-.1,1.3-.3.1-.2.3-.5.4-.9.3-.8.4-1.5.1-2.4-.1-.5-.4-.8-1-1Z"/>
      <path class="st0" d="M97.25,50.6c.9-.9,2.8-.9,4-1.2,1.5-.3,2.9,1.5,4.2,2.1-.2-1.5-.9-2.5-2.4-2.8.4-.1.8-.5,1.3-.6-2.2-1.9-10.3-1.4-7.1,2.5Z"/>
      <path class="st0" d="M90.65,47c.9,0,2.2.4,2.4-.6.4-1.8-.7-2.6-2.2-3.4.1.4-.1.9,0,1.3-1.1-.8-1.8-1.4-3.2-1.5.9,1.1,1.8,3.3,3,4.2Z"/>
      <path class="st0" d="M91.95,57.1c-.9-.4-1.9-.7-2.8-1.1-.1,0-.3,0-.4.1l4,7.2c1.2-2.2.9-3.9-.8-6.2Z"/>
      <path class="st0" d="M84.85,48c-.2,0-.4,0-.5.1l1.9,3.5c.3-.8.5-1.5.8-2.3.4-1-1.4-1.4-2.2-1.3Z"/>
      <path class="st0" d="M94.85,43.9c-1.4-.4-.5,2.5-.6,3.4,1.4.9,1.1.9,2.2-.1.6-.6,1.7-.9,2.4-1.2-.6-.5-1.3-.5-2.1-.7-.9-.3-1.1-1.2-1.9-1.4Z"/>
      <path class="st0" d="M100.75,51.3c-.6-.1-3.2-.3-3.7.3-.3.4.1,1.9.1,2.4,1.4-.1,3-.2,4.3.4,1.7.7,2.3,2.4,3.6,3.6.2-.8,1-1.8,1.8-1.4-.1-3.7-2.8-4.8-6.1-5.3Z"/>
      <path class="st0" d="M83.35,46.2l.3.6c1.5.1,2.9.4,4,1.2.6-.4,1.3-.7,1.9-1.1-1.2-1.7-2.6-2.5-4.3-2.8-.5.6-1.3,1.4-1.9,2.1Z"/>
      <path class="st0" d="M98.65,59.8c.2.2,1.3,1.8,1.3,1.8.8-.1,1.2-2,1.4-2.6.5-2.5-1.4-3.2-3.7-3.6-1.5-.3-2.1.5-3.2,1.4-.5,3.1,2.9,1.7,4.2,3Z"/>
      <path class="st0" d="M103.35,69.4c-2.5-.5-5.1-.7-7.7-.7l.4.7h7.3Z"/>
      <path class="st0" d="M94.45,51.9c0-3-5.2-3-5.2,0,.1,3,5.2,3,5.2,0Z"/>
      <path class="st0" d="M97.55,61.5l-2.5-1.1c.3.7-.1,1,1,1.8,3,2,6.1,3.9,9.4,5.3,1.3.5,2.6,1.2,3.9,1.8h2.9c-5.1-2.6-10.8-5.1-14.7-7.8Z"/>
      <path class="st0" d="M89.35,49.9c0-1.1-1.8-1.1-1.8,0,.1,1.1,1.8,1.1,1.8,0Z"/>
      <path class="st0" d="M90.35,54.4c0-1.1-1.8-1.1-1.8,0,0,1.1,1.8,1.1,1.8,0Z"/>
      <path class="st0" d="M92.65,48.8c0,1.1,1.8,1.1,1.8,0,0-1.1-1.8-1.1-1.8,0Z"/>
      <path class="st0" d="M87.15,52.5c0,1.1,1.8,1.1,1.8,0,0-1-1.8-1-1.8,0Z"/>
      <path class="st0" d="M92.05,55.5c0-1.1-1.8-1.1-1.8,0s1.8,1.1,1.8,0Z"/>
      <path class="st0" d="M94.75,55.2c0-1.1-1.8-1.1-1.8,0s1.8,1.1,1.8,0Z"/>
      <path class="st0" d="M91.75,48.5c0-1.1-1.8-1.1-1.8,0s1.8,1.1,1.8,0Z"/>
      <path class="st0" d="M96.35,50.8c0-1.1-1.8-1.1-1.8,0,0,1.1,1.8,1.1,1.8,0Z"/>
      <path class="st0" d="M96.35,53.6c0-1.1-1.8-1.1-1.8,0,0,1.1,1.8,1.1,1.8,0Z"/>
      <path class="st0" d="M114.35,22.2c.1-.3.1-.7,0-1-.2.1-.4.2-.7.3.2.3.3.6.7.7Z"/>
      <path class="st0" d="M120.85,17.7c.1,0,.3-.1.6-.2-.5-.5-.9-.8-1.4-1.1-1.6-.9-3.3-1.6-4.9-2.4-.2-.1-.4-.1-.6-.1-.4,0-.9.1-1.3.2-.5.1-.9.2-1.4.3-1,.1-1.8.5-2.2,1.5v.2c.1.1.2.2.3.3h2.7c1,0,2.1.1,3.1.2.9.1,1.8.4,2.7.7.8.4,1.6.5,2.4.4Z"/>
      <path class="st0" d="M139.35,16.4c-.3.1-.7.3-1,.4s-.7.2-1.2.3c.6.2,1,.2,1.4.1.6-.1,1.1-.3,1.7-.5.6-.3,1.1-.6,1.6-1l-.4-.8c-.6.6-1.2,1.1-2.1,1.5Z"/>
      <path class="st0" d="M101.85,61c1.1-.5,2.1-1,3.2-1.5l-.8-.6c-.6-.5-1-1.1-1.4-1.6-.5-.6-.9-1.2-1.5-1.6.2.2.4.4.6.6.5.8.7,1.8.4,2.9-.1.5-.3,1.2-.5,1.8Z"/>
      <path class="st0" d="M115.25,19.9c-.3.9-.6,1.7-.4,2.8.8-.3,1.4-.8,2-1.3.3-.3.8-.6.9-1.1-.1-.2-.3-.3-.5-.3-.7-.1-1.4-.4-2-.1Z"/>
      <path class="st0" d="M130.55,24.2c.3.6.5,1.2.8,1.8.1.2.1.4.3.5v-.3c-.5-2-1.3-3.9-2.5-5.7-1.4-2-3.1-3.7-5-5.2-2-1.5-4.2-2.6-6.5-3.5-.5-.2-.9-.4-1.4-.5-1.3-.4-2.4-1.1-3.6-1.8-1.3-.9-2.7-1.8-4.1-2.7-.1-.1-.3-.2-.5-.1.1.2.3.4.4.6.4.5.8.9,1.2,1.4.9,1,1.9,1.9,3.1,2.5,1.1.6,2.2,1.1,3.3,1.5,1.7.6,3.4,1.3,5.1,2.2s3.3,2,4.6,3.3c2.2,1.6,3.7,3.7,4.8,6Z"/>
      <path class="st0" d="M118.75,18.8c.2,0,.4-.2.6-.3-.1-.3-.3-.3-.4-.4-.8-.2-1.7-.4-2.5-.6s-1.6-.3-2.3-.4h-1.7c-.3,0-.6,0-.9.1v.2c.3.4.6.6,1,.7,1.8.4,3.5.7,5.3.7.3.1.6.1.9,0Z"/>
      <path class="st0" d="M151.55,38.2c-.6.3-1.2.6-1.7,1.1-.6.5-.9,1.2-1.2,1.9-1,2.4-2.2,4.7-3.4,7-1,1.9-1.6,3.8-1.9,5.9,0,.1,0,.2.1.3.1,0,.2-.1.2-.1l9.1-16.6c-.4.2-.8.3-1.2.5Z"/>
      <path class="st0" d="M135.55,61.7c-.9.5-2,.9-3.1,1.2-1.3.4-2.6.7-4,.3-.1-.1-.2,0-.3,0,0,.1-.1.2-.1.3.1,1,.1,2,.1,2.8v.5c0,.8,0,1.5-.1,2.3v.1h3.8c.8-1.5,1.7-3,2.5-4.5.2.1.1.2.1.3-.1.9-.2,1.7-.3,2.7,0,.5-.1.9-.1,1.4h1.3v-.2c.1-.9.1-1.9.2-2.7.1-1.5.3-2.9.5-4.5v-.4c-.2.3-.3.4-.5.4ZM131.95,64.5c-.8,1.1-1.4,2.2-2.1,3.3-.1.1-.2.2-.4.5-.1-.5,0-.9,0-1.3v-1c0-.4-.1-.8,0-1.2.9-.1,1.6-.2,2.5-.3q0-.1,0,0Z"/>
      <path class="st0" d="M108.25,6.7s0-.1,0,0h0Z"/>
      <path class="st0" d="M141.65,31.1h0"/>
      <path class="st0" d="M137.45,38.7c.1-.3.2-.5.2-.8.5-2,1.1-3.9,2-5.7.2-.3.3-.7.5-1,.6-1.1,1-2.4,1.3-3.6v-.3c-.1.1-.2.1-.2.2-.3.6-.7,1.2-1,1.9-.3.6-.5,1.2-.8,1.7-.7,1.2-1.2,2.5-1.6,3.8-.3,1-.5,2-.5,3.1,0,.3,0,.5.1.8-.1,0,0-.1,0-.1Z"/>
      <path class="st0" d="M138.65,62.6c.2-1.9.2-3.7.3-5.6.1-1.7.2-3.4.3-5.1.1-1.3.2-2.5.2-3.8.1-1.9.1-3.7.2-5.6v-.4c.2-1.4.4-2.8.6-4.2.4-2,.7-4,1.2-6,.1-.3.1-.6.1-.9q-.1.1-.1.2c-1,2.1-1.8,4.3-2.1,6.6-.2,1.5-.4,2.9-.6,4.4-.2,1.1-.3,2.2-.3,3.4,0,1.9-.1,3.9-.2,5.8-.2,2.2-.3,4.5-.3,6.7,0,1.1,0,2.3-.1,3.4-.1,1.3-.2,2.5-.3,3.8l.9-1.7c.1-.3.1-.6.2-1Z"/>
      <path class="st0" d="M133.55,19.9h0c.1,0,0,0,0,0h0Z"/>
      <path class="st0" d="M139.85,21c-.1-.1-.1-.2-.2-.1,0,.1.1.1.2.1.1.3.4.4.6.5,1.2.7,2.3,1.5,3.4,2.3.2.1.4.2.5.3,0-.1-.1-.3-.1-.4-1.1-1.2-2.5-2.2-4.1-2.7-.1,0-.2,0-.3,0Z"/>
      <path class="st0" d="M141.05,52.9c.1-1.6.3-3.1.5-4.7.2-1.9.4-3.9.6-5.8,0-.4.1-.8.2-1.2.2-1.4.4-2.7.7-4.1.4-1.6.6-3.3.7-5v-1.1c0-.4-.1-.9-.1-1.3,0-.1,0-.2-.1-.3l-.1.1v.9c-.1,1.7-.2,3.4-.6,5-.3.9-.6,1.8-.8,2.7-.3,1.2-.6,2.3-.7,3.5-.3,2-.4,4.1-.6,6.1-.1,1.2-.2,2.3-.2,3.5-.1,1.3-.2,2.6-.3,3.8-.1,1.8-.2,3.6-.3,5.4,0,.3,0,.6-.1,1l.9-1.6c.1-1.2.1-2.5.2-3.7-.1-1,0-2.1.1-3.2Z"/>
      <path class="st0" d="M144.35,24.1h0"/>
      <path class="st0" d="M145.85,30.6c-.1-.5-.2-1-.3-1.5-.5-1.8-1.5-3.4-3-4.6-.8-.7-1.7-1.2-2.6-1.7-1.8-.9-3.7-1.8-5.6-2.6-.1-.1-.2-.1-.4-.1-.1-.1-.2-.1-.4-.1.1.1.2.1.3.2.5.5,1.2.9,1.8,1.3,1.3.8,2.7,1.6,4,2.4,1,.6,1.9,1.3,2.7,2.2,1.1,1.3,2.1,2.6,2.8,4.2.2.3.3.6.5,1,.3-.4.2-.6.2-.7Z"/>
      <path class="st0" d="M131.75,26.5h0q0,.1,0,0Z"/>
      <path class="st0" d="M131.75,26.5h0Z"/>
      <path class="st0" d="M131.75,26.5h0Z"/>
      <path class="st0" d="M119.15,47.8c-.4.1-.8.3-1.1.6-.2.4-.1.7.2,1,.7-.2,1.1-.8,1.5-1.3-.3-.3-.4-.3-.6-.3Z"/>
      <path class="st0" d="M120.25,47.8c.1-.2.3-.3.1-.6-.2.1-.4.2-.6.4.1.3.3.3.5.2Z"/>
      <path class="st0" d="M132.15,61.6c.7-.2,1.3-.4,2-.8.4-.2,1-.4,1.3-.8.9-.7,1.3-1.4,1.3-2.5,0-.2.1-.5.1-.8-.1-2.6-.1-5.2-.1-7.8,0-.8-.1-1.5-.2-2.2,0-.3-.1-.5-.1-.8-.3-2.3-.7-4.5-1.5-6.6,0-.1-.1-.3-.2-.5-.1-.5-.3-1.1-.4-1.6-.3-1.3-.4-2.6-.3-3.9v-1.1c0-.4-.2-.8-.5-1.1-.4-.5-1-1.1-1.5-1.6-1.1-1.1-1.9-2.5-2.4-4.1-.1-.7-.3-1.3-.5-2s-.7-1.2-1.1-1.6c-1.6-1.3-3.4-2.5-5-3.7-.8-.1-1.4.3-2.1.4-.3.5-.8.9-1.4.9-.4.1-.5.3-.8.7-.7,1.3-1.7,2.2-2.9,2.8-.3.1-.5.2-.8.4,0,0-.1.1-.2.3h.4c.4-.1.8-.2,1.1-.5.5-.3,1.1-.7,1.6-1.1,0,.1-.1.3-.2.3-.4.5-.9,1-1.4,1.3-.3.2-.7.4-1,1,.1.2.1.5.1.9,0,.3.3.7.2,1q-.1-.1-.2-.1c-.3-.5-.7-1-.7-1.6-.1-.3-.2-.4-.4-.7-.2,0-.4.2-.7,0,0-.4.1-.5.4-.8.1-.1.3-.1.3-.4-.3-.4-.7-.8-.9-1.2-.2-.5-.3-1-.5-1.5-.2-.1-.5,0-.8,0-.3.1-.7.2-1,.2-.7.1-1.2.3-1.9.2-.1,0-.2,0-.2-.1-.2-.2-.4-.4-.8-.7-.2-.2-.5-.3-.9-.4v-.1c-.1-.1-.2-.2,0-.3.1,0,.3,0,.4.1h1.7c.5,0,1-.3,1.2-.8.1-.2.1-.4,0-.7,0-.1-.1-.2-.2-.3-.3,0-.8-.1-1.2.2.2.1.3.2.4.2.1.1.3.2.2.4-.9.4-1.7.4-2.5.1-.1-.1-.2-.2-.4-.2-.7-.2-.9-.5-.9-1.2,0-.4.1-.9.4-1.2s.7-.7,1-1.1c.3-.4.9-.8,1.4-1,.9-.3,1.9-.5,2.8-.7.1,0,.3.1.4-.1-.1-.2-.2-.3-.4-.4-.7-.3-1.3-.8-2.1-1.2-.3-.1-.7-.3-1-.4-.9-.4-1.9-.8-2.6-1.1s-1.3-.3-2-.1c-.2.1-.4.2-.7.3-.5,1-.7,1.4-.4,2.3,0,.2.1.4.1.5.3,1.2.8,2.3,1.3,3.5.5,1.1,1.1,2.2,1.6,3.3.4,1,.8,2.1.7,3.2-.1,1.1-.2,2.1-.4,3.1-.4,1.7-.5,3.4-.9,5.1-.1,1-.2,2-.4,2.8-.1.7-.2,1.3-.5,2-.1.3-.2.8-.2,1.1.2,1.4.8,2.5,2.4,3.2.7.2,1.3.3,2.1.3,1.2,0,2.5,0,3.7.2.8.5,1.1,1.4,1.4,2.2.1.2,0,.3.1.4,0,.8,0,1.4-.2,2.1.1.1.2.1.2.1.7-.2,1.2-.1,1.7.2.4.2,1,.3,1.4.4,1,.2,2,.2,3.1.2h1.5c-.2.8-.4,1.5-.9,2.3-.4.7-1.1,1.2-1.9,1.6.3.3.8.5,1.2.9.4.3,1,.7,1.6.8,1.2.3,2,1.1,2.2,2.4.2.8.3,1.6.4,2.5,0,.3,0,.5.1.9.4,1.3,1.2,2.5,2.2,3.5.4.5,1.1.9,1.9,1,1.4.1,2.6,0,3.8-.3Z"/>
      <path class="st0" d="M96.65,11.2h0"/>
      <path class="st0" d="M99.25,8.7c.4-.6.7-1.2,1-1.7.6-1,1.2-2.1,1.8-3.1h-1.1c-.3.7-.6,1.3-.9,2-.6,1.4-1.4,2.7-2.3,3.9-.4.5-.7,1-1.1,1.4.2-.1.3-.1.4-.2.8-.7,1.6-1.4,2.2-2.3Z"/>
      <path class="st0" d="M95.65,6.6c.7-.9,1.3-1.8,2-2.7h-1.2c-.2.1-.3.2-.4.4-.2.2-.3.4-.5.6l-.1.1-2.2,4c.9-.7,1.7-1.4,2.4-2.4Z"/>
      <path class="st0" d="M92.05,11.5h0"/>
      <path class="st0" d="M106.15,58.3l-.2.9c.5-.2,1.1-.5,1.6-.7l-1.2-.6s-.2.2-.2.4Z"/>
      <path class="st0" d="M95.45,63.2c-.5-.3-.8-.6-1-.9-.2.7-.5,1.5-1.1,2.3l.2.3c.9-.4,1.7-.8,2.6-1.2-.3-.2-.5-.3-.7-.5Z"/>
      <path class="st0" d="M105.05,68.6c-1.4-.6-2.8-1.2-4.2-2.1-.6.4-1.3.7-1.9,1.1,2.1.2,4.1.5,6.1,1Z"/>
      <path class="st0" d="M92.45,11.4c1.3-.5,2.4-1.1,3.5-2,.6-.5,1.2-1.1,1.7-1.8.4-.7.9-1.5,1.3-2.2.3-.5.5-1,.8-1.5h-.8c-.3.4-.5.9-.8,1.3-.8,1.4-1.8,2.6-3,3.7-.8.7-1.5,1.3-2.3,2-.2.2-.5.3-.6.6-.1-.1.1-.1.2-.1Z"/>
      <path class="st0" d="M103.85,6.1c.4-.7.8-1.5,1.1-2.2h-1.1c-.1.2-.2.5-.3.7-.3.6-.6,1.1-1,1.6-.9,1.1-1.7,2.2-2.6,3.2-.1.2-.3.3-.4.5.9-.3,1.6-.9,2.3-1.5.8-.6,1.5-1.4,2-2.3Z"/>
      <path class="st0" d="M122.35,54.7c0,.1-.1.1-.1.2-.1.9-.2,1.8-.3,2.6-.1.5-.1,1-.2,1.5-.2,1.1-.3,2.1-.4,3.3.3-.3.3-.6.4-.9.2-1.4.5-2.8,1-4.1.3-.8.3-1.6,0-2.4-.1,0-.2-.2-.4-.2Z"/>
      <path class="st0" d="M125.95,62.1c0-.2,0-.4-.2-.6-.4-.1-.6.1-.7.4-.1.2-.1.4-.1.6,0,.6,0,1.2-.1,1.8-.1,1.7-.1,3.3-.1,5h.9c0-2.4.2-4.8.3-7.2Z"/>
      <path class="st0" d="M121.75,67.6q-.1.1-.1.2v1.6h.5c-.1-.6-.2-1.2-.4-1.8Z"/>
      <path class="st0" d="M107.45,8c.3.2.4.4.7.4q-.2-.4-.7-.4Z"/>
      <path class="st0" d="M123.35,58.6c-.2,1.2-.4,2.3-.6,3.5-.1.3-.1.6-.1.9,0,1.1-.1,2.3.1,3.4,0,.3.1.7.1,1,0,.6.1,1.3.1,1.9h1.1v-4.3c0-1.4.1-2.9.3-4.3.1-.8-.1-1.4-.5-2.1-.3,0-.4-.1-.5,0Z"/>
      <path class="st0" d="M144.05,39.9c-.3,1.6-.5,3.3-.7,4.9-.2,1.1-.4,2.2-.5,3.3,0,.2-.1.4.1.8.1-.4.2-.7.3-.9.8-2.4,1.4-4.9,1.9-7.4.2-1,.3-2.1.4-3.2.1-.8.1-1.6.1-2.5,0-.3.1-.6-.2-1-.1.2-.2.3-.2.3-.5,1.9-.9,3.8-1.2,5.7Z"/>
      <path class="st0" d="M135.45,18.6c.8.2,1.5.5,2.3.6,1.3.3,2.6.6,3.9.8h.5c-.1-.1-.3-.2-.4-.3-1.3-.7-2.8-1.2-4.2-1.6-1.3-.3-2.5-.7-3.8-1.1-2.2-.7-4-2-5.3-3.9-.7-1-1.6-2-2.3-3.1-.6-.9-1.5-1.4-2.4-1.9h-.2c.1.2.2.4.3.5.8,1.1,1.6,2.3,2.4,3.4.7,1,1.5,1.9,2.2,2.8,1.2,1.4,2.6,2.3,4.4,2.8.9.4,1.7.7,2.6,1Z"/>
      <path class="st0" d="M142.15,20.1h0"/>
      <path class="st0" d="M133.35,23.6c.2.5.3.9.5,1.4s.3.9.5,1.4.4,1,.5,1.5.2.9.4,1.6c.2-.4.3-.6.4-.8.3-1,.5-2.1.1-3.1-.3-.7-.6-1.4-1.1-2-.3-.4-.6-.8-.9-1.2-.3-.4-.7-.8-1.1-1.3-.1-.1-.2-.1-.4-.3.1.6.4,1,.6,1.4.1.4.3.9.5,1.4Z"/>
      <path class="st0" d="M135.75,35.4c.1-.2.2-.3.2-.4.2-1.1.7-2.1,1.3-3.1.4-.7.8-1.3,1.1-2,.2-.4.4-.8.5-1.3.1-.2.1-.4.1-.6-.1-.8-.3-1.5-.7-2.2-.3-.4-.6-.8-1-1.2l-.1.1c0,.3.1.7.1,1,.2,1,0,2-.4,3-.3.6-.5,1.3-.8,1.9-.6,1.5-.7,3-.5,4.6.1,0,.1.1.2.2Z"/>
      <path class="st0" d="M103.05,30.7c-.2,1.2-.4,2.4-.8,3.6h-.5c-1.3-.1-2.7-.3-4-.4-1.3-.1-2.6-.3-3.8-.4-.9-.1-1.9-.2-2.7-.3-1.2-.1-2.4-.2-3.7-.4-1.4-.1-2.8-.3-4.1-.4-.9-.1-1.8-.2-2.6-.3l-2.6,4.8.1.1h1c2,.1,3.9.2,5.9.2,2.1.1,4,.2,6.1.3,2.2.1,4.5.2,6.6.2,1.3.1,2.5.2,3.8.2,0,0,.1.1.2.1.2.7.3,1.4.9,2.1.4.5,1.1,1,1.6,1.5-.1.1-.2.1-.3.1-2.2.1-4.5.2-6.6.3h-.3c-1.9,0-3.7.1-5.4.2.4.2,1.1.7,1.6,1.2.1,0,.1-.1.1-.1.3-.3.8-.5,1.2-.5.2,0,.4,0,.7.1.7.2,1.1.7,1.4,1,.2.3.3.3.4.3.1.1.2.1.4.1.7.1,1.4.2,2.1.9l.3.3c3.8-.4,7.6-.9,11.3-1.3h.2c.1.5-.1,1-.1,1.4,0,.5.2,1,.4,1.5-.2,0-.3.1-.5.2-1.6.3-3.3.7-5,1l.3.2-1,.4c.5.5.9,1.4,1.1,2.5,2.3-.7,4.6-1.2,6.8-1.9.8-.2,1.4-.2,2.2,0,.2.7.4,1.3,1,1.9,0,.2-.2.2-.3.3-2.8,1-5.7,2.1-8.5,3.2.1.5.2,1.1.2,1.7l.1,1.6c3.7-1.7,7.5-3.5,11.3-5.2.3,0,.5.2.8.4.1.8,0,1.4,0,2.2-.3.2-.7.3-1,.5l-14.4,8.2c1.1.4,2.1,1,3.2,1.5.2.1.4.2.7.3,3.7-2.4,7.3-4.9,11-7.3-.2,1.5-.4,2.8-.7,4-.1.2-2.7,2.3-6.4,5.2.8.4,1.5.8,2.2,1.2h1.5c.8-.8,1.6-1.5,2.4-2.2v2.2h1.3v-2.5c.1-.7.1-1.4.1-2.1.1-1.2.3-2.4.5-3.7.1-1.3.3-2.7.7-4.1.1-.4.2-.9.2-1.3.1-.7,0-1.2,0-1.9.1-.7-.2-1.1-.7-1.4-.5-.5-1.2-1-2.1-1.2-.7-.1-1.2-.4-1.5-1-.2-.4-.4-.9-.4-1.3,0-.1.1-.3.1-.4s.2-.2.1-.4c-.5.1-1,.1-1.5.1-.7.1-1.2-.2-1.7-.7s-1-1.2-1.2-2c.2-.8.2-1.5.2-2.3-.1-.5-.3-1.1-.8-1.4-.1-.1-.3-.2-.4-.3-.9-.2-1.6-.3-2.5-.3-1,.1-1.9-.1-2.8-.3-.7-.2-1.2-.5-1.7-1-1.2-.9-1.5-2-1.3-3.4,0-.1.1-.2.1-.2.3-1.6.7-3.2.9-4.8.5-2.6,1-5.3,1.3-8.1.2-1.1.1-2.3-.4-3.4-.7-1.2-1.2-2.4-1.9-3.6-.8-1.7-1.6-3.5-1.9-5.4,0-.1-.1-.2-.2-.3-.1.1-.3.2-.4.3-.7.3-1.2.8-1.9,1.2-.3.2-.7.3-1,.4-.5.1-1,.3-1.4.5-.5.2-1.1.5-1.6.8-.7.3-1.3.5-2.1.4-.2,0-.5.1-.9.1-.2.1-.4.1-.8.1h-.8l-1.6,2.9c4.9,1.8,9.7,3.6,14.5,5.4.3.1.7.3,1,.4v.5c-.2,1.1-.2,2.2-.5,3.2-.3.1-.7,0-.9,0-3.3-1-6.4-1.9-9.6-2.7-2.4-.7-4.8-1.3-7.1-2l-2.4,4.4c6.4,1.3,12.8,2.6,19.2,3.9-.1.2-.1.4,0,.4ZM102.65,18.8c-2.5-1.2-5-2.3-7.5-3.5,0-.2.1-.2.2-.3.5-.2,1.1-.5,1.6-.8.3-.2.7-.3,1.1-.4.5-.1,1-.3,1.4-.7.2-.1.4-.2.7-.4.1.1.2.2.2.3.5,1.6,1.2,3.2,2,4.7.2.3.3.7.5,1t-.2.1Z"/>
      <path class="st0" d="M84.85,42.4c-1.2,0-2.3,0-3.5.1l1.4,2.6c.6-.6,1.3-1.4,1.6-1.7l.4-.5.5.1c.4.1.9.2,1.3.3l-.9-1c-.2,0-.5,0-.8.1Z"/>
      <path class="st0" d="M123.45,8.2h0c0-.1,0,0,0,0Z"/>
      <path class="st0" d="M150.85,35.8c.6-.1,1.2-.3,1.8-.6l-.4-.7c-.7.4-1.4.6-2.2.6-.4,0-.8.1-1.3.1v.1c.7.5,1.3.7,2.1.5Z"/>
      <path class="st0" d="M151.15,32.5l-.3-.6c-.7.2-1.4.4-2.2.3h-.1c-.1,0-.2,0-.3.2.5.3,1.1.4,1.8.3.3,0,.7-.1,1.1-.2Z"/>
      <path class="st0" d="M147.05,25.5c.2.7.5,1.3,1,1.8.2.2.3.3.5.5l-1.3-2.3q-.1-.1-.2-.2c.1.1,0,.2,0,.2Z"/>
      <path class="st0" d="M146.85,28.7c.6.8,1.7,1.4,2.9,1.4l-.4-.8c-.3-.1-.6-.1-.8-.2-.7-.3-1.3-.7-1.8-1.3-.2-.3-.4-.5-.6-.8v.4c.1.4.4.8.7,1.3Z"/>
      <path class="st0" d="M146.05,26.9h0"/>
      <path class="st0" d="M129.15,9.9c0,.3,0,.5.1.8.1.4.2.8.3,1.2.2.7.8,1.2,1.4,1.5.1.1.3.1.4-.1-.1-.1-.2-.2-.3-.3-.6-.6-1-1.2-1-2.1,0-.5-.1-.9-.2-1.4-.1-.4-.2-.8-.5-1.1s-.6-.5-1-.6c0,0-.1,0-.1-.1,0,0,0,.1.1.1.1.2.2.4.3.6.3.6.5,1,.5,1.5Z"/>
      <path class="st0" d="M134.25,5.9h0"/>
      <path class="st0" d="M131.95,4.6c.7,0,1.4.2,1.9.8.2.2.3.3.5.5v-.2c-.4-.8-1-1.4-1.9-1.6-.2-.1-.5,0-.8,0-.2.1-.5.2-.7.5.4,0,.7.1,1,0Z"/>
      <path class="st0" d="M122.55,4.1h.2c.2-.1.3-.2.5-.2h-.6s0,.1-.1.2Z"/>
      <path class="st0" d="M134.05,4.2c.1.1.2.3.4.2,0-.2-.1-.4-.1-.6h-.7c.1.2.2.3.4.4Z"/>
      <path class="st0" d="M130.55,3.9h-.9c-.1.3-.2.6-.3.9.2,0,.3-.1.4-.3.3-.2.6-.4.8-.6Z"/>
      <path class="st0" d="M126.05,7.8c.7.4,1.2.9,1.5,1.7.2.5.4.9.7,1.4.1.1.2.2.4.3,0-.1.1-.1.1-.1,0-.3-.1-.5-.1-.8-.2-1.5-1.2-2.3-2.5-2.8h-.3q0,.1.1.1c-.2,0-.1.1.1.2Z"/>
      <path class="st0" d="M134.45,8.1v-.4c-.2-.4-.4-.8-.6-1.1-.4-.7-1-1.1-1.7-1.3-.1,0-.3-.1-.4.1.1.1.2.2.4.3.6.4,1.1.9,1.5,1.5.2.3.3.5.5.8.1,0,.2.1.3.1Z"/>
      <path class="st0" d="M125.15,3.9c-.1.1-.2.1-.3.2-.3.2-.6.4-1,.5-.3.2-.7.3-1.1.5.9.4,2.3-.2,3.4-1.2,0,0-1,0-1,0Z"/>
      <path class="st0" d="M134.55,8.4c.1-.1,0-.2,0-.2v.2Z"/>
      <path class="st0" d="M125.35,6.1c1.1-.5,2-1.3,2.7-2.2h-.8c-.8.9-1.6,1.6-2.6,2.2l-.1.1c.3.1.5,0,.8-.1Z"/>
      <path class="st0" d="M129.35,4.9h0c0-.1,0,0,0,0Z"/>
      <path class="st0" d="M134.95,14.7c.1,0,.3,0,.5-.1.8-.1,1.6-.4,2.3-.8.8-.5,1.5-1.1,2.2-1.8l-.5-.9h0c-.8,1.1-1.8,1.9-2.9,2.6-.4.2-.8.4-1.3.4-.6.1-1.3.2-2,.3.5.3,1.1.4,1.7.3Z"/>
      <path class="st0" d="M136.15,8.7c0-.4.1-.7,0-1,0-.7,0-1.5.1-2.2l-.6-1.2c0,.1-.1.3-.1.4-.2.6-.2,1.3-.1,1.9,0,.8.3,1.5.7,2.1Z"/>
      <path class="st0" d="M133.95,9.3s0-.1,0,0q0-.1,0,0h0Z"/>
      <path class="st0" d="M132.15,11.8h0"/>
      <path class="st0" d="M132.05,11.8c-.1-.6-.1-1.2-.2-1.8-.1-.5-.1-.9-.3-1.3-.2-.3-.4-.6-.7-.8-.4-.3-.6-.3-1.1-.3.2.3.4.5.6.7.5.5.8,1.2.9,1.9,0,.3.1.5.2.8.1.3.2.7.6.8Z"/>
      <path class="st0" d="M133.25,8.4c.2.3.4.5.7.8v-.4c-.2-.6-.5-1.2-.9-1.7-.5-.5-1-1-1.7-1.2-.1,0-.3-.1-.4.1.9.7,1.7,1.5,2.3,2.4Z"/>
      <path class="st0" d="M134.75,12.9s.1,0,.2-.1c-.2-.3-.4-.5-.7-.7-.4-.3-.7-.7-1-1.2-.2-.5-.4-1-.6-1.6-.1.9.2,1.7.5,2.4.4.7.9,1.1,1.6,1.2Z"/>
      <path class="st0" d="M137.45,9.3l.1.1c0-.2,0-.4.1-.6v-.7l-.6-1c0,.7.2,1.4.4,2.2Z"/>
      <path class="st0" d="M116.85,4.5c.2.6,1.6,3,2.3,4,.4.2.9.5,1.6.4-1.1-1.5-2.1-2.7-3.3-3.9-.1-.1-.3-.4-.6-.5Z"/>
      <path class="st0" d="M109.45,4.4c.2-.1.4-.1.5-.2.3-.1.5-.2.8-.3h-.8c-.2.1-.3.2-.5.4v.1Z"/>
      <path class="st0" d="M109.35,5.8c.1.1.2.2.3.2.4.2.8.5,1.3.7.9.4,1.7.8,2.6,1.2,2.7,1.3,5.4,2.5,8,3.8,2,1,3.8,2.2,5.5,3.7,1.1,1,2.1,2,3.2,2.9-.1-.5-.4-.8-.7-1.1-.7-.9-1.4-1.7-2.1-2.5-.1-.1-.2-.3-.4-.4-1.8-1.7-3.8-3-5.9-4.1-1.9-1-3.9-1.8-6-2.6-1.4-.5-2.9-1-4.2-1.7-.4-.2-.8-.3-1.2-.3-.2.1-.3.1-.4.2Z"/>
      <path class="st0" d="M137.85,15.6c.5-.1,1-.3,1.4-.5.6-.4,1.1-.9,1.6-1.4l-.3-.6c-.8.9-1.8,1.6-3.1,1.9-1,.2-2,.4-3.1.4h-1.4c.3.3.6.4,1,.4,1.2.2,2.6.1,3.9-.2Z"/>
      <path class="st0" d="M130.25,18.4h0"/>
      <path class="st0" d="M122.55,4.1h0Z"/>
    </g>
  </g>
  <g>
    <polygon class="st0" points="39.9 138.4 45.3 138.4 45.3 129.5 57.5 129.5 57.5 124.9 45.3 124.9 45.3 120 58.1 120 58.1 115.4 39.9 115.4 39.9 138.4"/>
    <polygon class="st0" points="61.4 138.4 79.6 138.4 79.6 133.8 66.5 133.8 66.5 129 78.7 129 78.7 124.7 66.5 124.7 66.5 120 79.6 120 79.6 115.4 61.4 115.4 61.4 138.4"/>
    <path class="st0" d="M92.3,124.4c-3.3-.6-4.9-1-4.9-2.6,0-1.7,1.9-2.9,4.3-2.9,3.3,0,4.8,1.6,4.8,5h5.1c0-3.3-1.7-8.9-9.9-8.9-6.5,0-9.4,3.7-9.4,7.4,0,5.2,5.7,6.2,9.5,6.9,3.6.6,5.4,1.2,5.4,3.1,0,1.8-2.3,2.6-4.5,2.6-2.7,0-5.8-1.3-5.8-5.3h-5.1c0,4.8,3.1,9.2,10.7,9.2,6.7,0,9.8-3.1,9.8-7,0-5.2-5-6.6-10-7.5Z"/>
    <polygon class="st0" points="102.8 120 110.4 120 110.4 138.4 115.5 138.4 115.5 120 123 120 123 115.4 102.8 115.4 102.8 120"/>
    <rect class="st0" x="124.9" y="115.4" width="5.1" height="23"/>
    <polygon class="st0" points="149.2 115.4 143.1 134.7 137 115.4 131.7 115.4 139 138.4 147.1 138.4 154.4 115.4 149.2 115.4"/>
    <path class="st0" d="M158.3,115.4l-8.4,23h5.3l1.9-5.2h9.2l1.9,5.2h5.3l-8.4-23s-6.8,0-6.8,0ZM158.7,128.7l2.9-8,2.9,8h-5.8Z"/>
    <polygon class="st0" points="180.1 115.4 175 115.4 175 138.4 191.7 138.4 191.7 133.8 180.1 133.8 180.1 115.4"/>
  </g>
  <g>
    <path class="st0" d="M24.15,98.6c2.6-.8,4-2.6,4-5,0-3.6-2.4-5.8-6.8-5.8h-11.9v23h13.2c4.2,0,6.5-2.5,6.5-6.6,0-2.9-1.7-4.9-5-5.6ZM14.55,91.8h4.9c2.2,0,3.6,1.1,3.6,2.9s-1.4,2.9-3.6,2.9h-4.9v-5.8ZM20.55,106.9h-6v-6.1h5.9c2.2,0,3.6,1.2,3.6,3.1.1,1.8-1.3,3-3.5,3Z"/>
    <path class="st0" d="M47.65,110.8h5.3l-8.4-23h-6.7l-8.4,23h5.3l1.9-5.2h9.2l1.8,5.2ZM38.25,101.1l2.9-8,2.9,8h-5.8Z"/>
    <path class="st0" d="M64.25,111.3c6,0,10-3.7,10.3-9.4h-5.1c-.4,3-2.3,5.1-5.3,5.1-3.7,0-6.6-3.1-6.6-7.7s2.8-7.7,6.5-7.7c3.2,0,4.8,2.3,5.3,5.6h5.1c-.3-6.1-4.4-9.9-10.4-9.9-6.8,0-11.7,4.9-11.7,12.1.2,7.1,5,11.9,11.9,11.9Z"/>
    <polygon class="st0" points="92.55 110.8 97.65 110.8 97.65 87.8 92.55 87.8 92.55 96.8 82.65 96.8 82.65 87.8 77.55 87.8 77.55 110.8 82.65 110.8 82.65 101.4 92.55 101.4 92.55 110.8"/>
    <path class="st0" d="M121.45,104.2c0-3-1.8-5-5-5.6,2.6-.8,4-2.6,4-5,0-3.6-2.4-5.8-6.8-5.8h-11.9v23h13.2c4.2,0,6.5-2.5,6.5-6.6ZM106.85,91.8h4.9c2.2,0,3.6,1.1,3.6,2.9s-1.4,2.9-3.6,2.9h-4.9v-5.8ZM106.85,106.9v-6.1h5.9c2.2,0,3.6,1.2,3.6,3.1s-1.4,3.1-3.6,3.1h-5.9v-.1Z"/>
    <polygon class="st0" points="141.05 106.2 129.55 106.2 129.55 87.8 124.45 87.8 124.45 110.8 141.05 110.8 141.05 106.2"/>
    <polygon class="st0" points="145.05 110.8 150.45 110.8 150.45 101.3 156.95 92.4 163.45 92.4 163.45 110.8 168.55 110.8 168.55 92.4 176.15 92.4 176.15 87.8 160.25 87.8 155.85 87.8 153.75 87.8 147.75 97.2 141.65 87.8 135.05 87.8 145.05 101.3 145.05 110.8"/>
    <polygon class="st0" points="178.55 110.8 196.85 110.8 196.85 106.2 183.65 106.2 183.65 101.4 195.85 101.4 195.85 97.1 183.65 97.1 183.65 92.4 196.85 92.4 196.85 87.8 178.55 87.8 178.55 110.8"/>
    <polygon class="st0" points="217.05 87.8 217.05 106.4 208.55 87.8 200.35 87.8 200.35 110.8 205.45 110.8 205.45 92.2 213.95 110.8 222.15 110.8 222.15 87.8 217.05 87.8"/>
  </g>
</svg>